<?xml version="1.0" standalone="no"?>
<!DOCTYPE svg PUBLIC "-//W3C//DTD SVG 1.1//EN" "http://www.w3.org/Graphics/SVG/1.1/DTD/svg11.dtd" >
<svg xmlns="http://www.w3.org/2000/svg" xmlns:xlink="http://www.w3.org/1999/xlink" version="1.1">
<metadata>
Created by FontForge 20180930 at Mon Oct  8 19:16:38 2018
 By root
(c) Copyright 2016 Sabrina Schleiger (Monkey Roodles Fonts) *No unauthorized redistribution*
</metadata>
<defs>
<font id="MRFLemonberrySans-Medium" horiz-adv-x="462" >
  <font-face 
    font-family="MRF Lemonberry Sans"
    font-weight="500"
    font-stretch="normal"
    units-per-em="1000"
    panose-1="2 0 6 3 0 0 0 0 0 0"
    ascent="800"
    descent="-200"
    x-height="523"
    cap-height="791"
    bbox="-126 -248.053 914.669 985.375"
    underline-thickness="50"
    underline-position="-125"
    unicode-range="U+0020-20AC"
  />
    <missing-glyph />
    <glyph glyph-name="space" unicode=" " horiz-adv-x="300" 
 />
    <glyph glyph-name="exclam" unicode="!" horiz-adv-x="233" 
d="M269 750c1 8 -1 14 -6 19c-4 6 -10 9 -18 9c-7 1 -13 -1 -19 -6c-6 -4 -8 -9 -9 -17c-1 -21 -1 -106 0 -256v-20c2 -88 2 -151 2 -189c0 -27 -1 -48 -2 -63c0 -8 0 -13 -1 -17v-3c-4 -10 -2 -19 5 -27c6 -5 12 -8 19 -8c8 0 14 3 18 8c4 4 7 9 8 15c1 2 2 5 2 8
c1 6 1 13 1 21c1 16 2 38 2 66c0 38 0 102 -2 190v20c-1 148 -1 231 0 250zM221 73c-4 -5 -7 -11 -7 -19c0 -7 3 -12 8 -18c6 -5 11 -7 18 -7c8 0 14 3 19 8c6 6 7 11 7 18c0 8 -2 13 -8 18c-5 6 -10 8 -18 8c-7 0 -13 -2 -19 -8z" />
    <glyph glyph-name="quotedbl" unicode="&#x22;" horiz-adv-x="374" 
d="M212 735c0 7 -2 13 -8 18c-5 6 -10 8 -18 8c-7 0 -13 -2 -19 -8c-5 -5 -7 -11 -7 -18c0 -23 1 -51 1 -84c0 -7 1 -18 1 -33c1 -51 1 -89 1 -115c0 -7 3 -13 8 -19c6 -5 12 -7 19 -7c8 0 13 3 18 8c6 6 7 11 7 18c0 26 0 65 -1 116c0 15 -1 26 -1 33c0 33 -1 61 -1 83z
M384 738c1 8 -1 14 -6 19c-4 6 -10 9 -18 9c-7 1 -13 -1 -19 -7c-5 -5 -8 -10 -9 -17c-2 -35 -3 -80 -3 -134c0 -9 1 -22 1 -40v-68c0 -7 3 -13 8 -19c6 -5 12 -7 19 -7c8 0 13 3 18 8c6 6 7 11 7 18v68c0 18 -1 32 -1 40c0 53 1 96 3 130z" />
    <glyph glyph-name="numbersign" unicode="#" horiz-adv-x="506" 
d="M252 482c-4 -50 -7 -94 -10 -131c-1 -17 -2 -34 -3 -50c-13 1 -26 1 -40 1c-24 1 -46 2 -67 2v4c6 50 14 108 24 175h60c12 0 24 -1 36 -1zM325 736c0 8 -2 14 -7 19c-4 6 -10 9 -18 9c-7 1 -13 -1 -19 -6c-6 -4 -8 -10 -8 -18c-3 -42 -8 -108 -16 -197c0 -4 0 -7 -1 -9
c-14 0 -27 1 -39 1h-54c2 10 3 21 5 33c13 86 22 149 27 188c2 8 0 14 -5 20c-4 6 -10 9 -18 10c-7 2 -13 -1 -19 -6c-6 -4 -8 -9 -9 -17c-5 -39 -14 -102 -27 -188c-2 -15 -5 -29 -7 -41c-34 -1 -65 -4 -95 -9c-7 0 -13 -4 -18 -10c-4 -6 -5 -11 -4 -19c2 -7 4 -13 10 -18
c6 -4 13 -5 19 -4c26 4 53 6 81 7c-9 -63 -16 -119 -22 -167c0 -2 -1 -5 -1 -8c-31 2 -61 4 -89 6c-7 1 -14 -1 -20 -6c-6 -4 -8 -10 -9 -18c0 -7 2 -13 6 -19c5 -6 11 -8 18 -9c28 -2 58 -4 88 -6c-8 -89 -13 -170 -13 -244c0 -7 3 -13 8 -19c6 -5 11 -7 18 -7
c8 0 14 3 19 8c6 6 7 11 7 18c0 73 5 154 13 242c23 0 47 -1 72 -2h38c-5 -90 -8 -173 -8 -247c0 -7 3 -13 8 -19c6 -5 11 -7 18 -7c8 0 13 3 18 8c6 6 8 11 8 18c0 74 3 156 8 246h28h39h33c8 0 14 3 19 8c6 6 7 11 7 18c0 8 -2 14 -8 19c-5 6 -10 7 -18 7h-33h-64
c1 16 2 31 3 46c3 38 6 82 10 133c37 0 66 -1 88 -1c8 0 14 3 19 8c6 6 7 11 7 18c0 8 -2 14 -8 19c-5 6 -10 7 -18 7c-21 0 -49 1 -84 1c1 3 1 5 1 7c8 89 13 155 16 197z" />
    <glyph glyph-name="dollar" unicode="$" horiz-adv-x="430" 
d="M300 460c-14 24 -25 45 -35 63c-17 38 -27 72 -30 104c-3 35 2 61 15 77c7 9 16 15 26 17c8 -49 14 -101 18 -156c3 -33 5 -68 6 -105zM356 262c2 -3 4 -7 5 -11c20 -48 27 -93 21 -137c-3 -25 -12 -44 -27 -57v4c1 92 1 159 1 201zM320 773c-4 26 -8 51 -14 75
c-1 7 -5 12 -11 16s-12 5 -20 3c-7 -2 -12 -5 -16 -11s-5 -12 -4 -19c5 -21 9 -42 13 -64c-24 -6 -43 -18 -59 -37c-21 -27 -30 -65 -26 -113c4 -38 15 -79 35 -122c13 -26 34 -63 64 -110c1 -1 3 -4 5 -8c7 -10 12 -19 16 -26c1 -22 1 -44 1 -68c1 -50 1 -126 -1 -227
c0 -9 0 -17 -1 -24c-20 0 -39 4 -59 14c-19 10 -33 24 -45 40c-4 6 -9 10 -17 11c-7 2 -13 0 -19 -4s-9 -8 -11 -16c-1 -7 0 -14 4 -20c16 -24 38 -43 64 -57c27 -14 55 -20 83 -20c0 -40 -1 -77 -1 -109c0 -7 3 -13 8 -19c6 -5 11 -7 18 -7c8 0 14 3 19 8c6 6 7 11 7 18
c0 34 1 73 1 119c46 19 73 56 80 111c7 53 -1 108 -25 164c-8 22 -20 46 -36 72c-5 10 -11 20 -18 30c-1 71 -4 136 -10 196c-4 52 -9 100 -16 146c29 -12 47 -33 54 -62c2 -6 6 -12 12 -16c7 -4 13 -5 20 -3c8 2 12 6 16 12s4 13 2 20c-6 27 -20 50 -42 69
c-21 20 -44 32 -71 38z" />
    <glyph glyph-name="percent" unicode="%" horiz-adv-x="576" 
d="M222 588c-2 12 -2 27 -1 46c1 2 2 5 2 9c2 6 2 11 2 14c1 10 4 18 9 25c8 -4 12 -11 12 -23c2 -18 -4 -38 -17 -60c-2 -4 -5 -7 -7 -11zM206 726c-4 -2 -7 -4 -10 -8c-8 -12 -14 -22 -17 -29c-2 -6 -4 -15 -6 -28c0 -1 0 -4 -1 -8c-1 -6 -2 -11 -2 -15
c-2 -28 -2 -50 2 -67c5 -21 15 -35 29 -41c9 -3 18 -3 27 0c7 2 13 6 19 10c10 8 19 19 27 33c18 30 26 60 24 89c-1 20 -7 37 -19 50c-11 14 -27 22 -47 25c-10 2 -19 -1 -26 -11zM541 144c0 -10 -1 -20 -3 -29c-2 -15 -8 -29 -17 -43c-3 -6 -6 -10 -10 -14
c-8 14 -12 35 -13 63c0 16 0 29 2 41c2 6 3 10 4 13c1 2 2 3 2 3c6 -4 14 -12 24 -26c3 -4 7 -6 11 -8zM555 203c-10 12 -21 20 -31 24c-21 10 -39 6 -55 -11c-17 -18 -25 -50 -23 -96c2 -44 10 -76 26 -97c14 -18 31 -24 50 -19c16 5 31 19 44 41c12 19 19 39 23 61
c3 15 4 37 4 66v8c0 8 -2 14 -8 19c-5 6 -10 7 -18 7c-4 0 -8 -1 -12 -3zM589 734c4 7 5 14 3 20c-2 7 -6 12 -13 16c-6 4 -12 4 -19 2c-6 -2 -12 -6 -16 -12c-39 -69 -85 -156 -139 -261c-53 -104 -91 -187 -117 -248c-32 -78 -71 -159 -116 -244c-3 -6 -3 -12 -1 -20
c3 -7 7 -11 13 -15c7 -3 13 -3 19 -1c7 3 12 6 15 12c46 86 85 169 118 248c26 60 64 142 116 245c52 104 98 190 137 258z" />
    <glyph glyph-name="ampersand" unicode="&#x26;" horiz-adv-x="540" 
d="M315 341c2 -3 3 -6 5 -10c11 -19 23 -40 36 -64c5 -8 18 -29 38 -65c21 -35 33 -57 39 -67c-22 -22 -40 -38 -54 -49c-22 -16 -51 -21 -86 -15c-21 4 -36 12 -46 22c-8 9 -12 21 -13 37c-1 33 12 78 39 135c12 23 26 48 42 76zM498 127c20 21 38 36 52 46
c6 4 10 10 12 17c2 8 0 13 -4 19s-9 10 -17 11c-7 2 -13 0 -19 -4c-13 -8 -27 -19 -42 -33l-9 -9c-6 10 -14 24 -25 42c-10 19 -20 34 -28 48s-13 24 -17 29c-13 24 -25 45 -36 63c-6 13 -13 25 -19 36c6 8 13 20 23 36c18 28 30 47 34 56c8 16 14 32 18 46c7 24 7 49 1 75
s-17 48 -35 64c-16 16 -38 25 -66 26c-28 2 -50 -4 -69 -18c-20 -14 -32 -37 -34 -67c-1 -22 3 -50 12 -82c12 -36 30 -81 56 -134c-3 -6 -7 -13 -12 -21c-18 -31 -34 -59 -47 -85c-32 -65 -47 -118 -45 -160c2 -29 11 -53 28 -72c18 -18 42 -30 74 -36c49 -8 91 0 125 24
c12 9 25 20 38 32c4 4 9 8 13 12c14 -26 23 -45 26 -56c2 -7 6 -13 12 -17s13 -4 20 -2c8 2 12 7 16 13c4 7 4 13 2 19c-4 17 -17 44 -38 82zM319 446c-17 38 -30 70 -39 97c-14 50 -14 80 2 92c9 6 21 9 36 8c16 0 26 -4 33 -11c10 -10 17 -23 21 -40c4 -16 3 -32 -1 -48
c-3 -11 -8 -23 -14 -36c-4 -8 -14 -25 -32 -52c-2 -4 -4 -7 -6 -10z" />
    <glyph glyph-name="quoteright" unicode="'" horiz-adv-x="196" 
d="M180 729c0 8 -2 14 -8 19c-5 6 -11 7 -19 7c-7 0 -12 -2 -18 -8c-5 -5 -7 -10 -7 -18c0 -26 2 -65 5 -117c2 -21 3 -37 3 -48c2 -25 2 -47 2 -66c0 -7 3 -13 8 -19c6 -5 12 -7 19 -7c8 0 13 3 18 8c6 6 7 11 7 18c0 20 0 43 -2 69c0 11 -1 27 -3 48c-3 51 -5 89 -5 114z
" />
    <glyph glyph-name="parenleft" unicode="(" horiz-adv-x="347" 
d="M335 796c3 6 3 13 0 19c-2 7 -6 12 -13 15c-6 4 -13 4 -20 1c-6 -2 -11 -7 -14 -14c-28 -59 -49 -136 -64 -231c-14 -94 -19 -193 -17 -297c3 -112 15 -213 37 -303s53 -161 91 -213c5 -5 11 -8 18 -10c8 -1 13 2 19 6c6 5 9 10 10 17c2 8 -1 13 -5 19
c-35 47 -63 113 -84 198c-20 86 -31 181 -34 287c-2 100 3 195 17 286c14 92 33 164 59 220z" />
    <glyph glyph-name="parenright" unicode=")" horiz-adv-x="272" 
d="M154 812c-3 6 -8 10 -16 12c-7 2 -13 2 -20 -2c-6 -3 -10 -8 -12 -16c-2 -7 -1 -13 2 -20c24 -41 45 -109 63 -203s28 -192 32 -296c5 -115 0 -215 -15 -300c-14 -84 -36 -141 -68 -172c-5 -5 -8 -11 -8 -19c0 -7 3 -13 8 -19c6 -5 12 -7 19 -7c8 0 13 3 18 8
c40 40 68 110 84 210c14 86 19 186 14 301c-4 109 -15 212 -34 309c-18 98 -41 168 -67 214z" />
    <glyph glyph-name="asterisk" unicode="*" horiz-adv-x="417" 
d="M410 764c3 7 3 14 0 20c-2 7 -7 12 -14 14c-6 3 -13 3 -20 0c-6 -2 -11 -7 -14 -14c-6 -16 -17 -33 -32 -53l-6 -6c-2 6 -4 12 -7 18c-1 4 -3 9 -7 15c-3 7 -5 13 -8 19l-3 9c-2 7 -7 12 -14 14c-6 3 -13 3 -20 0c-6 -2 -11 -7 -14 -14c-2 -6 -2 -13 0 -20l2 -6
c2 -3 3 -7 5 -12c2 -4 4 -9 6 -14c2 -4 4 -8 5 -11c4 -10 8 -20 12 -29c-30 0 -56 -2 -78 -5c-6 -1 -12 -5 -17 -11c-4 -6 -6 -11 -5 -19c2 -7 4 -12 10 -17c6 -4 12 -5 19 -5c13 2 26 3 40 4c-9 -11 -17 -21 -25 -31c-4 -5 -5 -11 -4 -19c2 -7 4 -13 10 -18
c6 -4 12 -5 19 -4c8 2 13 4 17 10c8 11 19 24 31 38c4 4 8 8 12 13c1 0 1 1 1 1c13 -24 25 -43 36 -58c9 -11 17 -20 25 -26c6 -4 13 -6 20 -5c8 2 13 5 17 11c5 6 6 12 4 19c-1 8 -4 13 -10 17c-4 4 -9 9 -15 16c-8 10 -16 24 -26 40c20 2 37 3 52 5c8 1 14 4 18 10
c5 6 6 12 5 19c0 8 -4 13 -10 17c-6 5 -11 7 -19 5c-12 -1 -25 -2 -39 -3c1 0 2 1 2 1c18 23 31 45 39 65z" />
    <glyph glyph-name="plus" unicode="+" horiz-adv-x="359" 
d="M192 438c-7 0 -13 -2 -19 -7c-5 -4 -8 -10 -9 -18c0 -7 2 -12 6 -18c5 -5 11 -8 18 -9c19 -1 41 -1 67 -1v-122v-18c0 -7 3 -13 8 -19c6 -5 11 -7 18 -7c8 0 14 3 19 8c6 6 7 11 7 18v18v125c15 1 28 1 39 1c8 0 14 3 19 8c6 6 7 11 7 18c0 8 -2 14 -8 19
c-5 6 -10 7 -18 7c-12 0 -25 0 -41 -1c0 37 -2 71 -5 102v6c0 8 -3 14 -9 18c-5 5 -11 7 -19 6c-7 0 -13 -3 -18 -9c-4 -5 -6 -11 -6 -19v-6c3 -30 5 -64 6 -101c-24 0 -45 0 -62 1z" />
    <glyph glyph-name="comma" unicode="," horiz-adv-x="212" 
d="M167 76c3 7 3 14 -1 20c-3 7 -7 12 -14 14c-6 3 -13 2 -20 -2c-6 -3 -11 -7 -14 -14c-4 -12 -10 -30 -16 -53c0 0 -2 -5 -5 -15c-2 -10 -4 -15 -5 -18c-13 -46 -25 -77 -37 -95c-4 -6 -5 -12 -4 -20c2 -7 5 -12 11 -16s13 -5 20 -4c8 2 12 5 16 11c15 22 30 59 44 110
c1 3 3 9 5 19c3 10 5 14 5 14c6 22 11 38 15 49z" />
    <glyph glyph-name="hyphen" unicode="-" horiz-adv-x="262" 
d="M19 296c-6 1 -13 -1 -19 -7c-6 -5 -8 -10 -9 -18c0 -7 3 -12 7 -18c5 -5 11 -8 18 -9c2 0 5 0 9 -1c24 -1 41 -2 52 -3c33 -2 62 -3 86 -3c8 0 14 3 19 8c6 6 7 11 7 18c0 8 -2 13 -8 18c-5 6 -10 8 -18 8c-23 0 -51 1 -83 3c-11 1 -28 2 -52 3c-3 1 -6 1 -9 1z" />
    <glyph glyph-name="period" unicode="." horiz-adv-x="210" 
d="M185 58c-4 -4 -7 -10 -7 -18c0 -7 3 -13 8 -19c6 -5 11 -7 18 -7c8 0 14 3 19 8c6 6 7 11 7 18c0 8 -2 14 -8 19c-5 6 -10 7 -18 7c-7 0 -13 -2 -19 -8z" />
    <glyph glyph-name="slash" unicode="/" horiz-adv-x="576" 
d="M-65 -183c-1 -6 0 -13 4 -19s10 -9 17 -11c8 -1 13 0 19 4s10 10 11 16c1 2 3 6 6 14c4 9 9 21 15 36c14 29 32 68 55 116c44 92 98 204 162 335c63 128 118 238 165 331c24 48 43 85 57 111c8 14 13 24 17 32c1 1 2 2 2 3l2 5c6 5 8 11 8 18c0 8 -2 14 -8 19
c-5 6 -10 7 -18 7c-7 0 -13 -2 -19 -7c-4 -4 -14 -22 -30 -53c-14 -26 -33 -63 -57 -111c-47 -93 -102 -204 -165 -332c-65 -132 -119 -244 -163 -336c-50 -106 -77 -165 -80 -178z" />
    <glyph glyph-name="zero" unicode="0" horiz-adv-x="426" 
d="M335 766c-22 14 -44 19 -66 15c-30 -4 -55 -25 -75 -61c-30 -55 -48 -141 -52 -259c-3 -110 6 -210 27 -300c12 -46 25 -84 40 -112c20 -35 44 -54 71 -58c28 -3 53 8 73 32c16 20 30 48 41 84c20 62 31 144 34 244c4 93 0 178 -11 255c-6 39 -13 71 -21 96
c-10 31 -22 51 -38 61c-7 6 -15 7 -23 3zM335 701c3 -2 6 -3 8 -5c2 -3 3 -6 4 -10c8 -22 14 -51 18 -87c11 -74 15 -157 11 -247c-3 -95 -13 -172 -31 -230c-9 -29 -20 -51 -32 -65c-8 -10 -17 -15 -27 -14c-10 2 -20 12 -32 32c-13 24 -24 56 -34 97
c-20 86 -29 182 -26 287c4 110 19 188 46 236c12 22 24 33 37 35c16 2 35 -7 58 -29z" />
    <glyph glyph-name="one" unicode="1" horiz-adv-x="392" 
d="M377 755v4c4 6 5 12 3 18c-1 7 -3 11 -9 15c-5 5 -11 7 -19 6c-7 0 -12 -3 -17 -9c-7 -8 -17 -20 -29 -36c0 0 -2 -3 -6 -8c-20 -25 -35 -43 -46 -55c-5 -4 -8 -10 -8 -18c0 -7 3 -13 8 -19c6 -5 11 -7 18 -7c8 0 14 3 18 7c11 11 23 24 35 40c0 -64 0 -165 -1 -304v-70
c0 -112 -1 -204 -1 -275c-18 0 -35 -2 -50 -5c-7 -1 -13 -5 -17 -11s-5 -12 -4 -20c2 -7 5 -12 11 -16s12 -5 19 -4c19 4 42 5 70 5h38h29c8 0 14 3 19 8c6 6 7 11 7 18c0 8 -2 13 -8 18c-5 6 -10 8 -18 8h-28h-16c0 71 1 162 1 274v70c1 163 1 285 1 366z" />
    <glyph glyph-name="two" unicode="2" horiz-adv-x="388" 
d="M165 712c-3 -6 -4 -12 -2 -20c2 -7 6 -12 12 -16c7 -4 13 -4 20 -2c8 2 12 6 15 12c12 20 32 32 59 34c25 2 43 -3 54 -17c12 -14 19 -36 21 -68c3 -58 -12 -143 -46 -255c-11 -38 -25 -80 -42 -126c-12 -36 -29 -81 -50 -135c-18 -48 -30 -78 -34 -90
c-2 -6 -1 -12 1 -18v-7c2 -7 5 -13 11 -17s12 -5 19 -5c24 4 55 6 93 5c7 0 17 0 30 -1c22 0 38 -1 48 -1c8 0 14 3 19 8c6 6 7 12 7 19c0 8 -2 13 -8 18c-5 6 -10 7 -18 7c-10 0 -25 1 -47 1c-13 1 -23 1 -30 1c-26 0 -48 0 -66 -1c4 9 12 30 24 62c21 55 38 101 50 137
c17 46 31 89 43 128c35 117 51 208 47 272c-2 44 -12 77 -32 100c-22 27 -55 38 -99 34c-45 -4 -78 -23 -99 -59z" />
    <glyph glyph-name="three" unicode="3" horiz-adv-x="430" 
d="M179 731c-5 -5 -8 -11 -9 -19c0 -7 3 -12 7 -18c5 -5 11 -8 18 -9c8 0 14 3 19 7c28 25 52 34 74 27c20 -6 38 -25 53 -56c16 -32 24 -67 24 -106c1 -38 -6 -70 -22 -94c-6 -9 -18 -20 -37 -34c0 0 0 -1 -1 -1c0 0 0 -1 -1 -1c-14 -10 -24 -18 -31 -26
c-5 -4 -8 -10 -8 -18c0 -7 3 -13 8 -18v-1c3 -10 9 -16 19 -19c34 -8 60 -34 78 -77c19 -41 26 -85 22 -133c-3 -46 -16 -78 -38 -96c-10 -8 -21 -13 -35 -13c-16 0 -34 7 -56 19c-10 6 -18 12 -24 16c-3 4 -5 6 -7 8c0 1 -1 2 -1 2c0 8 -2 14 -8 19c-5 6 -10 7 -18 7
c-7 0 -13 -2 -19 -8c-5 -5 -7 -11 -7 -18c0 -17 9 -33 25 -48c8 -7 19 -15 33 -23c60 -34 110 -35 150 -1c34 28 53 72 57 132c5 57 -4 110 -26 158c-20 46 -48 77 -84 95c0 1 1 1 1 1c1 0 1 1 1 1c1 0 1 1 1 1c12 8 20 15 25 20c10 9 19 18 25 28c20 33 30 73 29 120
c0 48 -9 91 -29 131c-21 44 -49 72 -84 82c-40 14 -82 1 -124 -37z" />
    <glyph glyph-name="four" unicode="4" horiz-adv-x="453" 
d="M398 756c0 8 -3 14 -9 18c-6 5 -11 7 -19 6c-7 0 -12 -3 -17 -9c-4 -6 -6 -11 -6 -18c7 -102 10 -241 8 -415c0 -20 0 -44 -1 -70c-6 0 -14 0 -23 -1h-21c-29 0 -50 -1 -62 -1c0 48 1 123 2 226v67c1 79 1 145 1 197c0 8 -2 14 -8 19c-5 6 -10 7 -18 7
c-7 0 -12 -2 -18 -8c-5 -5 -8 -10 -8 -18c0 -52 0 -118 -1 -197v-67c-1 -117 -2 -205 -2 -263c0 -7 3 -13 8 -19c6 -5 11 -7 18 -7c10 0 17 4 22 11c14 0 36 1 67 1h21c8 1 16 1 22 1c-1 -95 -2 -166 -2 -212c0 -6 3 -12 8 -18c6 -5 11 -8 18 -8c8 0 14 3 19 8
c6 6 7 12 7 18c0 46 1 115 2 209c15 -2 29 -5 41 -9c7 -2 14 -1 20 2c7 4 11 8 13 15c3 8 2 14 -2 20c-3 7 -7 10 -15 12c-16 6 -35 10 -57 12c1 28 1 52 1 73c2 175 -1 314 -9 418z" />
    <glyph glyph-name="five" unicode="5" horiz-adv-x="434" 
d="M235 771c-2 1 -4 1 -7 0c-4 4 -10 5 -16 4c-7 0 -13 -3 -18 -9c-4 -5 -6 -11 -6 -19v-5l1 -5c0 -5 1 -9 1 -13c1 -11 2 -22 2 -32c2 -32 4 -62 4 -88c1 -36 1 -67 -1 -91c-1 -13 -2 -24 -4 -32c-1 -7 -2 -12 -4 -14c-3 -4 -4 -10 -4 -17c-2 -5 -3 -10 -1 -16
c2 -7 6 -13 12 -17s13 -4 20 -2c42 12 80 2 114 -30c33 -30 56 -73 68 -128c13 -54 12 -103 -4 -146c-14 -42 -41 -68 -81 -76c-10 -2 -22 1 -38 8c-6 3 -12 6 -16 10c-2 2 -3 4 -3 5c0 8 -2 14 -8 19c-5 6 -10 7 -18 7c-7 0 -12 -2 -18 -8c-5 -5 -8 -10 -8 -18
c0 -14 6 -28 17 -41c9 -8 20 -16 33 -22c26 -11 49 -15 69 -11c59 12 99 49 120 110c19 52 21 111 5 175c-14 66 -42 117 -83 154c-35 34 -75 51 -121 49c2 10 4 23 5 38c2 25 2 57 1 95c0 27 -2 57 -4 90c0 8 -1 15 -2 23c3 0 7 -1 12 -2c16 -2 29 -3 37 -5
c24 -2 45 -4 63 -4c8 0 14 3 19 8c6 6 7 11 7 18c0 8 -2 14 -8 19c-5 6 -10 7 -18 7c-16 0 -35 2 -57 4c-8 1 -20 3 -36 5c-12 2 -20 3 -26 3z" />
    <glyph glyph-name="six" unicode="6" horiz-adv-x="425" 
d="M245 142c10 0 18 4 23 12s10 19 15 34v3c6 16 11 26 15 30c11 11 21 17 30 19c6 2 12 1 18 -3c16 -9 29 -29 37 -59c9 -32 10 -61 2 -87c-6 -24 -19 -39 -39 -43s-37 -1 -51 9c-15 10 -28 28 -39 53c-4 10 -7 20 -11 32zM292 716c4 6 6 12 4 19c-1 8 -4 13 -10 17
s-12 6 -20 4c-7 -1 -12 -4 -16 -10c-22 -29 -40 -86 -56 -171c-15 -84 -22 -169 -22 -254c1 -98 13 -176 37 -232c15 -34 34 -59 56 -75c27 -18 58 -24 92 -17c40 8 67 35 79 80c10 36 9 75 -3 115c-12 44 -33 74 -61 90c-36 21 -73 13 -111 -24c-6 -6 -12 -15 -17 -26
c-2 -6 -6 -14 -10 -24c0 0 0 -1 -1 -3c0 -1 0 -1 -1 -3c-5 36 -8 75 -8 119c0 82 7 164 21 245c14 77 30 127 47 150z" />
    <glyph glyph-name="seven" unicode="7" horiz-adv-x="503" 
d="M194 726c-7 0 -13 -3 -18 -9c-4 -6 -6 -11 -6 -19c1 -7 4 -12 10 -17c6 -4 12 -6 18 -6c32 3 75 4 127 2c6 0 15 -1 27 -1c26 0 45 -1 57 -1c-6 -33 -14 -76 -26 -129c-34 0 -63 -3 -88 -8c-6 -1 -12 -5 -16 -11s-5 -12 -4 -20c2 -7 5 -13 11 -17s13 -4 19 -3
c20 4 42 6 66 7c-11 -49 -22 -97 -34 -145c-46 -187 -78 -295 -98 -325c-4 -6 -5 -12 -4 -20c2 -7 5 -12 11 -16s13 -5 20 -4c8 2 12 5 16 11c24 35 59 149 106 342c12 52 24 104 36 157h25c20 0 34 -1 43 -1c8 0 14 3 19 8c6 6 7 12 7 19c0 8 -2 13 -8 18c-5 6 -10 7 -18 7
s-22 1 -42 1h-14c16 74 26 126 30 156c2 8 0 14 -5 20c-4 6 -9 9 -17 10c-7 2 -14 -1 -20 -5c-14 0 -38 1 -70 1c-12 0 -21 1 -27 1c-54 2 -99 1 -133 -3z" />
    <glyph glyph-name="eight" unicode="8" horiz-adv-x="393" 
d="M232 471c-14 20 -25 39 -33 55c-12 26 -20 52 -22 76c-2 31 2 56 12 75c8 16 20 25 34 29c15 4 30 1 45 -7c16 -8 30 -21 42 -39c0 -40 -9 -77 -26 -111c-10 -22 -28 -48 -52 -78zM361 638c9 10 10 20 4 31c-18 34 -41 58 -70 74c-28 16 -56 21 -84 13
c-29 -7 -52 -25 -68 -54c-16 -28 -21 -63 -18 -105c3 -30 12 -62 27 -94c11 -21 26 -46 46 -74c-31 -38 -54 -72 -70 -102c-17 -34 -25 -74 -25 -122c1 -47 9 -90 27 -130c20 -44 47 -72 79 -84c40 -13 81 -1 122 36c20 18 32 44 38 79c12 61 6 120 -18 176
c-9 23 -21 47 -37 71c-10 17 -24 38 -44 64c0 1 -2 4 -7 10c32 39 54 72 68 99c18 36 28 73 30 112zM229 385c18 -24 32 -44 41 -59c14 -22 25 -43 33 -63c20 -48 25 -97 15 -148c-4 -23 -11 -39 -22 -49c-26 -24 -49 -32 -70 -26c-18 7 -35 26 -49 56
c-14 32 -21 68 -23 108c-1 40 6 73 20 99c13 25 31 52 55 82z" />
    <glyph glyph-name="nine" unicode="9" horiz-adv-x="413" 
d="M377 676c2 -2 3 -5 5 -8c0 -3 1 -6 1 -10c10 -36 10 -79 1 -129c-8 -48 -21 -86 -40 -116c-8 -13 -16 -22 -24 -27c-4 -2 -9 -3 -13 -2c-7 3 -15 11 -24 24c-11 18 -21 44 -31 76c-11 38 -12 76 -4 116c8 36 22 66 41 90c18 20 34 30 48 29c6 0 12 -3 18 -9
c8 -7 16 -18 22 -34zM447 648c0 10 -4 18 -14 23c0 5 -2 9 -6 12c1 5 0 9 -2 13c-20 48 -48 73 -85 75c-32 2 -62 -14 -91 -48c-25 -30 -42 -67 -52 -112c-10 -48 -9 -96 5 -142c23 -76 52 -121 87 -134c20 -7 39 -5 58 7c15 9 29 23 41 43c1 2 2 3 3 5c0 -6 -1 -13 -2 -19
c-6 -78 -17 -144 -33 -196c-19 -60 -45 -102 -78 -126c-6 -4 -9 -9 -11 -17c-1 -7 1 -13 5 -19s10 -9 17 -11c8 -1 14 1 19 5c43 31 75 82 97 153c18 56 30 125 36 207c3 38 5 79 5 125c1 28 1 66 1 112v44z" />
    <glyph glyph-name="colon" unicode=":" horiz-adv-x="219" 
d="M189 478c-4 -4 -7 -10 -7 -18c0 -7 3 -13 8 -19c6 -5 11 -7 18 -7c8 0 13 3 18 8c6 6 8 11 8 18c0 8 -2 14 -8 19c-5 6 -11 7 -19 7c-7 0 -12 -2 -18 -8zM196 71c-4 -4 -7 -10 -7 -18c0 -7 3 -13 8 -19c6 -5 11 -7 18 -7c8 0 14 3 19 8c6 6 7 11 7 18c0 8 -2 14 -8 19
c-5 6 -10 7 -18 7c-7 0 -13 -2 -19 -8z" />
    <glyph glyph-name="semicolon" unicode=";" horiz-adv-x="190" 
d="M108 480c-5 -4 -8 -10 -8 -18c0 -7 3 -13 8 -19c6 -5 12 -7 19 -7c8 0 13 3 18 8c6 6 7 11 7 18c0 8 -2 14 -8 19c-5 6 -10 7 -18 7c-7 0 -12 -2 -18 -8zM147 69c0 7 -4 13 -10 17c-6 5 -11 6 -19 5c-7 0 -13 -4 -18 -10c-4 -6 -5 -11 -5 -19c1 -2 1 -5 1 -9
c6 -42 9 -73 7 -92c-2 -30 -12 -55 -28 -77c-4 -6 -5 -12 -4 -20c2 -7 4 -12 10 -17c6 -4 12 -5 19 -4c8 2 13 4 17 9c22 30 35 65 37 105c2 16 2 33 0 52c-1 11 -3 28 -6 50c0 4 -1 8 -1 10z" />
    <glyph glyph-name="less" unicode="&#x3c;" horiz-adv-x="621" 
d="M138 423c-12 -3 -19 -11 -20 -24c-3 -2 -6 -6 -8 -11c-2 -6 -1 -13 2 -20c4 -6 8 -11 14 -13c30 -10 61 -26 95 -48c22 -13 52 -35 92 -65l1 -1l1 -1l2 -1c44 -32 77 -55 100 -70c40 -24 77 -43 112 -55c7 -2 14 -1 20 2c7 4 11 8 13 15c3 8 2 14 -2 20
c-3 7 -8 11 -15 13c-31 10 -65 27 -101 49c-22 14 -54 37 -96 68c0 1 -1 2 -2 2c0 1 -1 1 -2 1c-40 31 -72 53 -95 67c-20 13 -40 24 -59 33c27 9 55 21 85 35c27 14 65 35 115 64c1 1 2 2 4 2c43 26 75 44 97 55c36 19 69 33 99 43c7 2 12 7 15 13c4 7 4 13 1 20
c-2 8 -6 12 -13 15c-6 4 -12 3 -19 1c-32 -10 -68 -26 -107 -46c-22 -12 -55 -30 -99 -56c0 0 -1 0 -3 -1l-1 -1c-48 -28 -86 -49 -112 -62c-41 -20 -79 -34 -114 -43z" />
    <glyph glyph-name="equal" unicode="=" horiz-adv-x="454" 
d="M94 482c-6 0 -12 -2 -18 -8c-5 -5 -6 -11 -6 -19c1 -7 4 -13 9 -18c6 -4 12 -6 19 -6c60 4 109 6 147 5c56 0 104 -4 144 -12c7 -1 13 0 19 4s10 10 11 17c2 8 0 13 -4 19s-8 10 -16 11c-43 9 -94 13 -153 13c-39 1 -90 -1 -152 -6zM108 344c-6 -1 -12 -5 -17 -11
c-4 -6 -5 -11 -4 -19c2 -7 4 -12 10 -17c6 -4 12 -5 19 -4c35 6 80 8 134 7c12 0 28 0 50 -1c31 0 54 -1 69 -1c8 0 14 3 19 8c6 6 7 11 7 18c0 8 -2 13 -8 18c-5 6 -10 8 -18 8c-14 0 -37 1 -68 1c-22 1 -39 1 -51 1c-57 1 -104 -2 -142 -8z" />
    <glyph glyph-name="greater" unicode="&#x3e;" horiz-adv-x="544" 
d="M61 175c-6 -3 -10 -8 -12 -16c-2 -7 0 -13 4 -20c4 -6 9 -10 16 -12c8 -2 13 0 19 4c2 1 4 2 6 4c3 2 6 3 8 5c3 2 5 3 7 4l3 2c10 6 19 11 25 15c20 12 37 23 52 31c47 29 89 53 125 71c50 26 95 45 133 58c4 1 6 2 8 4c6 1 11 3 15 7c6 6 8 12 8 19c0 8 -2 13 -8 18
c-9 10 -22 19 -39 28c-10 6 -25 14 -44 23c-1 1 -4 2 -8 4l-7 3c-5 3 -10 5 -14 6c-13 7 -23 13 -31 17c-26 17 -66 42 -118 76c-1 1 -3 2 -5 3l-5 3c-67 44 -119 77 -155 99c-6 4 -13 5 -21 3c-7 -2 -12 -5 -16 -12c-4 -6 -4 -12 -2 -19c2 -6 5 -12 11 -16
c36 -22 88 -55 155 -99c2 0 3 -1 5 -3c2 0 3 -1 5 -3c52 -33 92 -58 119 -76c9 -6 21 -12 35 -19c4 -2 9 -4 15 -7c0 0 3 -2 7 -4c5 -2 7 -3 8 -3c13 -6 23 -11 31 -16c-32 -12 -67 -28 -106 -48c-37 -19 -80 -43 -128 -72c-15 -9 -32 -19 -52 -31c-6 -4 -15 -10 -25 -16
l-5 -3c-3 -2 -7 -4 -11 -7c-4 -2 -6 -3 -8 -5z" />
    <glyph glyph-name="question" unicode="?" horiz-adv-x="376" 
d="M128 656c0 -7 2 -13 6 -19c5 -5 11 -8 18 -9c8 0 13 2 19 6c6 5 9 11 9 18c2 17 8 29 19 35c12 6 27 7 45 3c20 -4 36 -13 50 -27c15 -14 23 -29 24 -47c2 -26 -2 -53 -14 -81c-7 -17 -21 -43 -43 -77c0 0 0 -1 -1 -2c0 0 -1 -1 -1 -2c-13 -21 -23 -38 -30 -50
c-10 -19 -17 -37 -23 -55c-13 -44 -12 -89 2 -134c2 -6 7 -11 13 -15c7 -3 14 -3 20 -1c7 3 12 7 15 13c4 7 4 13 1 19c-11 35 -11 69 -1 102c4 15 11 31 19 47c6 11 16 26 28 46c0 1 1 2 1 2c1 1 1 2 1 2c23 37 39 66 47 86c14 36 20 70 18 104c-2 31 -15 58 -39 80
c-21 21 -46 35 -76 41c-30 7 -57 4 -81 -9c-28 -14 -43 -40 -46 -76zM217 69c-4 -4 -7 -10 -7 -18c0 -7 3 -13 8 -19c6 -5 11 -7 18 -7c8 0 14 3 19 8c6 6 7 11 7 18c0 8 -2 14 -8 19c-5 6 -10 7 -18 7c-7 0 -13 -2 -19 -8z" />
    <glyph glyph-name="at" unicode="@" horiz-adv-x="634" 
d="M573 400c-8 -10 -16 -26 -25 -47c-1 -2 -2 -4 -2 -5c-6 -13 -11 -23 -15 -30c-16 -24 -29 -39 -41 -47c0 0 -1 0 -2 -1c0 1 -1 2 -1 3c-2 4 -3 10 -5 16c-2 15 -2 33 -1 54c4 48 15 89 33 123c9 17 18 28 27 34c8 6 15 7 22 5c10 -2 17 -13 21 -31c-4 -26 -7 -50 -11 -74
zM637 473c2 8 0 14 -4 20c-4 12 -9 23 -15 32c-10 16 -24 26 -41 30c-23 7 -45 3 -66 -12c-16 -11 -30 -29 -43 -53c-21 -40 -34 -87 -39 -143c-2 -25 -1 -47 2 -66c4 -24 13 -42 25 -53c18 -15 39 -15 62 0c15 10 31 26 47 48c1 -14 2 -27 4 -38c5 -27 15 -45 29 -55
c10 -6 20 -8 31 -6c9 2 18 6 26 13c26 22 46 62 62 120c18 64 22 128 14 193c-3 25 -11 51 -23 79s-25 51 -42 71c-20 26 -43 44 -69 53c-30 12 -61 10 -93 -5c-66 -30 -115 -94 -149 -190c-30 -88 -39 -176 -25 -264c16 -98 55 -162 119 -194c74 -36 166 -18 276 55
c6 4 10 10 11 17c2 8 0 13 -4 19s-9 10 -17 12c-7 2 -13 0 -19 -4c-50 -33 -95 -54 -135 -62c-34 -6 -63 -3 -89 9c-48 24 -78 76 -91 156c-12 80 -4 159 23 239c29 82 70 136 122 160c36 16 69 5 100 -33c14 -16 25 -36 35 -60c10 -23 16 -44 18 -65c8 -58 4 -115 -12 -172
c-12 -45 -26 -76 -43 -92c-2 4 -3 9 -4 15c-8 44 -2 120 17 226z" />
    <glyph glyph-name="A" unicode="A" 
d="M163 637c10 -58 27 -147 50 -269c12 -59 20 -102 25 -129c-51 -1 -107 -4 -168 -8c8 36 22 94 40 173c18 73 30 128 38 164c6 25 11 48 15 69zM198 748c0 7 -3 13 -9 17c-5 5 -11 6 -18 5c-4 3 -8 5 -12 5c-6 1 -13 -1 -19 -6c-6 -4 -9 -9 -10 -16
c-7 -51 -18 -109 -32 -174c-8 -36 -20 -90 -38 -163c-21 -86 -36 -149 -44 -189c-17 -1 -35 -2 -54 -4c-7 0 -13 -4 -18 -10c-4 -6 -6 -11 -6 -19c1 -7 4 -12 9 -17c6 -4 12 -6 19 -6c14 1 27 2 39 3c-9 -46 -21 -95 -36 -145c-2 -7 -1 -14 2 -21c4 -6 9 -10 16 -12
c8 -2 14 -1 20 3c7 4 10 9 12 15c16 54 29 107 39 158c0 2 1 4 1 6c70 5 132 8 188 10c5 -23 11 -50 18 -82c3 -12 6 -25 10 -40c4 -14 9 -35 15 -63c2 -7 7 -13 13 -17c7 -4 13 -4 19 -2c7 2 12 6 16 12s5 13 3 19c-7 29 -12 50 -16 64c-3 14 -6 27 -9 39
c-6 27 -12 51 -16 71h36c7 0 13 3 18 8c6 6 8 11 8 18c0 8 -2 14 -8 19c-5 6 -11 7 -18 7h-46c-4 28 -13 73 -26 136c-32 165 -54 289 -66 371z" />
    <glyph glyph-name="B" unicode="B" horiz-adv-x="356" 
d="M168 728c46 -2 79 -31 101 -85c11 -27 16 -56 16 -86s-5 -55 -16 -77c-10 -20 -24 -38 -43 -54c-12 -10 -32 -24 -60 -42c0 0 -1 0 -2 -1v8c3 152 4 265 4 337zM160 50c0 66 1 151 3 257c40 0 72 -15 95 -45c22 -28 32 -61 30 -100c-1 -38 -14 -67 -38 -89
c-22 -20 -52 -27 -90 -23zM150 779c-1 0 -2 0 -4 -1c-1 1 -2 1 -4 1c-6 0 -12 -2 -18 -8c-5 -5 -8 -11 -8 -18c0 -80 -1 -201 -4 -362c-2 -160 -4 -281 -4 -362c0 -12 6 -20 17 -24c2 0 3 -1 5 -2c64 -14 115 -3 154 31c36 32 54 74 56 126s-12 96 -42 134
c-22 29 -51 48 -86 58c20 13 36 25 48 35c24 21 43 44 56 70c14 28 21 61 21 99s-6 73 -20 106c-14 37 -35 66 -62 86c-30 24 -65 35 -105 31z" />
    <glyph glyph-name="C" unicode="C" horiz-adv-x="377" 
d="M315 722c7 0 13 3 18 8c6 6 8 12 8 19c0 8 -2 13 -8 18c-5 6 -11 7 -18 7c-41 0 -77 -12 -109 -38c-31 -25 -57 -60 -77 -107c-33 -80 -47 -176 -41 -289c6 -110 29 -200 68 -270c22 -38 48 -64 76 -80c34 -18 70 -19 107 -4c7 3 12 8 15 14c4 7 3 14 0 20
c-2 7 -7 12 -14 14c-6 3 -13 3 -20 0c-22 -9 -43 -8 -63 2c-20 11 -39 31 -56 60c-35 62 -55 145 -61 247c-6 105 7 194 37 266c32 76 78 113 138 113z" />
    <glyph glyph-name="D" unicode="D" horiz-adv-x="345" 
d="M146 78c0 66 -2 160 -4 280v32c-2 155 -4 269 -4 343c42 -9 74 -39 96 -91c24 -56 34 -129 28 -217c-5 -86 -23 -167 -55 -241c-17 -42 -37 -78 -61 -106zM124 788c-8 1 -15 -2 -21 -9c-11 -4 -17 -12 -17 -24c0 -81 2 -203 4 -366v-32c3 -140 4 -249 4 -327
c0 0 -1 0 -2 -1c-6 -4 -11 -9 -13 -16c-2 -6 0 -13 4 -20c4 -6 9 -10 16 -12c8 -2 13 0 19 3c55 34 101 94 137 180c34 80 53 166 59 258c6 96 -5 177 -33 241c-33 78 -85 119 -157 125z" />
    <glyph glyph-name="E" unicode="E" horiz-adv-x="352" 
d="M135 775c-5 4 -11 6 -17 6c-7 0 -13 -2 -19 -8c-5 -5 -7 -10 -7 -18c0 -81 2 -203 4 -366v-32c3 -142 4 -254 4 -334c0 -6 3 -12 8 -18c6 -5 11 -8 18 -8c6 0 12 2 16 6c23 2 49 2 78 2c15 1 38 1 70 1h13c7 0 13 3 18 8c6 6 8 11 8 18c0 8 -2 13 -8 18c-5 6 -11 8 -18 8
h-13c-32 0 -56 0 -71 -1c-24 0 -47 0 -67 -1c0 66 -1 151 -3 255c7 0 17 1 29 1h1h42s14 3 19 8c6 6 7 12 7 19c0 8 -2 13 -8 18c-5 6 -10 7 -18 7c-9 0 -23 0 -43 -1h-1h-29v27c-2 151 -4 262 -4 333c22 2 48 2 76 2c15 1 38 1 70 1h13c7 0 13 3 18 8c6 6 8 11 8 18
c0 8 -2 13 -8 18c-5 6 -11 8 -18 8h-13c-32 0 -56 0 -71 -1c-32 0 -60 0 -84 -2z" />
    <glyph glyph-name="F" unicode="F" horiz-adv-x="352" 
d="M135 775c-5 4 -11 6 -17 6c-7 0 -13 -2 -19 -8c-5 -5 -7 -10 -7 -18c0 -81 2 -203 4 -366v-32c3 -142 4 -254 4 -334c0 -6 3 -12 8 -18c6 -5 11 -8 18 -8c8 0 14 3 19 8c6 6 7 12 7 18c0 75 -1 171 -3 288c7 0 17 1 29 1h1h42s14 3 19 8c6 6 7 12 7 19c0 8 -2 13 -8 18
c-5 6 -10 7 -18 7c-9 0 -23 0 -43 -1h-1h-29v27c-2 151 -4 262 -4 333c22 2 48 2 76 2c15 1 38 1 70 1h13c7 0 13 3 18 8c6 6 8 11 8 18c0 8 -2 13 -8 18c-5 6 -11 8 -18 8h-13c-32 0 -56 0 -71 -1c-32 0 -60 0 -84 -2z" />
    <glyph glyph-name="G" unicode="G" horiz-adv-x="392" 
d="M220 383c-7 0 -13 -3 -18 -9c-4 -5 -6 -11 -6 -19c1 -7 3 -13 8 -18c6 -4 12 -6 19 -6c3 0 7 1 13 1h4c3 1 6 1 8 1c3 0 4 1 5 1c10 1 17 2 23 2c13 1 23 1 30 0h5c1 -1 1 -3 1 -5c2 -9 4 -22 4 -39c2 -28 3 -67 2 -117c0 -26 0 -58 -2 -94c0 -6 0 -23 -1 -49
c-20 -6 -40 -5 -58 4c-20 11 -39 31 -56 60c-35 62 -55 145 -61 247c-6 105 7 194 37 266c32 76 78 113 138 113c7 0 13 3 18 8c6 6 8 12 8 19c0 8 -2 13 -8 18c-5 6 -11 7 -18 7c-41 0 -77 -12 -109 -38c-31 -25 -57 -60 -77 -107c-33 -80 -47 -176 -41 -289
c6 -110 29 -200 68 -270c22 -38 48 -64 76 -80c28 -14 58 -18 89 -10c5 -6 11 -9 19 -9c7 0 13 3 18 8c6 6 8 12 8 18v31v6c1 5 1 10 1 15c0 6 1 11 1 17c1 6 0 11 0 14c2 36 2 68 2 94c1 52 0 92 -2 122c0 19 -2 34 -5 45c-1 8 -3 14 -5 18c-2 8 -7 14 -13 18
c-8 7 -20 11 -36 11c-9 1 -21 1 -36 0c-7 0 -15 -1 -25 -3c-1 0 -3 0 -6 -1h-8h-3c-5 0 -9 -1 -11 -1z" />
    <glyph glyph-name="H" unicode="H" horiz-adv-x="461" 
d="M378 750c0 8 -2 14 -8 19c-5 6 -10 7 -18 7c-7 0 -13 -2 -19 -8c-5 -5 -7 -10 -7 -18c0 -81 2 -203 4 -366c1 -14 1 -25 1 -32v-3c-20 0 -51 -1 -92 -2c-42 0 -73 -1 -95 -3c-6 0 -13 0 -20 -1v6v40c-2 163 -2 285 -2 366c0 8 -2 14 -8 19c-5 6 -10 7 -18 7
c-7 0 -12 -2 -18 -8c-5 -5 -8 -10 -8 -18c0 -81 0 -203 2 -366v-40v-9c-1 0 -2 -1 -4 -1c-7 0 -13 -3 -18 -9c-4 -5 -6 -11 -5 -19c2 -7 4 -13 9 -18c6 -4 12 -6 19 -6c1 -104 1 -192 0 -264c0 -6 3 -12 8 -18c6 -5 11 -8 18 -8c8 0 14 3 19 8c6 6 7 11 7 18
c1 72 1 162 0 268c7 1 14 1 21 1c22 2 53 3 94 3c41 1 72 2 92 2c2 -112 2 -205 2 -279c0 -6 3 -12 8 -18c6 -5 12 -8 19 -8c8 0 13 3 18 8c6 6 7 12 7 18c0 74 0 168 -2 281h4c8 1 14 4 19 9c6 6 7 12 6 19c0 8 -3 13 -9 18c-5 6 -11 7 -18 6h-3v2c0 7 0 18 -1 32
c-2 162 -4 284 -4 365z" />
    <glyph glyph-name="I" unicode="I" horiz-adv-x="261" 
d="M87 791c-6 0 -12 -2 -18 -8c-5 -5 -8 -10 -8 -18c0 -7 3 -13 8 -19c6 -5 12 -7 18 -7h24c0 -76 2 -193 5 -349v-31c3 -135 4 -240 4 -316h-36c-7 0 -13 -2 -19 -8c-5 -5 -7 -11 -7 -19c0 -7 3 -12 8 -18c6 -5 11 -7 18 -7h43h64c7 0 13 3 18 8c6 6 8 11 8 18
c0 8 -2 13 -8 18c-5 6 -11 8 -18 8h-19c0 76 -1 181 -4 317c0 8 0 18 -1 31c-2 156 -4 272 -4 348h31c8 0 14 3 19 8c6 6 7 11 7 18c0 8 -2 14 -8 19c-5 6 -10 7 -18 7h-53h-54z" />
    <glyph glyph-name="J" unicode="J" horiz-adv-x="352" 
d="M160 777c-7 0 -13 -2 -19 -8c-5 -5 -7 -10 -7 -18c0 -7 3 -12 8 -18c6 -5 11 -8 18 -8c8 0 20 0 36 -1h16c10 -108 15 -214 15 -318c2 -165 -7 -271 -28 -319c-8 -16 -19 -28 -34 -36c-14 -7 -34 -10 -61 -10c-7 0 -13 -2 -19 -8c-5 -5 -7 -10 -7 -18c0 -7 3 -13 8 -19
c6 -5 11 -7 18 -7c33 0 60 5 80 14c28 12 49 33 62 63c24 54 35 168 33 340c0 104 -5 210 -15 318c14 2 27 4 38 6c7 2 12 6 16 12s4 13 2 20c-2 8 -5 12 -11 16s-12 5 -20 3c-10 -2 -23 -4 -38 -5c-5 4 -11 6 -18 5c-4 0 -9 -2 -13 -5h-22c-17 1 -30 1 -38 1z" />
    <glyph glyph-name="K" unicode="K" horiz-adv-x="441" 
d="M234 371c0 1 -1 2 -1 2c6 11 13 24 21 38c20 37 45 80 75 130c30 48 55 89 76 123c11 18 20 31 26 40c4 5 6 9 7 11c3 2 5 5 7 9c4 6 4 13 1 19c-2 7 -6 12 -13 15c-6 4 -12 4 -19 2c-6 -2 -11 -6 -17 -14c-2 -2 -5 -6 -9 -12c-6 -10 -15 -24 -27 -42
c-22 -34 -47 -76 -76 -125c-29 -48 -54 -91 -75 -128c-2 130 -4 233 -4 309c0 8 -2 14 -8 19c-5 6 -10 7 -18 7c-7 0 -12 -2 -18 -8c-5 -5 -8 -10 -8 -18c0 -81 2 -203 5 -366v-32c3 -142 4 -253 4 -333c0 -7 3 -13 8 -19c6 -5 11 -7 18 -7c8 0 13 3 18 8c6 6 8 11 8 18
c0 76 -1 176 -3 298c15 -19 30 -41 45 -66c14 -22 32 -55 56 -98c1 -1 2 -3 3 -6c1 -2 2 -3 3 -5c34 -60 60 -106 80 -136c4 -6 10 -9 17 -11c8 -1 13 0 19 4s10 10 11 17c2 8 0 13 -4 19c-19 29 -45 73 -78 132c-1 2 -2 4 -3 5c0 3 -1 5 -3 6c-24 44 -43 77 -57 100
c-22 37 -45 69 -67 95z" />
    <glyph glyph-name="L" unicode="L" horiz-adv-x="351" 
d="M144 755c0 8 -2 14 -8 19c-5 6 -11 7 -19 7c-7 0 -12 -2 -18 -8c-5 -5 -7 -10 -7 -18c0 -81 2 -203 4 -366v-32c3 -140 4 -250 4 -329c-2 -5 -3 -11 -3 -17c2 -7 5 -13 11 -17s12 -5 19 -5c24 4 55 6 93 5c7 0 17 0 30 -1c23 0 40 -1 51 -1c8 0 14 3 19 8c6 6 7 12 7 19
c0 8 -2 13 -8 18c-5 6 -10 7 -18 7c-10 0 -27 1 -50 1c-13 1 -23 1 -30 1c-27 1 -50 1 -69 -1c0 74 -1 179 -4 313v32c-2 162 -4 284 -4 365z" />
    <glyph glyph-name="M" unicode="M" horiz-adv-x="537" 
d="M192 761c-2 4 -4 8 -8 11c-5 6 -12 9 -20 9c-7 0 -13 -2 -19 -8c-5 -5 -7 -10 -7 -18c0 -81 2 -203 4 -366c1 -14 1 -25 1 -32c2 -142 3 -254 3 -334c0 -6 3 -12 8 -18c6 -5 12 -8 19 -8c8 0 13 3 18 8c6 6 7 12 7 18c0 81 -1 193 -3 335c0 7 0 18 -1 32
c-2 107 -3 186 -3 238c4 -9 14 -31 30 -65c33 -71 57 -127 71 -169c-2 -13 2 -23 14 -29c7 -3 14 -3 20 -1c7 3 12 7 15 13c29 61 74 154 136 278c0 -57 2 -147 4 -271v-32c3 -142 4 -254 4 -334c0 -6 3 -12 8 -18c6 -5 11 -8 18 -8c8 0 13 3 18 8c6 6 8 12 8 18
c0 81 -1 193 -4 335c0 7 0 18 -1 32c-2 162 -4 284 -4 365c0 8 -2 14 -8 19c-5 6 -10 7 -18 7c-2 0 -5 0 -9 -2c-10 0 -17 -4 -22 -13c-16 -32 -66 -132 -148 -301c-12 31 -31 72 -55 124c-25 55 -42 92 -50 111c-10 24 -18 46 -26 66z" />
    <glyph glyph-name="N" unicode="N" horiz-adv-x="451" 
d="M152 745c-2 4 -4 8 -8 10c0 8 -2 14 -8 19c-5 6 -11 7 -19 7c-7 0 -12 -2 -18 -8c-5 -5 -7 -10 -7 -18c0 -81 2 -203 4 -366v-32c3 -142 4 -254 4 -334c0 -6 3 -12 8 -18c6 -5 11 -8 18 -8c8 0 14 3 19 8c6 6 7 12 7 18c0 81 -1 193 -4 335v32c-2 109 -3 189 -4 241
c22 -54 52 -134 92 -242c2 -4 4 -9 5 -14c3 -6 15 -40 37 -100s36 -95 41 -109c26 -70 44 -116 53 -140c1 -2 2 -3 3 -5v-7v-6c0 -6 3 -12 8 -18c6 -5 11 -8 18 -8c8 0 14 3 19 8c6 6 7 12 7 18c0 81 -1 193 -4 335v32c-2 162 -4 284 -4 365c0 8 -2 14 -8 19
c-5 6 -11 7 -19 7c-7 0 -12 -2 -18 -8c-5 -5 -7 -10 -7 -18c0 -81 2 -203 4 -366v-32c2 -72 3 -130 3 -176c-2 6 -4 12 -7 18c-4 14 -18 51 -40 110c-22 60 -34 93 -37 99c-1 5 -3 10 -5 14c-68 184 -112 297 -133 338z" />
    <glyph glyph-name="O" unicode="O" 
d="M314 773c-6 1 -13 1 -22 1c-30 0 -58 -13 -82 -39c-19 -22 -36 -52 -50 -91c-24 -70 -36 -157 -36 -259c1 -102 14 -189 38 -262c14 -40 30 -71 49 -95c24 -28 50 -43 80 -47c30 -3 56 8 78 33c18 20 34 49 46 86c23 67 36 151 39 253c3 100 -4 188 -22 264
c-9 41 -21 74 -35 100c-16 32 -36 51 -60 59c-8 4 -15 3 -23 -3zM322 706c7 -12 17 -16 29 -13c12 -22 22 -51 30 -87c17 -72 24 -156 21 -252c-2 -96 -14 -175 -36 -237c-10 -30 -22 -53 -36 -68c-10 -12 -22 -17 -34 -17c-33 4 -61 40 -85 108c-23 68 -34 149 -35 245
c0 96 12 177 34 242c22 64 50 95 82 95c11 0 18 0 20 -2c3 -1 6 -6 10 -14z" />
    <glyph glyph-name="P" unicode="P" horiz-adv-x="368" 
d="M148 379v11c-2 160 -4 278 -4 356c40 -6 73 -26 100 -62c28 -36 44 -79 48 -129s-6 -91 -30 -124c-24 -34 -60 -52 -109 -52h-5zM136 799c-6 1 -11 -1 -17 -5c-5 -4 -8 -8 -10 -14c-11 -4 -17 -13 -17 -25c0 -81 2 -203 4 -366v-32c3 -142 4 -254 4 -334
c0 -6 3 -12 8 -18c6 -5 11 -8 18 -8c8 0 14 3 19 8c6 6 7 12 7 18c0 78 -1 179 -3 305c2 0 3 -1 4 -1c66 0 117 25 152 74c30 43 43 95 38 157c-4 61 -23 114 -58 158c-39 51 -89 79 -149 83z" />
    <glyph glyph-name="Q" unicode="Q" horiz-adv-x="556" 
d="M406 75c4 8 7 17 9 25c23 67 36 151 39 253c3 100 -4 188 -22 264c-9 41 -21 74 -35 100c-16 32 -36 51 -60 59c-8 4 -15 3 -23 -3c-6 1 -13 1 -22 1c-30 0 -58 -13 -82 -39c-19 -22 -36 -52 -50 -91c-24 -70 -36 -157 -36 -259c1 -102 14 -189 38 -262
c14 -40 30 -71 49 -95c24 -28 50 -43 80 -47c30 -3 56 8 78 33c3 3 5 6 7 8c9 -13 18 -25 27 -36c34 -38 74 -57 119 -57c8 0 14 3 19 8c6 6 7 11 7 18c0 8 -2 14 -8 19c-5 6 -10 7 -18 7c-30 0 -56 13 -80 39c-12 14 -24 33 -36 55zM322 706c7 -12 17 -16 29 -13
c12 -22 22 -51 30 -87c17 -72 24 -156 21 -252c-2 -80 -11 -150 -27 -208l-24 61c-2 7 -7 12 -14 14c-6 3 -13 3 -20 0c-6 -2 -11 -7 -14 -14c-2 -6 -2 -13 0 -20c2 -2 7 -16 17 -42c10 -25 16 -40 18 -47c4 -8 7 -15 10 -23c-5 -10 -11 -19 -18 -26
c-10 -12 -22 -17 -34 -17c-33 4 -61 40 -85 108c-23 68 -34 149 -35 245c0 96 12 177 34 242c22 64 50 95 82 95c11 0 18 0 20 -2c3 -1 6 -6 10 -14z" />
    <glyph glyph-name="R" unicode="R" horiz-adv-x="399" 
d="M148 378v12c-2 153 -4 265 -4 337h2c26 2 48 -4 68 -19c20 -14 35 -36 47 -65c11 -27 16 -56 16 -86s-5 -55 -16 -77c-10 -20 -24 -38 -43 -54c-12 -10 -32 -24 -60 -42c0 0 -1 0 -3 -1c-1 0 -1 -1 -3 -3l-2 -1s-1 0 -2 -1zM142 779c-3 0 -6 -1 -10 -3c-4 4 -8 5 -14 5
c-7 0 -13 -2 -19 -8c-5 -5 -7 -10 -7 -18c0 -81 2 -203 4 -366v-32c3 -142 4 -254 4 -334c0 -6 3 -12 8 -18c6 -5 11 -8 18 -8c8 0 14 3 19 8c6 6 7 12 7 18c0 71 0 158 -2 261c54 -96 113 -194 178 -292c4 -6 10 -9 17 -11c8 -1 13 0 19 4s10 10 11 17c2 8 0 13 -4 19
c-70 106 -134 212 -191 316c3 2 5 3 5 3c30 19 53 35 67 47c24 21 43 44 56 70c14 28 21 61 21 99s-6 73 -20 106c-14 37 -35 66 -62 86c-30 24 -65 35 -105 31z" />
    <glyph glyph-name="S" unicode="S" horiz-adv-x="432" 
d="M396 637c3 -6 8 -11 14 -14c7 -2 14 -2 20 0c7 3 12 7 15 13c4 7 3 14 0 20c-15 40 -39 69 -72 87c-14 8 -34 13 -58 13h-21h-10c-17 0 -33 -5 -47 -15c-9 -6 -19 -16 -30 -30c-24 -30 -35 -64 -35 -104c1 -30 10 -65 27 -105c11 -26 28 -58 52 -98c3 -4 6 -10 9 -16
c2 -1 3 -4 5 -8c2 -2 4 -5 5 -7c7 -12 13 -22 17 -30c12 -20 21 -37 26 -51c26 -62 41 -117 45 -166c3 -28 -2 -52 -14 -70c-10 -14 -23 -22 -41 -26c-17 -2 -33 1 -49 10c-18 12 -31 29 -39 52c-2 7 -6 12 -13 15c-6 4 -12 3 -20 1c-7 -2 -11 -6 -15 -13
c-3 -6 -3 -13 -1 -20c12 -34 32 -61 60 -79c28 -16 56 -22 86 -17c32 6 57 22 75 48c20 28 27 63 23 104c-4 54 -21 115 -49 181c-6 16 -15 35 -29 57c-4 8 -10 18 -18 30c-1 2 -2 5 -4 8l-5 8c-4 6 -7 11 -9 15c-22 38 -39 69 -50 93c-28 67 -28 119 2 156
c14 17 26 25 36 25h11h18c16 0 28 -3 35 -7c22 -12 38 -32 48 -60z" />
    <glyph glyph-name="T" unicode="T" horiz-adv-x="406" 
d="M-12 778c-7 0 -13 -2 -19 -8c-5 -5 -7 -11 -7 -19c0 -7 3 -12 8 -18c6 -5 11 -7 18 -7c32 0 75 0 129 -2c0 -74 2 -188 4 -344v-31c3 -142 4 -254 4 -334c0 -7 3 -13 8 -19c6 -5 11 -7 18 -7c8 0 14 3 19 8c6 6 7 11 7 18c0 80 -1 192 -4 334v32c-2 155 -4 269 -4 343
c32 0 58 -1 79 -1c16 0 30 -1 43 -1c8 0 14 3 19 8c6 6 7 12 7 19c0 8 -2 13 -8 18c-5 6 -10 7 -18 7c-13 0 -27 1 -43 1c-24 0 -60 1 -108 1c-68 2 -118 2 -152 2z" />
    <glyph glyph-name="U" unicode="U" horiz-adv-x="425" 
d="M177 734c0 8 -3 14 -9 18c-5 5 -10 7 -18 6c-7 0 -13 -2 -18 -8c-4 -5 -7 -11 -7 -19c1 -14 0 -37 -2 -69c0 -12 -1 -27 -2 -47c0 -2 -1 -10 -3 -25c-1 -14 -1 -24 -1 -28c-4 -66 -7 -121 -8 -164c-2 -116 6 -206 24 -268c13 -41 30 -72 52 -94c27 -25 60 -36 98 -33
c29 3 53 19 71 47c15 22 27 53 36 92c14 62 22 146 22 253c0 60 -2 132 -6 218c0 6 0 20 -2 42c-1 22 -2 34 -2 36c-1 25 -2 42 -2 51c0 8 -2 14 -8 19c-5 6 -10 7 -18 7c-7 0 -12 -2 -18 -8c-5 -5 -8 -10 -8 -18c0 -10 1 -28 2 -53c0 -3 1 -16 2 -38c2 -22 2 -35 2 -41
c4 -84 6 -156 6 -215c0 -103 -7 -183 -21 -241c-14 -63 -34 -96 -60 -99c-23 -2 -42 5 -58 19c-15 15 -28 39 -38 71c-16 57 -24 141 -22 252c1 42 4 96 8 162c0 4 1 13 2 28c2 16 1 23 1 25c2 20 3 35 3 47c2 34 3 59 2 75z" />
    <glyph glyph-name="V" unicode="V" horiz-adv-x="422" 
d="M92 761c-1 8 -5 13 -11 17s-12 4 -20 2c-7 -2 -12 -5 -16 -11s-5 -12 -3 -20c17 -70 37 -167 61 -292c0 0 2 -9 5 -25c4 -16 6 -31 9 -49c4 -17 6 -28 7 -36c8 -42 16 -80 22 -112c17 -82 33 -156 49 -222c0 -1 0 -2 -1 -4c0 -7 3 -13 7 -19c5 -5 11 -8 17 -9
c7 0 13 1 18 5c6 4 8 8 9 14c3 6 4 11 2 17c7 56 27 179 60 371c37 207 59 325 67 353c2 8 1 14 -3 20s-8 10 -16 12c-7 2 -13 2 -19 -2c-6 -3 -10 -8 -12 -16c-8 -30 -31 -149 -68 -358c-16 -93 -30 -173 -41 -240c-5 28 -11 58 -18 89c-6 32 -14 69 -22 111
c-1 8 -3 20 -7 37c-3 18 -6 33 -10 49c-3 16 -4 24 -4 24c-24 126 -45 224 -62 294z" />
    <glyph glyph-name="W" unicode="W" horiz-adv-x="656" 
d="M373 708c-1 8 -5 13 -11 17s-12 6 -20 4c-4 0 -7 -2 -10 -5c-6 1 -12 0 -18 -4c-5 -3 -8 -8 -10 -15c-8 -28 -27 -139 -59 -333c-12 -74 -23 -140 -32 -198c-4 22 -8 46 -13 70c-6 32 -13 69 -21 111c0 5 -2 12 -4 21c-2 10 -3 18 -5 28s-4 20 -6 29c-2 10 -2 17 -4 23
l-1 9c-23 127 -43 226 -59 297c-1 7 -5 12 -11 16s-12 5 -20 3c-7 -2 -12 -5 -16 -11s-5 -12 -3 -19c16 -71 35 -170 58 -296l2 -9c1 -6 2 -14 4 -24c2 -9 3 -18 5 -28s4 -18 6 -28c2 -9 3 -15 3 -20c8 -42 15 -80 21 -112c15 -79 30 -150 44 -214c0 -3 0 -6 -1 -9
c0 -6 3 -12 7 -18c5 -5 11 -8 18 -9h6c2 1 4 1 5 1c7 2 12 6 16 12c4 7 5 13 3 19c0 3 -1 6 -1 8c6 54 22 167 50 339c16 98 30 180 42 247c8 -46 18 -111 30 -194c0 -3 1 -8 2 -16c2 -7 3 -14 4 -22c2 -7 1 -10 1 -11c3 -20 5 -36 7 -50c6 -38 12 -71 16 -101
c12 -72 23 -137 34 -195c0 -4 1 -7 2 -11v-2c2 -6 5 -12 11 -16s13 -5 20 -4c8 2 12 5 16 11s6 13 4 19c0 2 0 4 -1 6c5 50 25 175 60 377c37 208 59 326 67 354c2 7 1 14 -3 20c-4 7 -8 10 -15 12c-6 2 -13 1 -20 -3c-6 -4 -10 -8 -12 -15c-8 -30 -31 -150 -68 -359
c-14 -86 -27 -161 -38 -225l-6 39c-4 30 -9 63 -15 100c-2 14 -4 31 -8 50c0 1 0 5 -2 12c-1 8 -1 14 -3 22c-1 8 -1 13 -2 15c-18 124 -33 219 -46 285z" />
    <glyph glyph-name="X" unicode="X" horiz-adv-x="413" 
d="M0 21c-2 -6 -1 -13 2 -20c4 -6 9 -10 16 -12c8 -2 14 -1 20 2c7 4 10 9 12 16c9 32 52 141 128 327c42 -117 80 -226 113 -327c3 -6 8 -11 14 -15c7 -3 13 -3 19 -1c7 3 12 7 15 13c4 7 4 13 2 19c-38 113 -82 240 -133 382c9 22 20 49 34 81c14 33 25 62 35 86
c10 25 16 38 16 40c32 75 48 116 50 123c2 8 2 14 -2 20c-3 6 -8 11 -16 13c-7 3 -13 1 -20 -3c-6 -4 -10 -8 -12 -15c-2 -6 -18 -45 -48 -119c0 -1 -4 -10 -11 -26c-6 -16 -14 -35 -25 -61c-10 -25 -19 -46 -27 -66c-18 51 -40 111 -66 181c-2 6 -5 14 -9 26
c-10 30 -19 52 -25 67c-2 7 -7 12 -14 15c-6 4 -12 3 -19 0c-6 -2 -11 -6 -15 -13c-3 -6 -3 -12 -1 -20c6 -15 15 -37 25 -67c5 -12 8 -21 9 -26c35 -94 63 -172 85 -234c-2 -5 -3 -10 -5 -14c-1 -3 -2 -6 -4 -10c-85 -206 -133 -327 -143 -362z" />
    <glyph glyph-name="Y" unicode="Y" horiz-adv-x="394" 
d="M336 730c2 7 2 14 -1 20c-2 7 -7 12 -14 14c-6 3 -13 3 -20 -1c-6 -3 -11 -7 -14 -14c-10 -28 -21 -70 -31 -125c-14 -78 -26 -146 -34 -204c-62 148 -112 260 -150 338c-2 6 -7 11 -15 13c-7 3 -13 2 -20 -2c-6 -3 -10 -7 -13 -14c-2 -6 -1 -13 2 -20
c20 -40 50 -108 92 -205c42 -96 70 -161 82 -196c2 -4 5 -8 9 -11c-4 -41 -8 -82 -12 -122c0 -14 -1 -28 -2 -43c0 -16 -1 -42 -2 -76c0 -32 -1 -56 -1 -73c0 -6 3 -12 8 -18c6 -5 11 -8 18 -8c8 0 13 3 18 8c6 6 8 11 8 17c0 17 1 42 1 74c1 33 2 58 2 74c0 14 1 28 2 41
c9 112 28 252 58 418c10 52 19 90 29 115z" />
    <glyph glyph-name="Z" unicode="Z" horiz-adv-x="447" 
d="M396 745c3 7 3 14 0 20c-2 7 -7 12 -14 14c-8 3 -15 2 -22 -2c-30 -2 -72 -4 -127 -5c-6 0 -14 1 -25 1c-61 0 -106 -1 -134 -4c-7 0 -13 -3 -18 -9c-4 -5 -6 -11 -6 -19c1 -7 4 -13 9 -18c6 -4 12 -6 19 -6c27 3 70 4 130 4c11 0 19 -1 25 -1c42 1 75 2 99 3
c-15 -38 -39 -93 -71 -167c-1 -2 -3 -6 -5 -12c-29 -67 -51 -118 -65 -152s-25 -59 -32 -77c-4 -9 -7 -18 -11 -26c-35 -86 -67 -167 -95 -241c-7 -5 -11 -12 -11 -21c0 -7 3 -13 8 -19c6 -5 11 -7 18 -7c14 0 49 -1 105 -5c7 0 13 0 17 -1c46 -2 79 -3 100 -3
c16 0 28 1 36 1c6 1 11 2 15 3s7 2 9 4c6 4 10 9 12 15c3 7 3 14 -1 20c-3 7 -8 11 -15 13c-8 3 -15 2 -23 -3h-2c-6 0 -16 -1 -30 -1c-20 0 -53 1 -98 3c-4 1 -10 1 -17 1c-32 2 -54 4 -66 4c26 66 54 139 86 217c4 9 7 18 11 26c8 18 18 43 32 77s36 85 64 151
c3 6 5 11 6 13c40 90 69 160 87 209z" />
    <glyph glyph-name="bracketleft" unicode="[" horiz-adv-x="404" 
d="M400 737c8 0 14 2 20 6c6 5 9 11 9 18c1 8 -2 14 -7 19c-4 6 -9 9 -17 9c-33 4 -79 5 -138 4h-13h-40c-7 0 -13 -2 -19 -8c-5 -5 -7 -10 -7 -18c0 -10 5 -17 13 -22c0 -90 3 -201 7 -334c1 -27 2 -68 4 -123c8 -211 12 -370 12 -476c0 -6 3 -12 8 -18c6 -5 11 -8 18 -8h3
c4 0 7 -1 10 -1h56h57c7 0 13 3 18 8c6 6 8 11 8 18c0 8 -2 13 -8 18c-5 6 -11 8 -18 8h-57h-43c0 98 -4 249 -12 453c-2 55 -3 96 -4 123c-4 131 -7 240 -7 328h1h13c58 1 102 0 133 -4z" />
    <glyph glyph-name="backslash" unicode="\" horiz-adv-x="548" 
d="M20 819c-3 7 -8 11 -16 13c-7 2 -13 1 -20 -3c-6 -3 -10 -8 -12 -16c-2 -7 0 -13 3 -19c36 -63 73 -136 111 -218c27 -58 60 -133 98 -227c5 -10 11 -23 17 -39c0 -1 3 -7 7 -19c5 -11 8 -17 9 -21c34 -80 60 -142 80 -188c4 -7 14 -29 30 -67c17 -37 27 -58 29 -65
c12 -26 23 -50 31 -72c11 -26 20 -49 28 -71c2 -6 7 -11 13 -15c7 -3 14 -2 20 0c7 3 12 7 15 13c4 7 3 14 1 20c-8 22 -17 47 -29 73c-8 22 -19 46 -31 73c-3 8 -13 30 -30 66c-16 37 -26 59 -29 66c-20 45 -46 107 -80 187c-1 4 -4 11 -9 22c-4 12 -7 17 -7 18
c-6 16 -12 29 -17 39c-38 94 -71 171 -99 229c-38 83 -75 157 -113 221z" />
    <glyph glyph-name="bracketright" unicode="]" horiz-adv-x="356" 
d="M291 778c0 12 -5 20 -16 24c-4 2 -9 3 -14 3c-17 0 -43 2 -78 4c-8 1 -15 1 -20 1c-41 3 -75 3 -101 1c-7 0 -13 -3 -18 -9c-4 -5 -6 -11 -6 -19c1 -7 4 -13 9 -18c6 -4 12 -6 19 -6c24 2 56 2 94 -1c5 0 12 0 20 -1c27 -2 47 -3 59 -3c0 -62 0 -132 -1 -210
c0 -54 -1 -136 -3 -245c-2 -208 -3 -363 -3 -465c-39 1 -84 3 -136 6c-7 1 -13 -1 -19 -6c-5 -4 -8 -10 -9 -18c0 -7 3 -13 7 -19c5 -5 11 -8 18 -9c72 -4 134 -7 186 -7c8 0 14 3 19 8c6 6 7 11 7 18c0 6 -2 12 -6 17c-4 6 -9 8 -15 9c0 102 1 258 3 466c2 109 3 190 3 244
c1 87 1 165 1 235z" />
    <glyph glyph-name="asciicircum" unicode="^" horiz-adv-x="576" 
d="M335 780c-4 6 -10 9 -18 9c-7 1 -13 -1 -19 -6c-2 -2 -4 -4 -6 -8c-2 0 -4 -1 -6 -3c-4 -3 -8 -7 -14 -13c-8 -8 -18 -21 -30 -37c-18 -24 -42 -61 -74 -110c-2 -4 -5 -8 -8 -13c0 -1 -6 -9 -16 -24c-10 -14 -19 -29 -29 -45c-10 -15 -15 -25 -19 -31
c-20 -31 -34 -51 -42 -60c-4 -5 -6 -11 -6 -19c1 -7 4 -12 10 -17c6 -4 12 -6 19 -6c8 1 13 3 17 9c9 10 24 32 46 65c4 6 10 16 20 31c10 16 19 31 28 45c10 15 15 23 16 24c3 5 6 9 8 13c31 48 55 83 72 107c11 15 20 26 26 32l2 2c14 -18 28 -40 42 -64
c13 -20 30 -52 52 -94l1 -2c32 -60 57 -104 76 -134c4 -6 10 -9 17 -11c8 -1 13 0 19 4s10 10 11 17c2 8 1 13 -3 19c-18 28 -43 71 -74 129c0 1 -1 2 -1 2c-22 44 -40 76 -53 96c-21 36 -42 67 -64 93z" />
    <glyph glyph-name="underscore" unicode="_" horiz-adv-x="682" 
d="M6 -81c-7 0 -13 -2 -19 -8c-5 -5 -7 -10 -7 -18c0 -7 3 -13 8 -19c6 -5 11 -7 18 -7c48 0 103 -1 165 -3c27 -1 67 -3 120 -5c128 -5 223 -8 286 -8c8 0 14 3 19 8c6 6 7 11 7 18c0 8 -2 14 -8 19c-5 6 -10 7 -18 7c-62 0 -157 3 -284 8c-53 2 -93 4 -121 5
c-62 2 -118 3 -166 3z" />
    <glyph glyph-name="quoteleft" unicode="`" horiz-adv-x="377" 
d="M416 736c-4 6 -9 10 -17 12c-7 2 -14 0 -20 -4s-9 -9 -11 -17c-2 -7 0 -13 4 -19c8 -12 19 -27 32 -46l3 -4c2 -2 4 -4 6 -7c2 -2 3 -4 3 -6c12 -16 22 -29 28 -40c4 -6 10 -9 17 -11c8 -1 13 0 19 4s10 10 11 17c2 8 0 13 -4 19c-7 12 -16 25 -28 41c-1 2 -3 4 -5 6
c-2 3 -2 5 -4 7l-3 4c-13 19 -23 34 -31 44z" />
    <glyph glyph-name="a" unicode="a" horiz-adv-x="380" 
d="M289 145c-10 -29 -24 -53 -42 -73c-11 -13 -22 -21 -33 -25c-10 -3 -21 -1 -32 5c-19 12 -35 44 -49 94c-13 52 -18 107 -16 165c4 60 15 105 34 135c18 28 43 37 73 26c27 -9 46 -23 57 -42c1 -37 3 -93 5 -168c1 -21 1 -37 1 -48c1 -26 2 -49 2 -69zM333 409
c5 7 6 14 3 22c0 4 -2 7 -4 11v83c0 8 -2 14 -8 19c-5 6 -11 7 -19 7c-7 0 -12 -2 -18 -8c-5 -5 -7 -10 -7 -18v-22c-12 8 -25 14 -39 18c-28 10 -53 10 -76 2c-22 -8 -42 -24 -58 -49c-24 -38 -38 -91 -42 -161c-2 -62 4 -122 18 -180c17 -64 41 -105 71 -125
c25 -15 50 -19 75 -11c20 7 39 20 57 40c2 2 3 4 5 6v-43c0 -7 3 -13 8 -19c6 -5 12 -7 19 -7c8 0 13 3 18 8c6 6 7 11 7 18c0 41 0 87 -2 137c2 3 3 6 3 8c2 8 1 15 -3 21c0 16 -1 32 -2 50c0 11 0 27 -2 47c-2 64 -3 113 -4 146z" />
    <glyph glyph-name="b" unicode="b" horiz-adv-x="407" 
d="M152 25c14 -10 30 -19 47 -26c28 -10 54 -12 77 -4c24 8 43 23 59 46c26 38 41 91 46 160c6 64 2 124 -12 181c-14 65 -37 107 -68 127c-24 16 -48 21 -74 13c-20 -6 -39 -18 -58 -38c-7 -8 -14 -17 -22 -28c-2 124 -3 224 -3 299c0 8 -2 14 -8 19c-5 6 -11 7 -19 7
c-7 0 -12 -2 -18 -8c-5 -5 -7 -10 -7 -18c0 -81 2 -203 4 -366v-32c3 -142 4 -254 4 -334c0 -6 3 -12 8 -18c6 -5 11 -8 18 -8c8 0 14 3 19 8c6 6 7 12 7 18v2zM157 105c0 4 -2 8 -5 10c0 58 -1 136 -3 235c4 4 7 8 9 13c10 33 26 61 49 85c12 13 24 21 34 24
c11 3 21 1 31 -6c20 -12 35 -44 46 -95c12 -52 16 -108 11 -166c-4 -60 -17 -104 -37 -134c-18 -27 -43 -35 -74 -24c-16 6 -29 15 -40 25c-10 11 -17 21 -21 33z" />
    <glyph glyph-name="c" unicode="c" horiz-adv-x="377" 
d="M315 471c7 0 13 3 18 8c6 6 8 11 8 18c0 8 -2 14 -8 19c-5 6 -11 7 -18 7c-81 0 -142 -32 -184 -96c-35 -54 -49 -120 -43 -198c6 -75 30 -136 71 -184c49 -55 108 -74 177 -56c8 2 13 6 17 12s4 13 2 20c-2 8 -6 12 -12 16s-12 4 -20 2c-48 -12 -90 1 -125 40
c-34 39 -53 90 -58 154c-5 66 7 121 35 165c32 49 78 73 140 73z" />
    <glyph glyph-name="d" unicode="d" horiz-adv-x="391" 
d="M287 416c2 -6 6 -11 12 -15v-19v-32c2 -73 3 -132 3 -178c-4 -4 -6 -8 -8 -14c-9 -32 -25 -61 -47 -86c-11 -13 -22 -21 -33 -25c-10 -3 -21 -1 -32 5c-19 12 -35 44 -49 94c-13 52 -18 107 -16 165c4 60 15 105 34 135c18 28 43 37 73 26c16 -5 30 -13 41 -23
c12 -10 18 -21 22 -33zM347 748c0 8 -2 14 -8 19c-5 6 -11 7 -19 7c-7 0 -12 -2 -18 -8c-5 -5 -7 -10 -7 -18c0 -70 1 -156 2 -258c-16 14 -34 24 -56 31c-28 10 -53 10 -76 2c-22 -8 -42 -24 -58 -49c-24 -38 -38 -91 -42 -161c-2 -62 4 -122 18 -180
c17 -64 41 -105 71 -125c25 -15 50 -19 75 -11c20 7 39 20 57 40c6 7 12 14 17 22v-42c0 -7 3 -13 8 -19c6 -5 11 -7 18 -7c8 0 14 3 19 8c6 6 7 11 7 18c0 80 -1 192 -4 334v32c-2 163 -4 285 -4 365z" />
    <glyph glyph-name="e" unicode="e" horiz-adv-x="408" 
d="M308 354c-49 -7 -112 -11 -188 -11c6 45 16 79 31 103c18 28 43 37 73 26c1 0 2 0 2 -1c2 0 3 -1 5 -3c4 -3 9 -7 13 -13c10 -10 20 -24 31 -42c13 -20 24 -39 33 -59zM351 309c8 2 13 5 17 11s6 13 4 19c-1 6 -3 10 -7 14c-8 24 -24 54 -47 89c-12 19 -23 35 -35 47
c-15 18 -29 28 -42 32c-28 10 -53 10 -76 2c-22 -8 -42 -24 -58 -49c-24 -38 -38 -91 -42 -161c-2 -62 4 -122 18 -180c17 -64 41 -105 71 -125c25 -15 50 -19 75 -11c20 7 39 20 57 40c28 32 47 68 58 108c2 7 1 14 -3 20c-4 7 -8 10 -16 12c-7 2 -13 1 -20 -3
c-6 -4 -9 -8 -11 -16c-9 -32 -25 -61 -47 -86c-11 -13 -22 -21 -33 -25c-10 -3 -21 -1 -32 5c-19 12 -35 44 -49 94c-11 46 -16 94 -16 145c46 0 83 1 113 3c42 3 82 8 121 15z" />
    <glyph glyph-name="f" unicode="f" horiz-adv-x="320" 
d="M197 756c2 -3 4 -8 4 -16c1 -7 4 -13 10 -18c6 -4 12 -6 19 -6c8 1 13 4 17 9c5 6 7 12 6 19c-1 16 -4 28 -10 38c-10 17 -24 27 -43 29c-20 2 -37 -3 -52 -16c-11 -10 -21 -24 -29 -43c-10 -26 -16 -63 -20 -111c-1 -28 -1 -64 -1 -107l1 -4v-8v-6v-13v-7
c-27 0 -49 -1 -67 -1c-7 0 -13 -2 -19 -8c-5 -5 -7 -10 -7 -18c0 -7 3 -13 8 -19c6 -5 11 -7 18 -7c18 0 40 1 67 1c0 -35 1 -78 1 -128v-61c1 -110 1 -192 1 -247c0 -7 3 -13 8 -19c6 -5 11 -7 18 -7c8 0 14 3 19 8c6 6 7 11 7 18c0 55 0 137 -1 247v61c0 51 -1 94 -1 128
c32 1 58 1 76 1c8 0 14 3 19 8c6 6 7 11 7 18c0 8 -2 14 -8 19c-5 6 -10 7 -18 7c-19 0 -44 0 -76 -1v7v14v6v8l-1 4c0 42 0 76 1 102c3 43 9 75 17 96c4 11 9 19 14 23c4 3 8 4 12 3c2 0 3 -1 3 -3z" />
    <glyph glyph-name="g" unicode="g" horiz-adv-x="389" 
d="M299 169c-2 -3 -4 -7 -5 -11c-9 -32 -25 -61 -47 -86c-11 -13 -22 -21 -33 -25c-10 -3 -21 -1 -32 5c-19 12 -35 44 -49 94c-13 52 -18 107 -16 165c4 60 15 105 34 135c18 28 43 37 73 26c32 -10 53 -28 61 -52c0 -10 1 -26 2 -46c1 -12 3 -43 6 -93c3 -44 5 -81 6 -112
zM341 497c2 7 1 14 -3 20c-4 7 -8 10 -15 12c-6 2 -13 0 -20 -4c-6 -4 -10 -8 -12 -15c-1 -4 -2 -9 -3 -14c-14 11 -29 19 -47 25c-28 10 -53 10 -76 2c-22 -8 -42 -24 -58 -49c-24 -38 -38 -91 -42 -161c-2 -62 4 -122 18 -180c17 -64 41 -105 71 -125
c25 -15 50 -19 75 -11c20 7 39 20 57 40c5 6 10 13 15 19c-1 -50 -5 -91 -11 -124c-10 -51 -24 -77 -44 -79c-24 -2 -42 3 -55 15c-12 13 -20 26 -25 40c-2 7 -6 12 -13 15c-6 4 -13 4 -20 1c-6 -2 -11 -6 -15 -13c-3 -6 -3 -12 -1 -19c8 -22 20 -42 38 -60
c24 -24 55 -34 95 -31c26 2 47 16 63 41c12 20 22 46 28 80c10 52 14 125 11 217c0 40 -3 88 -7 146l-6 92c-1 18 -2 32 -2 42c1 3 1 6 0 9v6c1 6 1 14 1 25c1 20 2 32 3 38z" />
    <glyph glyph-name="h" unicode="h" horiz-adv-x="391" 
d="M171 488c-2 109 -3 199 -3 271c0 7 -2 13 -8 18c-5 6 -10 8 -18 8c-7 0 -13 -2 -19 -8c-5 -5 -7 -11 -7 -18c0 -82 2 -204 4 -367c1 -14 1 -24 1 -32c3 -142 4 -253 4 -333c0 -7 3 -13 8 -19c6 -5 11 -7 18 -7c8 0 13 3 18 8c6 6 8 11 8 18c0 80 -1 192 -4 334
c0 8 0 18 -1 32v32c3 1 5 2 7 4c35 29 63 44 83 44c14 0 26 -7 35 -23c21 -35 31 -103 30 -203c0 -34 -1 -78 -5 -130c0 0 0 -5 -1 -14c0 -8 -1 -17 -2 -27c0 -9 -1 -14 -1 -17c-1 -19 -2 -34 -2 -44c0 -6 3 -12 8 -18c6 -5 11 -8 18 -8c8 0 14 3 19 8c6 6 7 12 7 18
c0 9 1 23 2 41c0 3 1 9 1 18c1 10 2 18 2 26c1 9 1 13 1 14c4 53 5 97 5 133c1 49 -1 91 -6 126c-6 44 -16 79 -31 103c-19 34 -46 50 -81 49c-26 0 -56 -13 -90 -37z" />
    <glyph glyph-name="i" unicode="i" horiz-adv-x="207" 
d="M197 512c0 8 -2 14 -8 19c-5 6 -10 7 -18 7c-7 0 -13 -2 -19 -8c-5 -5 -7 -10 -7 -18c0 -10 0 -31 -2 -62c0 -6 -1 -23 -3 -51c-1 -28 -2 -43 -2 -47c-2 -30 -3 -58 -4 -82c-3 -68 -4 -123 -4 -163c2 -56 7 -91 16 -105c4 -6 10 -9 17 -11c8 -1 13 0 19 4s10 10 11 17
c2 8 0 13 -4 19c0 2 0 3 -1 4c-1 4 -2 10 -3 17c-1 14 -2 33 -3 56c0 40 1 93 4 160c1 24 2 51 3 82c1 3 2 18 3 46c2 28 3 46 3 52c2 32 2 53 2 64zM157 679c-4 -4 -7 -10 -7 -18c0 -7 3 -13 8 -19c6 -5 11 -7 18 -7c8 0 14 3 19 8c6 6 7 11 7 18c0 8 -2 14 -8 19
c-5 6 -10 7 -18 7c-7 0 -13 -2 -19 -8z" />
    <glyph glyph-name="j" unicode="j" horiz-adv-x="208" 
d="M57 496c0 8 -3 14 -9 18c-5 5 -11 7 -19 5c-7 -1 -13 -3 -18 -9c-4 -5 -6 -11 -5 -19c10 -103 16 -208 17 -315c2 -150 -7 -246 -28 -288c-7 -15 -18 -26 -33 -32c-14 -6 -35 -9 -62 -9c-7 0 -13 -2 -19 -8c-5 -5 -7 -11 -7 -19c0 -7 3 -12 8 -18c6 -5 11 -7 18 -7
c32 0 59 4 79 12c28 12 49 31 62 58c25 50 36 154 34 311c-1 109 -7 216 -18 320zM15 666c-4 -4 -7 -10 -7 -18c0 -7 3 -12 8 -18c6 -5 11 -8 18 -8c8 0 14 3 19 8c6 6 7 12 7 19c0 8 -2 13 -8 18c-5 6 -10 7 -18 7c-7 0 -13 -2 -19 -8z" />
    <glyph glyph-name="k" unicode="k" horiz-adv-x="379" 
d="M168 757c0 8 -2 14 -8 19c-5 6 -10 7 -18 7c-7 0 -13 -2 -19 -8c-5 -5 -7 -10 -7 -18c0 -81 2 -203 4 -367c1 -14 1 -24 1 -31c3 -142 4 -254 4 -334c0 -7 3 -13 8 -19c6 -5 11 -7 18 -7c8 0 13 3 18 8c6 6 8 11 8 18c0 58 0 123 -2 195c8 -12 17 -30 29 -53
c1 -1 2 -3 4 -7c2 -3 3 -5 4 -8l2 -4c18 -33 33 -59 43 -77c18 -28 35 -50 52 -67c5 -5 11 -8 18 -8c8 0 14 3 19 8c6 6 7 11 7 18c0 8 -2 14 -7 19c-14 14 -29 34 -45 58c-10 17 -23 41 -41 73c0 1 0 3 -2 5c-1 3 -3 6 -5 8c-2 3 -2 5 -3 6c-21 42 -39 72 -53 91
c38 55 92 118 163 188c5 6 7 12 7 19c0 8 -2 14 -8 19c-5 6 -10 7 -18 7c-7 0 -12 -2 -18 -8c-62 -62 -112 -118 -150 -169v21c0 8 0 18 -1 32c-2 163 -4 285 -4 366z" />
    <glyph glyph-name="l" unicode="l" horiz-adv-x="176" 
d="M144 755c0 8 -2 14 -8 19c-5 6 -11 7 -19 7c-7 0 -12 -2 -18 -8c-5 -5 -7 -10 -7 -18c0 -81 2 -203 4 -366v-32c3 -142 4 -254 4 -334c0 -6 3 -12 8 -18c6 -5 11 -8 18 -8c8 0 14 3 19 8c6 6 7 12 7 18c0 81 -1 193 -4 335v32c-2 162 -4 284 -4 365z" />
    <glyph glyph-name="m" unicode="m" horiz-adv-x="575" 
d="M335 458c-1 3 -3 6 -5 8c-19 34 -46 50 -81 49c-24 0 -52 -11 -83 -32v42c0 8 -2 14 -8 19c-5 6 -10 7 -18 7c-7 0 -13 -2 -19 -8c-5 -5 -7 -10 -7 -18c0 -58 2 -146 6 -263c1 -21 2 -37 2 -48c3 -88 4 -159 4 -214c0 -7 3 -13 8 -19c6 -5 11 -7 18 -7c8 0 14 3 19 8
c6 6 7 11 7 18c0 56 -1 128 -4 216c0 11 -1 27 -2 47c-2 70 -3 122 -5 157c35 28 63 43 84 43c14 0 26 -7 35 -23c21 -34 31 -101 29 -200c0 -34 -1 -76 -5 -128c0 -1 0 -6 -1 -15c0 -8 -1 -16 -2 -25c0 -8 0 -14 -1 -18c-1 -18 -2 -33 -2 -43c0 -6 3 -12 8 -18
c6 -5 12 -8 19 -8c8 0 13 3 18 8c6 6 7 12 7 18c0 9 1 22 2 40c0 4 1 10 1 18c1 9 2 18 2 26c1 9 1 13 1 14c4 52 5 96 5 131c1 48 -1 90 -6 124c-2 17 -4 32 -8 45c4 1 7 3 10 5c34 28 62 43 83 43c14 1 26 -7 35 -23c21 -34 31 -100 30 -199c0 -34 -2 -77 -5 -128
c0 -1 -1 -6 -2 -15c0 -8 0 -16 -1 -25c0 -8 -1 -14 -1 -18c-1 -19 -2 -33 -2 -43c0 -7 3 -13 8 -19c6 -5 11 -7 18 -7c8 0 14 3 19 8c6 6 7 11 7 18c0 9 1 22 2 40c0 3 1 9 1 17c1 9 2 18 2 26c1 9 0 14 0 14c4 53 6 97 6 131c0 49 -2 91 -6 125c-6 44 -16 78 -31 102
c-20 34 -47 50 -81 48c-32 0 -68 -17 -110 -51z" />
    <glyph glyph-name="n" unicode="n" horiz-adv-x="380" 
d="M156 480v54c0 8 -2 14 -8 19c-5 6 -10 7 -18 7c-7 0 -13 -2 -19 -8c-5 -5 -7 -10 -7 -18c0 -58 2 -146 6 -263c1 -21 1 -37 1 -48c4 -88 5 -159 5 -214c0 -7 3 -13 8 -19c6 -5 11 -7 18 -7c8 0 13 3 18 8c6 6 8 11 8 18c0 56 -1 128 -5 216c0 11 0 27 -1 47
c-2 64 -3 112 -5 144c2 1 4 2 5 3c35 29 63 44 84 44c14 0 26 -7 35 -23c21 -34 31 -101 29 -200c0 -34 -1 -76 -5 -128c0 -1 0 -6 -1 -15c0 -8 -1 -16 -2 -25c0 -8 0 -14 -1 -18c-1 -18 -2 -33 -2 -43c0 -6 3 -12 8 -18c6 -5 12 -8 19 -8c8 0 13 3 18 8c6 6 7 12 7 18
c0 9 1 22 2 40c0 4 1 10 1 18c1 9 2 18 2 26c1 9 1 13 1 14c4 52 5 96 5 131c1 48 -1 90 -6 124c-6 44 -16 78 -31 102c-19 34 -46 50 -81 49c-26 0 -55 -12 -88 -35z" />
    <glyph glyph-name="o" unicode="o" horiz-adv-x="376" 
d="M275 466c3 -3 6 -7 9 -13c8 -14 15 -34 20 -60c11 -50 14 -108 9 -174c-4 -66 -16 -117 -34 -155c-8 -16 -16 -27 -25 -33c-6 -4 -12 -4 -20 -1c-28 13 -48 45 -62 97c-13 52 -16 109 -8 171s23 109 47 140c19 25 40 34 64 28zM302 512c-6 6 -14 10 -22 12
c-8 4 -16 2 -24 -4c-33 -1 -62 -18 -86 -50c-30 -39 -49 -94 -58 -166c-8 -68 -5 -131 9 -190c18 -68 49 -112 92 -132c25 -10 48 -9 69 5c18 11 32 29 44 55c21 43 34 101 39 173c5 70 2 133 -10 189c-6 30 -15 55 -26 74c-1 3 -2 6 -4 8c0 11 -6 19 -16 23c-2 2 -4 3 -7 3
z" />
    <glyph glyph-name="p" unicode="p" horiz-adv-x="407" 
d="M141 25c14 -10 30 -19 47 -26c28 -10 54 -12 77 -4c24 8 43 23 59 46c26 38 41 91 46 160c6 64 2 124 -12 181c-14 65 -37 107 -68 127c-24 16 -48 21 -74 13c-20 -6 -39 -18 -58 -38c-10 -11 -20 -24 -30 -40c-2 25 -4 49 -6 72c0 8 -4 14 -10 18c-6 5 -11 7 -19 6
c-7 0 -12 -4 -17 -10c-4 -6 -6 -11 -6 -18c10 -103 16 -223 18 -359c2 -68 2 -169 2 -305v-37c0 -7 3 -13 8 -19c6 -5 11 -7 18 -7c8 0 13 3 18 8c6 6 8 11 8 18v37c0 78 0 137 -1 177zM146 105c-1 4 -3 8 -5 11c0 12 -1 25 -1 38c-1 70 -3 135 -6 193c6 4 11 9 13 16
c10 33 26 61 49 85c12 13 24 21 34 24c11 3 21 1 31 -6c20 -12 35 -44 46 -95c12 -52 16 -108 11 -166c-4 -60 -17 -104 -37 -134c-18 -27 -43 -35 -74 -24c-16 6 -29 15 -40 25c-10 11 -17 21 -21 33z" />
    <glyph glyph-name="q" unicode="q" horiz-adv-x="510" 
d="M287 416c2 -7 7 -12 13 -16c-1 -76 -1 -153 -1 -231c-2 -3 -4 -7 -5 -11c-9 -32 -25 -61 -47 -86c-11 -13 -22 -21 -33 -25c-10 -3 -21 -1 -32 5c-19 12 -35 44 -49 94c-13 52 -18 107 -16 165c4 60 15 105 34 135c18 28 43 37 73 26c16 -5 30 -13 41 -23
c12 -10 18 -21 22 -33zM356 510c1 8 -1 14 -6 19c-4 6 -10 9 -18 9c-7 1 -13 -1 -19 -6c-5 -4 -8 -10 -9 -18c0 -7 -1 -17 -2 -29c-16 16 -37 28 -61 36c-28 10 -53 10 -76 2c-22 -8 -42 -24 -58 -49c-24 -38 -38 -91 -42 -161c-2 -62 4 -122 18 -180
c17 -64 41 -105 71 -125c25 -15 50 -19 75 -11c20 7 39 20 57 40c6 6 11 13 16 20c2 -59 5 -109 9 -149c4 -34 8 -60 12 -80c3 -11 6 -21 9 -29c5 -10 11 -18 19 -23c26 -15 48 -16 68 -4c8 5 15 12 21 20c4 6 8 12 12 20c1 1 2 2 2 3c1 2 2 2 2 3c1 2 1 3 1 3
c5 8 8 12 10 14c5 6 7 12 7 19c0 8 -2 13 -8 18c-5 6 -10 8 -18 8c-7 0 -12 -2 -18 -8c-5 -5 -11 -13 -18 -25c0 0 0 -1 -2 -3c-1 -1 -1 -2 -2 -4l-1 -2c-6 -12 -12 -19 -16 -22h-2c-2 0 -6 1 -10 3v1c-2 5 -4 12 -6 20c-4 18 -7 42 -10 73c-6 56 -9 130 -11 222
c-1 73 -1 147 0 222c2 76 2 127 4 153z" />
    <glyph glyph-name="r" unicode="r" horiz-adv-x="375" 
d="M175 418c0 40 -1 79 -1 116c0 8 -2 14 -8 19c-5 6 -10 7 -18 7c-7 0 -13 -2 -19 -8c-5 -5 -7 -10 -7 -18c0 -58 2 -146 6 -263c1 -21 1 -37 1 -48c4 -88 5 -159 5 -214c0 -7 3 -13 8 -19c6 -5 11 -7 18 -7c8 0 13 3 18 8c6 6 8 11 8 18c0 56 -1 128 -5 216
c0 10 0 26 -1 47c0 24 -1 44 -2 61c4 2 6 5 8 8c20 35 44 65 70 90c32 30 60 44 85 44c8 0 14 3 19 8c6 6 7 12 7 19c0 8 -2 13 -8 18c-5 6 -10 7 -18 7c-39 0 -79 -19 -121 -59c-15 -14 -30 -30 -45 -50z" />
    <glyph glyph-name="s" unicode="s" horiz-adv-x="345" 
d="M266 421c4 -6 9 -11 15 -14c7 -2 14 -1 20 2c7 4 12 8 14 15c3 8 2 13 -2 19c-13 29 -33 49 -61 61c-12 6 -28 9 -48 9h-17h-8c-14 0 -27 -3 -40 -10c-8 -4 -16 -11 -25 -21c-21 -21 -31 -46 -31 -76c1 -22 8 -46 22 -74c10 -17 24 -39 44 -66c2 -2 5 -6 8 -11
c0 0 1 -2 3 -5c2 -2 4 -3 4 -5c6 -7 11 -13 14 -19c10 -13 17 -24 21 -32c20 -39 32 -74 35 -105c2 -16 -1 -28 -9 -38c-7 -8 -17 -13 -31 -15s-28 1 -41 7c-12 7 -21 17 -27 29c-2 7 -7 12 -14 14c-6 3 -13 3 -20 0c-6 -2 -10 -7 -14 -14c-3 -6 -2 -13 0 -20
c10 -24 27 -42 50 -55c24 -12 47 -16 73 -13c28 4 50 17 66 37c16 21 23 45 19 74c-4 37 -17 78 -41 122c-5 11 -13 24 -25 39c-3 6 -8 12 -14 20c-1 2 -2 3 -4 5l-4 6c-2 4 -5 8 -7 10c-18 25 -31 45 -40 59c-20 40 -20 70 0 90c10 10 20 15 28 15h8h16c13 0 22 -1 27 -4
c17 -7 29 -19 36 -36z" />
    <glyph glyph-name="t" unicode="t" horiz-adv-x="287" 
d="M109 495c-18 0 -34 0 -50 -2c-7 0 -13 -3 -18 -9c-4 -5 -6 -11 -6 -19c1 -7 4 -12 9 -17c6 -4 12 -7 19 -7c14 2 30 2 47 2c0 -16 1 -35 1 -56v-32c3 -142 4 -253 4 -333c0 -7 3 -13 8 -19c6 -5 11 -7 18 -7c8 0 14 3 19 8c6 6 7 11 7 18c0 80 -1 192 -4 334v32
c0 20 -1 38 -1 54c21 0 37 -1 48 -1c8 0 14 3 19 8c6 6 7 11 7 18c0 8 -2 14 -8 19c-5 6 -10 7 -18 7c-10 0 -27 1 -49 1c-1 102 -2 189 -2 259c0 8 -2 14 -8 19c-5 6 -10 7 -18 7c-7 0 -13 -2 -19 -8c-5 -5 -7 -10 -7 -18c0 -70 1 -156 2 -258z" />
    <glyph glyph-name="u" unicode="u" horiz-adv-x="408" 
d="M401 501c1 8 -1 14 -6 19c-4 6 -10 9 -18 9c-7 1 -13 -1 -19 -6c-5 -4 -8 -10 -9 -18c-5 -66 -5 -154 -1 -262c1 -12 2 -29 2 -53c3 -52 5 -91 5 -117c-10 5 -19 3 -28 -5c-18 -16 -34 -25 -48 -27c-8 0 -17 4 -25 12c-20 22 -35 66 -46 133c-9 53 -14 115 -16 187
c0 54 1 94 3 119c1 8 -1 14 -6 19c-4 6 -10 9 -18 10c-7 2 -13 -1 -19 -6c-6 -4 -8 -10 -9 -18c-2 -27 -3 -69 -3 -125c2 -74 8 -139 16 -195c13 -76 33 -129 60 -159c20 -21 42 -31 68 -29c23 2 47 14 72 36v-22c0 -7 3 -13 8 -19c6 -5 11 -7 18 -7c8 0 14 3 19 8
c6 6 7 11 7 18c0 42 -2 105 -6 189c0 24 -1 42 -2 54c-4 106 -4 191 1 255z" />
    <glyph glyph-name="v" unicode="v" horiz-adv-x="408" 
d="M92 520c-2 7 -7 12 -14 14c-6 3 -12 3 -20 0c-7 -2 -11 -6 -14 -13c-2 -6 -2 -13 0 -20c30 -79 58 -160 83 -242c36 -114 53 -193 53 -237c0 -6 2 -11 6 -17c4 -5 9 -7 15 -8c4 -2 9 -4 14 -4c8 0 14 3 19 8c6 6 7 11 7 18c0 36 16 114 48 234c26 99 49 181 71 246
c2 7 2 14 -2 20c-3 7 -7 11 -15 13c-7 3 -13 2 -20 -2c-6 -3 -10 -8 -12 -15c-22 -66 -47 -149 -73 -249c-10 -41 -19 -78 -27 -111c-8 35 -20 75 -34 119c-25 84 -53 166 -85 246z" />
    <glyph glyph-name="w" unicode="w" horiz-adv-x="612" 
d="M100 508c-2 7 -7 12 -14 15c-6 4 -12 3 -19 1c-6 -2 -11 -6 -15 -13c-3 -6 -4 -13 -2 -20c16 -47 36 -112 58 -196l2 -7c2 -4 3 -9 5 -15s3 -12 5 -19c2 -6 3 -13 5 -19s3 -10 3 -13c8 -28 15 -53 21 -75c16 -51 30 -98 44 -140c0 0 0 -1 -1 -1c0 -12 5 -21 17 -27
c7 -4 14 -4 21 -2c8 3 13 8 16 14c4 7 3 13 1 19c0 2 -1 3 -1 3c6 40 22 120 50 240c16 72 30 132 42 180c8 -33 18 -79 30 -139c1 -2 2 -5 3 -11c2 -5 2 -10 3 -16l1 -8c3 -14 6 -26 8 -36c6 -28 11 -52 15 -73c11 -50 22 -96 33 -137c0 -1 0 -2 -1 -3c0 -12 5 -20 15 -25
c7 -4 14 -6 22 -4c7 2 12 6 16 12s4 13 2 20c0 2 -1 3 -2 5c6 40 19 121 40 244c25 140 40 219 45 237c2 7 1 14 -3 20c-3 7 -8 10 -16 12c-7 2 -13 1 -20 -3c-6 -4 -10 -8 -12 -15c-5 -20 -20 -101 -45 -242c-8 -44 -15 -85 -21 -121c0 4 -1 7 -2 11c-4 21 -10 45 -16 72
c-2 10 -4 22 -7 36c0 1 0 4 -2 9c-1 6 -1 10 -3 15c-1 6 -1 10 -2 12c-18 89 -33 158 -47 206c-1 7 -5 12 -12 16c-6 4 -12 5 -19 3c-5 -2 -10 -5 -14 -9c-11 0 -19 -6 -23 -17c-8 -20 -27 -100 -59 -239c-13 -56 -24 -106 -33 -148c-4 14 -8 29 -13 44c-6 22 -13 46 -21 74
c0 4 -2 8 -4 14s-3 13 -5 19c-2 7 -3 13 -5 19s-2 11 -4 15c-1 4 -1 7 -1 7c-23 85 -43 151 -59 199z" />
    <glyph glyph-name="x" unicode="x" horiz-adv-x="418" 
d="M112 505c-3 6 -8 10 -16 12c-7 2 -13 2 -20 -2c-6 -3 -10 -8 -12 -16c-2 -7 -1 -13 3 -19c24 -42 55 -100 93 -172c1 -1 3 -4 5 -8c3 -4 5 -9 8 -17c4 -7 7 -12 10 -18c-64 -136 -100 -215 -108 -239c-2 -6 -1 -13 2 -20c4 -6 8 -11 14 -13c7 -2 14 -1 20 2
c7 4 11 8 13 14c7 20 37 87 89 199c13 -23 24 -44 34 -63c33 -60 62 -111 86 -154c4 -6 9 -10 16 -12c8 -2 14 0 20 3c7 4 10 9 12 16c2 8 1 14 -3 20c-24 42 -53 93 -85 152c-12 23 -26 50 -43 81c-2 4 -5 9 -9 16c6 14 15 32 25 54c11 23 20 42 28 59c8 18 13 26 13 27
c24 50 36 77 38 82c2 7 2 14 -2 20c-3 7 -7 12 -15 14c-7 3 -13 2 -20 -2c-6 -3 -10 -8 -13 -15c0 -3 -12 -29 -35 -77c0 -1 -3 -7 -9 -18c-5 -10 -11 -24 -19 -42c-8 -17 -15 -31 -22 -45c-2 4 -3 7 -4 8c-38 73 -70 131 -94 173z" />
    <glyph glyph-name="y" unicode="y" horiz-adv-x="389" 
d="M195 492c1 8 -1 14 -6 19c-4 6 -10 9 -18 10c-7 2 -13 -1 -19 -6c-6 -4 -8 -10 -9 -18c-2 -27 -3 -69 -3 -125c2 -74 8 -139 16 -195c13 -76 33 -129 60 -159c20 -21 42 -31 68 -29c17 2 34 8 51 20c-2 -30 -5 -55 -9 -77c-10 -51 -24 -77 -44 -79c-24 -2 -42 3 -55 15
c-12 13 -20 26 -25 40c-2 7 -6 12 -13 15c-6 4 -13 4 -20 1c-6 -2 -11 -6 -15 -13c-3 -6 -3 -12 -1 -19c8 -22 20 -42 38 -60c24 -24 55 -34 95 -31c26 2 47 16 63 41c12 20 22 46 28 80c10 52 14 125 11 217c0 40 -3 88 -7 146l-6 92c-1 28 -2 47 -2 57c1 6 1 14 1 25
c1 20 2 32 3 38c2 7 1 14 -3 20c-4 7 -8 10 -15 12c-6 2 -13 0 -20 -4c-6 -4 -10 -8 -12 -15c-2 -9 -4 -26 -5 -50c0 -10 0 -18 -1 -24c0 -12 0 -32 2 -62c1 -12 3 -43 6 -93c4 -56 7 -104 7 -143c1 -22 1 -44 1 -64c-4 -1 -7 -3 -10 -6c-18 -16 -34 -25 -48 -27
c-8 0 -17 4 -25 12c-20 22 -35 66 -46 133c-9 53 -14 115 -16 187c0 54 1 94 3 119z" />
    <glyph glyph-name="z" unicode="z" horiz-adv-x="386" 
d="M302 466c2 4 3 7 3 11c4 5 5 10 5 15c0 8 -2 14 -8 19c-5 6 -10 7 -18 7c-91 0 -168 3 -230 7c-6 1 -13 -1 -19 -6c-6 -4 -8 -10 -9 -18c0 -7 3 -13 7 -19c5 -6 11 -8 17 -8c56 -4 122 -7 196 -8c-15 -33 -40 -85 -75 -156c0 0 -1 -1 -1 -2c-31 -62 -54 -108 -68 -140
c-22 -47 -39 -91 -53 -131c-10 -4 -15 -12 -15 -24c0 -6 3 -12 8 -18c6 -5 11 -8 18 -8c41 0 85 1 132 2c33 0 59 1 77 2c12 1 21 2 27 2c4 0 8 1 10 1c9 2 15 6 19 12s6 13 4 20c-1 8 -5 12 -11 16c-7 6 -15 7 -24 3c0 0 -1 -1 -3 -1c-5 0 -13 -1 -24 -1
c-18 -1 -44 -2 -76 -2c-26 0 -54 -1 -86 -2c12 33 27 69 44 107c14 32 37 78 67 139c1 1 1 2 1 2c40 79 68 139 85 179zM285 39c3 3 6 5 9 5c-3 -1 -6 -3 -9 -5z" />
    <glyph glyph-name="braceleft" unicode="{" horiz-adv-x="406" 
d="M324 742c3 -6 8 -11 15 -14c8 -2 14 -2 20 1c7 4 11 8 13 15c3 8 3 13 -1 19c-8 20 -17 34 -25 42c-12 14 -29 22 -51 24c-29 4 -53 -4 -73 -22c-16 -14 -27 -35 -35 -64c-6 -21 -9 -48 -11 -81c-1 -19 -2 -49 -2 -91v-6c0 -38 0 -67 -2 -87c-2 -29 -5 -53 -10 -71
c-5 -19 -12 -33 -21 -43c-8 -8 -18 -12 -32 -12c-8 0 -15 -3 -21 -10c-8 -4 -13 -12 -14 -22c0 -7 2 -13 6 -19c5 -5 11 -8 18 -9c21 -1 37 -7 49 -18c12 -10 20 -25 26 -47c6 -19 10 -44 11 -74c1 -18 1 -48 0 -89v-2c0 -42 1 -74 1 -96c2 -35 7 -65 15 -89
c22 -65 67 -98 137 -98c7 0 13 3 18 8c6 6 8 11 8 18c0 8 -2 14 -8 19c-5 6 -11 7 -18 7c-24 0 -43 5 -57 15s-23 26 -31 47c-6 20 -10 45 -12 76c0 20 -1 51 -1 93v1c1 42 1 73 0 93c-2 34 -6 63 -13 85c-10 36 -27 63 -52 80c3 2 6 5 8 7c15 16 26 38 33 66
c6 22 10 49 12 81c2 21 2 51 2 89v7c0 40 1 70 2 88c2 30 5 53 9 71c5 19 12 32 20 39s18 10 32 8c9 0 15 -3 19 -8c4 -4 10 -13 16 -27z" />
    <glyph glyph-name="bar" unicode="|" horiz-adv-x="398" 
d="M567 749c0 8 -3 14 -9 18c-6 5 -11 7 -19 6c-7 0 -12 -3 -17 -9c-4 -5 -6 -11 -6 -19c8 -103 13 -224 14 -362c2 -61 2 -154 2 -278v-40c0 -14 1 -39 1 -75c3 -71 3 -127 -1 -167c0 -6 2 -13 6 -19c5 -6 11 -8 18 -9c8 0 13 3 19 7c6 5 9 10 9 17c4 42 4 100 1 173
c0 35 -1 59 -1 73v40c0 124 0 217 -2 279c-2 139 -7 261 -15 365z" />
    <glyph glyph-name="braceright" unicode="}" horiz-adv-x="314" 
d="M228 287c6 4 10 10 12 17c2 8 0 13 -4 19s-9 10 -16 12c-6 2 -13 1 -19 -3c-18 4 -29 21 -33 49c-2 16 -2 37 -1 61c1 15 3 40 6 75c2 18 4 31 4 41c5 58 5 105 -1 139c-8 51 -30 89 -64 113c-19 14 -38 21 -58 19c-14 0 -32 -6 -53 -18c-6 -3 -11 -8 -13 -15
c-2 -6 -1 -13 2 -20c4 -6 9 -10 16 -13c8 -2 13 -1 19 3c15 8 26 12 32 12c7 1 15 -3 25 -11c22 -15 37 -41 43 -79c5 -30 5 -72 0 -126c0 -9 -2 -22 -4 -40c-3 -36 -5 -61 -6 -77c-2 -28 -1 -51 1 -71c4 -24 11 -44 22 -60c6 -8 13 -14 21 -20c-18 -24 -28 -55 -32 -92
c-1 -22 0 -47 3 -77c2 -17 6 -43 12 -78c1 0 1 0 1 -1c6 -36 10 -62 12 -80c4 -27 4 -50 2 -69c-5 -42 -26 -72 -63 -90c-7 -2 -12 -4 -15 -4c-2 1 -5 4 -10 8c-5 6 -11 8 -19 8c-7 0 -12 -2 -18 -8c-5 -5 -7 -11 -7 -19c0 -7 3 -12 7 -18c24 -24 52 -28 83 -14
c55 26 86 69 93 131c3 23 3 50 -1 81c-2 19 -6 47 -13 83v2c-6 34 -10 58 -12 74c-3 26 -4 49 -3 67c4 42 20 71 49 89z" />
    <glyph glyph-name="asciitilde" unicode="~" horiz-adv-x="585" 
d="M229 660c2 -7 7 -12 13 -16c7 -3 13 -4 20 -2c8 2 12 6 15 12c4 7 5 13 3 19c-4 16 0 29 14 39c19 15 42 18 70 10c15 -4 36 -14 64 -30c25 -13 42 -22 52 -27c22 -9 41 -14 57 -14c44 0 77 31 98 93c2 8 2 15 -2 21c-3 7 -8 11 -15 13c-6 3 -13 2 -20 -2
c-6 -3 -10 -8 -13 -15c-7 -23 -16 -39 -26 -49c-6 -6 -14 -9 -22 -9c-9 0 -21 4 -36 10c-8 4 -24 12 -48 25c-31 17 -56 28 -74 33c-44 14 -83 8 -117 -18c-32 -24 -43 -55 -33 -93z" />
    <glyph glyph-name="exclamdown" unicode="&#xa1;" horiz-adv-x="257" 
d="M272 342c0 7 -2 13 -8 18c-5 6 -10 8 -18 8c-7 0 -12 -2 -18 -8c-5 -5 -8 -11 -8 -18v-16v-11v-10c0 -90 1 -165 1 -227c2 -75 5 -135 8 -181c2 -27 5 -49 7 -65c4 -22 10 -37 17 -45c6 -5 12 -8 19 -8c8 0 13 3 18 8s8 11 8 17c1 7 -2 12 -6 17c0 1 0 2 -1 3
c-1 4 -2 10 -4 17c-2 15 -5 35 -7 60c-3 44 -5 104 -7 178c0 62 -1 137 -1 225v11v11v16zM238 514c-4 -4 -7 -10 -7 -18c0 -7 3 -13 8 -19c6 -5 11 -7 18 -7c8 0 14 3 19 8c6 6 7 11 7 18c0 8 -2 14 -8 19c-5 6 -10 7 -18 7c-7 0 -13 -2 -19 -8z" />
    <glyph glyph-name="cent" unicode="&#xa2;" horiz-adv-x="393" 
d="M324 213l-12 18c-22 44 -32 97 -30 160c4 62 18 111 42 146c4 6 8 11 12 15c0 -28 0 -56 -1 -83c-2 -90 -5 -172 -11 -246v-10zM389 623v92c0 8 -2 14 -8 19c-5 6 -10 7 -18 7c-7 0 -13 -2 -19 -8c-5 -5 -7 -10 -7 -18v-100c-21 -9 -40 -25 -56 -48
c-30 -44 -47 -101 -51 -173c-3 -72 9 -135 37 -187c16 -29 35 -52 57 -68c1 -3 1 -6 1 -9c2 -48 -1 -84 -7 -109c-2 -6 -1 -13 3 -20c4 -6 9 -10 16 -12c8 -2 14 0 20 4c7 4 10 9 11 16c5 19 8 40 9 62c1 13 1 28 0 44c12 -2 25 -4 38 -4c8 0 14 3 19 8c6 6 7 11 7 18
c0 8 -2 14 -8 19c-5 6 -10 7 -18 7c-14 0 -27 3 -40 7c0 20 1 36 1 50c6 74 9 157 11 248c1 33 1 67 1 102c6 0 11 -2 17 -5c7 -2 14 -2 20 0c7 3 12 8 14 14c3 7 3 14 0 20c-2 7 -7 12 -14 14c-12 6 -24 9 -36 10z" />
    <glyph glyph-name="sterling" unicode="&#xa3;" horiz-adv-x="449" 
d="M85 319c-7 -1 -13 -5 -17 -11s-5 -12 -4 -20c2 -7 5 -12 11 -16s12 -5 19 -4c14 3 32 4 52 3c3 -58 4 -106 3 -142c0 -33 -1 -59 -5 -79c-1 -9 -3 -16 -5 -22c0 -1 -1 -2 -2 -4c-6 -5 -9 -12 -9 -20c0 -5 2 -10 5 -15c6 -7 13 -11 21 -11c6 0 12 2 16 6
c20 15 49 20 89 16c38 -4 62 -12 74 -25c6 -4 12 -7 19 -7c8 0 13 3 18 8c6 6 7 11 7 18c0 8 -2 13 -7 18c-21 21 -56 34 -105 39c-24 3 -47 2 -68 -2c3 21 4 48 4 80c1 36 0 83 -3 141h51c25 2 46 5 64 11c7 3 12 8 15 14c4 7 4 13 1 19c-2 7 -6 12 -13 15
c-6 4 -12 4 -19 1c-14 -4 -31 -6 -51 -8h-50c0 13 -1 27 -2 41c0 4 0 8 -1 13c-4 90 -6 154 -7 190c-1 62 1 103 6 125c6 24 16 39 30 45s30 4 50 -4c22 -8 41 -22 58 -41c18 -18 27 -36 30 -54c2 -7 5 -13 11 -17s13 -5 20 -4c8 2 12 5 16 11s6 12 4 19
c-4 28 -18 54 -42 79c-23 26 -48 44 -78 55c-33 14 -63 15 -89 4c-31 -13 -51 -40 -61 -81c-6 -26 -8 -71 -7 -137c1 -38 4 -102 8 -193v-12c1 -14 2 -26 2 -38h-8c-19 0 -36 -1 -51 -4z" />
    <glyph glyph-name="currency" unicode="&#xa4;" horiz-adv-x="727" 
d="M581 545c24 -30 35 -68 32 -112c-3 -47 -20 -89 -50 -126c-29 -35 -61 -52 -97 -51c-40 3 -78 33 -113 89c-18 30 -22 65 -11 103c12 38 33 71 65 99s63 43 94 45c25 2 46 -7 62 -26c2 -2 4 -5 6 -8c2 -1 3 -2 4 -4c1 0 1 -1 1 -2zM624 295c-1 1 -2 2 -3 2
c26 42 41 86 44 133c3 48 -7 91 -30 128c2 1 3 2 4 3c36 32 75 63 117 91c6 4 10 10 11 17c2 8 0 13 -4 19s-9 10 -17 11c-7 2 -13 0 -19 -4c-44 -30 -85 -61 -123 -95v-1c-28 33 -64 48 -107 44c-41 -2 -81 -21 -121 -55c-8 7 -19 17 -35 30l-1 1c-31 28 -54 48 -68 62
c-5 6 -11 8 -19 8c-7 0 -12 -2 -18 -8c-5 -5 -7 -10 -7 -18c0 -7 3 -13 7 -19c16 -14 39 -36 71 -64l1 -1c15 -12 26 -22 32 -29c-21 -27 -36 -56 -46 -87c-16 -53 -11 -102 16 -146c2 -4 5 -8 7 -12c-14 -21 -36 -47 -68 -79l-20 -20c-5 -5 -8 -11 -8 -19c0 -7 3 -12 8 -18
c6 -5 12 -8 19 -8c8 0 13 3 18 8c10 10 16 17 20 21c28 28 50 53 65 73c35 -36 73 -56 114 -59c45 -2 86 16 124 53c1 0 2 -1 2 -1c10 -8 23 -19 41 -34c0 0 1 -1 1 -2l2 -1c30 -24 51 -42 64 -55c6 -5 12 -8 19 -8c8 0 13 3 18 8c6 6 7 11 7 18c0 8 -2 14 -7 18
c-14 15 -37 35 -68 59l-1 1c-1 2 -2 2 -3 2c-17 14 -30 25 -39 33z" />
    <glyph glyph-name="yen" unicode="&#xa5;" horiz-adv-x="497" 
d="M32 471c-7 0 -13 -4 -18 -10c-4 -6 -5 -12 -4 -20c2 -7 4 -12 10 -17c6 -4 13 -5 19 -4c36 6 77 8 125 6c11 -19 20 -35 27 -47c6 -8 14 -12 24 -11c0 -8 -1 -16 -3 -24c-73 2 -129 2 -169 2c-7 0 -13 -2 -19 -8c-5 -5 -7 -10 -7 -18c0 -7 3 -13 8 -19c6 -5 11 -7 18 -7
c39 0 93 0 162 -2c-9 -88 -14 -181 -14 -279c0 -6 3 -12 8 -18c6 -5 11 -8 18 -8c8 0 13 3 18 8c6 6 8 12 8 18c0 98 5 191 15 278c18 0 34 -1 48 -1c38 0 72 -1 101 -1c8 0 14 3 19 8c6 6 7 11 7 18c0 8 -2 14 -8 19c-5 6 -10 7 -18 7c-29 0 -62 1 -100 1
c-12 0 -27 1 -43 1c4 26 9 51 13 76c47 -3 84 -5 110 -5c8 0 14 3 19 8c6 6 7 12 7 19c0 8 -2 13 -8 18c-5 6 -10 7 -18 7c-24 0 -58 2 -100 5c18 84 41 166 69 246c3 7 3 14 -1 20c-3 7 -8 12 -15 14c-6 3 -13 2 -20 -2c-6 -3 -10 -7 -13 -15c-30 -85 -55 -172 -73 -260
c-2 0 -5 1 -9 1c-10 1 -19 1 -29 1c-24 49 -49 103 -75 161c-25 59 -40 102 -48 129c-1 8 -5 13 -12 17c-6 4 -12 4 -20 2c-7 -2 -12 -6 -16 -12s-4 -12 -2 -20c7 -26 22 -67 44 -121c23 -54 46 -104 70 -154c-38 1 -73 -1 -105 -7z" />
    <glyph glyph-name="brokenbar" unicode="&#xa6;" horiz-adv-x="375" 
d="M553 749c0 8 -2 14 -8 19c-5 6 -10 7 -18 7c-7 0 -13 -2 -19 -8c-5 -5 -7 -10 -7 -18v-93c0 -18 -1 -44 -1 -80c0 -77 -1 -135 -1 -173c0 -7 3 -13 8 -19c6 -5 11 -7 18 -7c8 0 14 3 19 8c6 6 7 11 7 18c0 38 1 96 1 172c0 36 1 63 1 80v94zM553 162c0 8 -2 14 -8 19
c-5 6 -10 7 -18 7c-7 0 -13 -2 -19 -8c-5 -5 -7 -10 -7 -18c0 -38 -1 -95 -4 -172c-2 -62 -3 -109 -3 -140v-34c0 -7 3 -13 8 -19c6 -5 11 -7 18 -7c8 0 13 3 18 8c6 6 8 11 8 18v33c0 31 1 77 3 139c3 78 4 136 4 174z" />
    <glyph glyph-name="section" unicode="&#xa7;" horiz-adv-x="451" 
d="M441 701c2 -7 7 -12 13 -16c7 -3 13 -4 19 -2c7 2 12 6 16 12c4 7 4 13 2 20c-6 25 -22 49 -47 73c-24 24 -50 41 -79 51c-34 13 -63 13 -87 1c-29 -14 -45 -43 -49 -87c-2 -20 8 -54 28 -102c8 -16 18 -38 30 -66l15 -31l20 -40c-40 6 -71 -8 -94 -43
c-39 -58 -46 -118 -20 -180c10 -23 25 -48 45 -75c12 -16 32 -39 58 -69c2 -2 3 -3 3 -4c32 -35 54 -62 67 -81c20 -28 31 -54 34 -78c1 0 1 -1 1 -2c1 -6 2 -11 2 -14c1 -7 1 -13 1 -19c-1 -17 -10 -34 -27 -50c-16 -16 -37 -27 -61 -35c-22 -6 -42 -7 -58 -3
c-13 5 -21 14 -23 26c-2 8 -6 13 -12 17s-12 6 -20 4c-7 -1 -12 -5 -16 -11s-5 -12 -3 -20c7 -33 27 -55 59 -65c26 -8 56 -7 88 2c32 10 59 26 81 47c27 25 42 53 44 84c1 9 1 19 -1 30c0 4 -1 9 -3 16v1c-5 32 -20 65 -44 99c-10 16 -24 35 -42 55c56 13 83 52 81 116
c-2 50 -24 123 -67 217c-7 17 -16 36 -26 57l-20 40l-15 32c-12 26 -22 47 -29 63c-17 40 -25 66 -25 78c2 24 9 38 21 44s27 6 46 -2c22 -8 42 -21 60 -39c19 -18 30 -34 34 -51zM343 451c3 -2 6 -3 9 -4c37 -83 56 -145 58 -187c1 -22 -3 -39 -13 -49
c-10 -11 -28 -17 -55 -17c0 0 -1 0 -3 -1c-19 23 -34 41 -44 54c-18 24 -31 45 -39 64c-18 45 -13 89 15 131c8 13 18 20 30 21c13 2 27 -2 42 -12z" />
    <glyph glyph-name="dieresis" unicode="&#xa8;" horiz-adv-x="471" 
d="M353 675c-4 -4 -7 -10 -7 -18c0 -7 3 -12 8 -18c6 -5 11 -8 18 -8c8 0 14 3 19 8c6 6 7 12 7 19c0 8 -2 13 -8 18c-5 6 -10 7 -18 7c-7 0 -13 -2 -19 -8zM529 672c-4 -4 -7 -10 -7 -18c0 -7 3 -13 8 -19c6 -5 11 -7 18 -7c8 0 14 3 19 8c6 6 7 11 7 18c0 8 -2 14 -8 19
c-5 6 -10 7 -18 7c-7 0 -13 -2 -19 -8z" />
    <glyph glyph-name="copyright" unicode="&#xa9;" horiz-adv-x="876" 
d="M660 714c-72 49 -148 63 -229 41c-39 -11 -77 -30 -113 -58c-36 -27 -66 -59 -94 -99c-56 -82 -83 -171 -82 -267c2 -107 43 -200 121 -279c60 -60 138 -90 232 -90c104 1 189 30 256 87c62 53 102 122 118 207c16 82 9 164 -21 246c-32 87 -84 158 -157 212
c-10 8 -20 8 -31 0zM551 555c7 -2 14 -1 20 3c7 4 10 10 12 16c2 7 0 14 -4 20c-4 7 -8 10 -15 12c-52 13 -97 -5 -135 -54c-30 -41 -48 -92 -53 -154c-4 -64 7 -119 35 -164c34 -54 85 -82 152 -82c7 0 13 3 18 8c6 6 8 12 8 19c0 8 -2 13 -8 18c-5 6 -11 7 -18 7
c-48 0 -84 19 -108 57c-22 36 -31 80 -27 133c4 52 18 94 42 126c24 31 51 43 81 35zM654 654c10 -8 21 -9 31 -2c52 -46 90 -102 114 -168c27 -72 33 -145 19 -218s-48 -132 -101 -177c-58 -49 -132 -74 -223 -75c-79 0 -144 25 -195 75c-68 69 -103 150 -105 243
c-1 85 23 164 73 236s109 118 178 136c74 21 144 4 209 -50z" />
    <glyph glyph-name="ordfeminine" unicode="&#xaa;" horiz-adv-x="336" 
d="M66 373c-7 1 -13 -1 -19 -6c-5 -4 -8 -9 -9 -17c0 -7 2 -13 6 -19c5 -5 10 -8 17 -9c36 -3 88 -5 156 -5h4h39c7 0 13 3 18 8c6 6 8 12 8 19c0 8 -2 13 -8 18c-5 6 -11 7 -18 7h-39h-4c-66 0 -117 2 -151 4zM182 692c2 -1 3 -2 4 -3c-2 -32 -2 -71 -2 -118v-56
c0 0 1 -1 1 -2c-4 -4 -9 -11 -15 -20c-1 -1 -3 -4 -6 -10c-9 -15 -16 -23 -21 -24c-1 0 -3 0 -6 2c-5 6 -10 16 -15 28c-11 32 -15 68 -13 110s11 73 25 91c6 7 11 11 17 12c8 1 19 -2 31 -10zM243 746c2 8 0 14 -5 20c-4 6 -9 9 -17 10c-7 2 -14 -1 -20 -6
c-6 -4 -8 -9 -9 -17c0 -2 -1 -5 -1 -8c-40 18 -72 11 -98 -23c-21 -26 -33 -67 -36 -121c-2 -48 3 -91 16 -129c8 -20 17 -36 28 -48c16 -15 35 -20 55 -16c11 3 21 9 30 18c2 -6 5 -11 9 -15c5 -4 11 -6 17 -6c7 0 13 3 18 8c6 6 8 12 8 18c0 20 0 48 -2 86v55
c-1 71 1 129 7 174z" />
    <glyph glyph-name="guillemotleft" unicode="&#xab;" horiz-adv-x="402" 
d="M256 457c4 6 5 13 2 20c-2 8 -6 12 -12 15c-6 4 -12 4 -20 2c-7 -2 -11 -6 -15 -12c-6 -12 -15 -25 -25 -41c-4 -6 -13 -19 -25 -37c-18 -27 -32 -48 -41 -64c-14 -25 -25 -48 -33 -70c-3 -10 -1 -18 5 -26c28 -58 66 -124 114 -197c4 -6 10 -9 17 -11c8 -1 13 0 19 4
s10 10 11 17c2 8 0 13 -4 19c-46 70 -83 132 -109 188c6 16 15 32 25 50c8 14 21 35 39 61c12 18 21 31 26 38c11 17 20 32 26 44zM370 452c3 7 3 14 -1 20c-3 7 -7 12 -14 14c-6 3 -13 3 -20 -1c-6 -3 -11 -7 -14 -14c0 -1 -2 -8 -8 -21c-5 -12 -10 -26 -16 -41
c-6 -14 -9 -23 -12 -29c-20 -51 -39 -90 -57 -116c-4 -6 -5 -12 -4 -20c2 -7 5 -12 11 -16c2 -1 3 -2 4 -2c20 -39 30 -59 30 -61c24 -46 44 -82 61 -108c4 -6 10 -9 17 -11c8 -1 13 0 19 4s10 10 11 17c2 8 0 13 -4 19c-16 24 -35 59 -57 103c-2 4 -8 16 -18 34
c-9 19 -13 29 -15 31c16 27 32 62 50 106c3 6 7 16 13 30s11 28 16 41c6 14 8 20 8 21z" />
    <glyph glyph-name="logicalnot" unicode="&#xac;" horiz-adv-x="570" 
d="M533 245v2v2c0 8 -2 14 -8 19c-5 6 -11 7 -18 7c-35 0 -88 2 -159 5h-12c-52 3 -93 4 -123 4c-46 1 -87 0 -124 -3c-7 0 -13 -2 -18 -8c-4 -5 -6 -11 -6 -19c1 -7 3 -13 9 -18c6 -4 12 -6 18 -6c36 2 76 3 120 2c30 0 70 -1 122 -4h12c62 -2 106 -4 134 -4
c0 -15 0 -33 -1 -54v-34c-1 -49 -2 -86 -2 -111c0 -6 3 -12 8 -18c6 -5 11 -8 18 -8c8 0 13 3 18 8c6 6 8 12 8 18c0 24 1 61 2 110v34c2 30 2 56 2 76z" />
    <glyph glyph-name="registered" unicode="&#xae;" horiz-adv-x="875" 
d="M464 373v42c0 54 2 102 4 142c16 -2 28 -7 36 -16c12 -12 18 -30 17 -54c0 -21 -6 -42 -17 -63c-10 -20 -23 -37 -40 -51zM505 340c20 18 37 40 49 66c13 26 19 53 19 79c1 39 -10 70 -32 92c-20 22 -48 33 -84 33c-2 2 -6 3 -10 3c-6 1 -12 -1 -18 -5
c-6 -1 -10 -4 -14 -10c-3 -5 -4 -11 -4 -17c0 -5 2 -10 6 -14c-3 -44 -5 -94 -5 -152c0 -24 1 -61 1 -111c2 -50 2 -87 2 -113c0 -6 3 -12 8 -18c6 -5 11 -8 18 -8c8 0 13 3 18 8c6 6 8 12 8 18c0 26 0 64 -2 114v2c3 -2 6 -5 8 -8c4 -4 8 -9 13 -15l2 -4c2 -2 5 -4 7 -7
c3 -2 4 -3 4 -5c17 -18 31 -33 41 -44c16 -16 30 -28 44 -38c6 -4 13 -5 20 -4c8 2 12 5 16 11s6 13 4 20c-1 8 -5 12 -11 16c-18 12 -43 37 -75 73c0 2 -2 4 -4 6c-2 3 -4 4 -6 6l-3 4c-5 6 -9 11 -13 15c-2 3 -5 5 -7 7zM552 734c1 0 2 -1 2 -1c12 -4 31 -9 55 -16
c26 -6 45 -12 57 -17c20 -8 37 -17 51 -28c72 -50 118 -119 136 -205c18 -79 10 -158 -22 -237c-32 -78 -82 -136 -150 -174c-73 -41 -155 -49 -245 -24c-94 28 -158 83 -191 166c-29 76 -30 160 -3 253c27 92 72 164 136 218c55 46 113 68 174 65zM620 768
c-3 6 -8 9 -16 11c-92 22 -179 -2 -259 -70c-35 -29 -66 -65 -93 -108c-26 -42 -46 -87 -60 -136c-30 -104 -29 -200 5 -286c39 -99 114 -165 224 -197c105 -29 200 -20 286 28c78 44 135 111 172 200s45 178 25 268c-22 99 -74 178 -156 237c-18 14 -40 25 -64 33
c-14 6 -34 12 -62 19c0 1 -1 1 -2 1z" />
    <glyph glyph-name="macron" unicode="&#xaf;" horiz-adv-x="450" 
d="M333 679c-7 0 -13 -3 -18 -9c-4 -5 -5 -11 -5 -19c1 -7 4 -13 9 -18c6 -4 12 -5 19 -5c21 2 53 0 95 -5h1c33 -4 58 -6 76 -6c7 0 13 3 18 8c6 6 8 12 8 19c0 8 -2 13 -8 18c-5 6 -11 7 -18 7c-16 0 -39 2 -70 6h-1c-22 3 -40 5 -52 5c-19 2 -37 1 -54 -1z" />
    <glyph glyph-name="degree" unicode="&#xb0;" horiz-adv-x="431" 
d="M393 675c20 -62 19 -109 -3 -141c-18 -26 -45 -37 -81 -35c-38 4 -66 20 -86 49c-22 34 -23 75 -3 123c11 25 31 40 61 45c31 6 58 0 82 -18l1 -1c2 0 3 -1 4 -2c2 0 3 -1 4 -3l2 -1c4 -2 6 -4 8 -6c4 -2 6 -5 8 -7c2 -1 3 -2 3 -3zM451 661c6 10 6 20 -2 28
c-8 12 -16 21 -23 27c-4 4 -8 7 -12 10c-2 2 -5 5 -9 7c-1 1 -5 3 -11 7v1c-36 26 -77 35 -123 26c-48 -8 -80 -33 -98 -75c-28 -66 -26 -123 6 -173c14 -20 32 -36 54 -49c22 -12 46 -20 71 -22c27 -2 52 1 74 11c23 10 41 25 55 45c28 40 34 92 18 157z" />
    <glyph glyph-name="plusminus" unicode="&#xb1;" horiz-adv-x="464" 
d="M155 427c-7 0 -13 -2 -19 -8c-5 -5 -7 -10 -7 -18c0 -7 3 -12 8 -18c6 -5 11 -8 18 -8c16 0 36 1 59 2h2c1 -25 1 -57 1 -96c0 -6 3 -12 8 -18c6 -5 11 -8 18 -8c8 0 13 3 18 8c6 6 8 12 8 18c0 40 0 73 -1 99c22 1 40 1 55 1c7 0 13 3 18 8c6 6 8 12 8 19
c0 8 -2 13 -8 18c-5 6 -11 7 -18 7c-16 0 -34 0 -56 -1c-1 38 -3 74 -7 108c0 8 -3 14 -9 18c-5 5 -11 6 -19 5c-7 0 -13 -3 -18 -9c-4 -5 -5 -11 -5 -19c3 -33 5 -68 6 -106h-2h-1c-22 -1 -41 -2 -57 -2zM85 181c-7 0 -13 -3 -18 -9c-4 -6 -6 -11 -6 -19c1 -7 3 -12 9 -17
c6 -4 12 -6 19 -6c35 3 77 4 125 2c17 0 41 0 73 -2c50 -2 88 -3 112 -3c7 0 13 3 18 8c6 6 8 12 8 19c0 8 -2 13 -8 18c-5 6 -11 7 -18 7c-24 0 -61 1 -111 3c-32 2 -56 2 -73 2c-50 2 -93 1 -130 -3z" />
    <glyph glyph-name="twosuperior" unicode="&#xb2;" horiz-adv-x="342" 
d="M98 681c1 -7 4 -13 9 -18c6 -4 12 -5 19 -5c8 1 14 4 18 9c5 6 6 12 5 19c0 7 5 13 14 17c13 6 25 6 37 -1c16 -8 25 -26 27 -54c6 -40 -4 -93 -28 -160c0 0 -1 -3 -3 -8c-2 -4 -2 -6 -2 -7c-2 -6 -5 -12 -7 -17c-4 -14 -9 -26 -14 -37c-15 -38 -30 -63 -44 -77
c-4 -5 -7 -11 -7 -19c0 -7 3 -12 7 -18c2 -1 3 -2 5 -3c4 -11 12 -17 24 -17h138c7 0 13 3 18 8c6 6 8 12 8 19c0 8 -2 13 -8 18c-5 6 -11 7 -18 7h-105c10 17 20 38 30 62c5 12 10 25 15 39c2 5 5 11 7 17c0 2 1 5 3 9c2 5 2 7 2 7c27 74 37 136 31 184
c-5 45 -23 76 -54 93c-27 16 -55 16 -84 2c-14 -6 -26 -16 -34 -29c-8 -12 -10 -25 -9 -40z" />
    <glyph glyph-name="threesuperior" unicode="&#xb3;" horiz-adv-x="317" 
d="M127 732c-6 -4 -10 -9 -12 -17c-2 -7 0 -13 4 -19s9 -10 16 -12c8 -2 13 0 19 3c24 15 43 19 55 13c11 -5 18 -16 20 -34c3 -21 -1 -42 -12 -62c-11 -22 -28 -36 -51 -44c-6 -2 -11 -6 -15 -13c-3 -6 -3 -13 -1 -20c3 -8 9 -13 17 -16c4 -5 9 -8 15 -9
c38 -6 61 -21 69 -44c7 -20 3 -42 -11 -66c-13 -22 -28 -35 -44 -38c-5 0 -10 1 -14 3c-6 6 -12 15 -17 29c-2 7 -6 12 -13 15c-6 4 -12 4 -20 1c-7 -2 -11 -6 -15 -13c-3 -6 -3 -13 -1 -20c8 -24 20 -41 35 -53c16 -12 33 -16 53 -13c32 5 59 26 81 63c22 38 27 75 15 109
c-10 30 -32 52 -66 66c12 12 21 24 29 38c16 30 22 62 17 94c-4 36 -20 61 -48 74c-30 15 -65 10 -105 -15z" />
    <glyph glyph-name="acute" unicode="&#xb4;" horiz-adv-x="478" 
d="M667 697c6 6 8 12 8 19c0 8 -2 13 -8 18c-5 6 -11 7 -19 7c-7 0 -12 -2 -18 -7c-20 -20 -45 -53 -73 -97c0 0 -1 -2 -3 -4c-1 -2 -2 -3 -4 -5l-1 -3c-6 -8 -10 -15 -14 -21s-5 -12 -4 -20c2 -7 5 -12 11 -16s13 -5 20 -4c8 2 12 5 16 11s9 13 14 22l4 5c2 4 4 6 4 7
c27 41 49 70 67 88z" />
    <glyph glyph-name="mu" unicode="&#xb5;" horiz-adv-x="416" 
d="M178 109c-3 8 -8 13 -15 15c0 22 -1 47 -3 76c-1 26 -2 46 -3 59c-4 103 -7 186 -7 250c0 8 -2 14 -8 19c-5 6 -11 7 -19 7c-7 0 -12 -2 -18 -8c-5 -5 -7 -10 -7 -18c0 -64 3 -148 7 -252c1 -13 2 -33 3 -60c7 -138 10 -241 10 -310c0 -6 3 -12 8 -18c6 -5 11 -8 18 -8
c8 0 13 3 18 8c6 6 8 12 8 18c0 46 -1 93 -3 141c20 -21 42 -35 67 -43c30 -9 57 -5 80 13c18 14 33 37 45 68c18 46 30 113 34 200c3 53 4 118 2 195c0 2 0 7 -1 16v16v22c0 8 -2 14 -8 19c-5 6 -11 7 -19 7c-7 0 -12 -2 -18 -8c-5 -5 -7 -10 -7 -18v-23c0 -2 1 -7 1 -17
c1 -9 0 -13 0 -15c2 -76 1 -139 -2 -191c-4 -82 -14 -143 -30 -185c-8 -22 -18 -37 -29 -45c-9 -6 -20 -8 -33 -5c-30 10 -54 35 -71 75z" />
    <glyph glyph-name="paragraph" unicode="&#xb6;" horiz-adv-x="482" 
d="M249 419c-32 4 -57 18 -75 41c-21 28 -30 61 -28 101c3 42 17 77 43 107c17 20 37 34 61 44c0 -28 0 -74 -1 -136v-157zM421 710c6 -4 13 -5 20 -4c8 2 12 5 16 11s6 13 4 20c-1 8 -5 12 -11 16c-14 10 -28 17 -43 21c-16 5 -34 7 -54 7c-11 0 -29 -1 -54 -4
c-61 -6 -111 -30 -149 -74c-34 -39 -52 -85 -56 -139c-3 -52 10 -97 39 -135c29 -36 68 -57 116 -62c0 -94 2 -177 5 -251c1 -15 2 -34 2 -56c1 -4 1 -9 1 -15l1 -15c3 -48 5 -89 6 -125c0 -7 3 -13 8 -19c6 -5 11 -6 18 -6c8 1 14 3 19 8c6 6 7 11 7 18c-1 36 -3 79 -6 127
c0 2 0 7 -1 15c0 6 0 11 -1 15c-1 22 -2 40 -2 56c-3 82 -5 178 -5 289v168c1 67 1 117 1 149c1 0 2 1 2 1c17 2 29 3 35 3c10 -117 15 -254 17 -411c2 -70 2 -176 2 -317v-82c0 -6 3 -12 8 -18c6 -5 11 -8 18 -8c8 0 13 3 18 8c6 6 8 12 8 18v82c0 141 0 247 -2 318
c-2 154 -7 289 -16 405c10 -3 20 -8 29 -14z" />
    <glyph glyph-name="periodcentered" unicode="&#xb7;" horiz-adv-x="202" 
d="M169 399c-4 -4 -7 -10 -7 -18c0 -7 3 -12 8 -18c6 -5 11 -8 18 -8c8 0 13 3 18 8c6 6 8 12 8 19c0 8 -2 13 -8 18c-5 6 -11 7 -19 7c-7 0 -12 -2 -18 -8z" />
    <glyph glyph-name="cedilla" unicode="&#xb8;" horiz-adv-x="436" 
d="M624 -78c2 7 0 13 -4 19s-8 10 -16 12c-7 2 -13 0 -19 -4s-10 -8 -12 -16c-3 -15 -13 -37 -29 -65l-1 -2c-14 -25 -24 -45 -29 -60c-2 -7 -1 -14 2 -21c4 -6 8 -10 15 -13c8 -2 14 -1 20 2c7 4 10 9 12 15c4 12 13 29 25 51c0 1 1 2 1 2c10 16 16 29 20 37
c7 15 12 29 15 43z" />
    <glyph glyph-name="onesuperior" unicode="&#xb9;" horiz-adv-x="296" 
d="M151 329c-7 0 -13 -2 -19 -8c-5 -5 -7 -10 -7 -18c0 -7 3 -12 8 -18c6 -5 11 -8 18 -8h26c10 0 18 -1 23 -1c26 0 48 2 65 6c7 2 12 6 16 12s4 13 2 20c-2 8 -5 12 -11 16s-12 5 -20 3c-3 -1 -7 -2 -11 -3v397c0 8 -2 14 -7 19c-4 6 -10 7 -17 7c-12 8 -23 7 -33 -3
c-6 -6 -15 -14 -29 -25l-1 -1l-1 -1c-12 -9 -22 -16 -28 -22c-5 -5 -8 -11 -9 -19c0 -7 3 -12 8 -18c6 -5 11 -8 18 -9c8 0 13 3 18 7c6 5 14 12 24 20c1 0 2 1 2 1l1 1c1 1 2 1 2 1v-356h-10h-28z" />
    <glyph glyph-name="ordmasculine" unicode="&#xba;" horiz-adv-x="346" 
d="M215 739c-32 13 -59 5 -82 -25c-16 -22 -26 -53 -32 -95c-4 -37 -3 -73 3 -107c9 -41 25 -68 47 -81c17 -9 33 -12 49 -9c16 4 30 13 42 27c18 22 30 53 36 94c6 38 6 74 0 108c-6 42 -20 70 -42 84c-6 5 -13 6 -21 4zM199 689c5 -2 10 -3 14 -3c6 -9 11 -23 14 -43
c5 -28 5 -59 -1 -92c-5 -32 -13 -55 -25 -69c-7 -9 -15 -11 -25 -6c-8 6 -15 21 -21 46c-5 29 -6 59 -2 91s12 56 22 70c7 9 15 11 24 6zM100 369c-7 0 -13 -4 -18 -10c-4 -6 -5 -11 -4 -19c2 -7 4 -13 10 -18c6 -4 12 -5 19 -4c69 9 130 13 183 13c7 0 13 3 18 8
c6 6 8 12 8 19c0 8 -2 13 -8 18c-5 6 -11 7 -18 7c-55 0 -118 -4 -190 -14z" />
    <glyph glyph-name="guillemotright" unicode="&#xbb;" horiz-adv-x="398" 
d="M225 251c2 6 1 12 -3 18c-3 6 -7 11 -13 13c-10 16 -24 39 -42 69c0 1 -1 2 -2 3c0 2 -1 3 -2 3c-1 3 -2 5 -3 6c-24 42 -43 73 -59 94c-4 6 -10 10 -18 11c-7 2 -13 -1 -19 -6c-6 -4 -8 -9 -10 -17c-1 -7 1 -13 5 -19c15 -20 34 -49 56 -89c1 -1 2 -3 3 -6c1 0 2 0 2 -1
c1 0 0 -1 0 -2c1 0 2 -1 2 -3c19 -31 34 -55 44 -72c2 -1 3 -2 4 -4c-3 -8 -7 -18 -13 -28c-5 -10 -12 -24 -24 -44c0 0 0 -1 -1 -3c0 -1 -1 -1 -1 -2c-20 -34 -33 -62 -40 -82c-2 -7 -1 -14 2 -21c4 -6 8 -10 15 -13c8 -2 14 -1 20 2c7 4 10 9 12 15c6 18 18 42 36 73
c1 1 1 2 1 3c1 0 2 1 2 2c12 21 20 37 25 47c10 19 17 37 21 53zM354 250c5 14 2 24 -10 31c0 5 -2 9 -5 13c-15 23 -35 59 -61 107c0 2 -1 3 -2 3c0 2 -1 3 -1 3c-16 32 -29 56 -39 72c-3 6 -8 10 -16 12c-7 2 -13 1 -20 -3c-6 -3 -10 -8 -12 -16c-2 -7 0 -13 3 -20
c10 -15 22 -38 38 -69c0 0 1 -1 1 -3c1 0 2 -1 2 -3c27 -50 48 -88 64 -112l6 -6c-25 -63 -52 -116 -80 -159c-4 -6 -5 -12 -4 -20c2 -7 5 -12 11 -16s13 -5 20 -4c8 2 12 5 16 11c33 50 63 109 89 179z" />
    <glyph glyph-name="onequarter" unicode="&#xbc;" horiz-adv-x="716" 
d="M213 718c2 8 0 14 -4 20s-9 10 -17 11c-7 2 -13 0 -19 -4c-10 -6 -24 -17 -42 -31v-1c-12 -9 -21 -16 -27 -21c-5 -4 -8 -9 -10 -17c-1 -7 1 -13 5 -19c5 -6 10 -9 17 -11c8 -1 13 2 19 6c7 5 16 12 28 22h1l1 1c2 1 2 2 2 2c6 -41 8 -92 8 -154c0 -20 0 -51 -1 -92v-79
c-5 0 -10 -1 -16 -2c-7 0 -13 -4 -18 -10c-4 -6 -5 -12 -4 -20c2 -7 4 -12 10 -17c6 -4 13 -5 19 -4c18 2 43 3 75 3c7 0 13 3 18 8c6 6 8 12 8 19c0 8 -2 13 -8 18c-5 6 -11 7 -18 7h-14v76c1 41 1 72 1 94c0 80 -4 145 -14 195zM183 23c-4 -6 -6 -12 -5 -20
c2 -7 4 -12 10 -17c6 -4 13 -5 20 -4c8 2 12 4 16 10c18 24 45 70 81 139c18 34 54 104 106 208c2 4 4 8 6 11c55 109 96 187 122 234c19 34 35 60 47 78c6 9 12 16 16 21c2 2 4 4 5 4c6 2 11 7 14 13c4 6 4 13 1 20c-2 8 -6 12 -13 15c-6 4 -12 4 -20 1
c-12 -4 -28 -19 -46 -45c-13 -19 -30 -46 -50 -81c-26 -48 -67 -127 -123 -236c-1 -3 -3 -7 -5 -12c-52 -104 -88 -173 -106 -207c-35 -66 -60 -110 -76 -132zM649 399c1 8 -1 14 -6 20c-4 6 -10 9 -18 9c-7 1 -12 -2 -18 -7c-5 -4 -8 -10 -9 -17c-4 -54 -6 -121 -6 -202
v-32c-4 0 -11 0 -22 -1h-3c6 30 8 69 6 117c0 11 0 26 -2 45c-2 34 -3 58 -3 72c0 8 -2 14 -8 19c-5 6 -11 7 -19 7c-7 0 -12 -2 -18 -8c-5 -5 -7 -10 -7 -18c0 -14 1 -40 3 -76c2 -18 2 -33 2 -43c3 -55 0 -96 -10 -124c-4 -14 0 -24 12 -31c6 -10 14 -14 24 -13
c6 0 15 1 26 1c10 1 16 1 20 1c1 -40 1 -71 1 -93c0 -6 3 -12 8 -18c6 -5 11 -8 18 -8c8 0 13 3 18 8c6 6 8 12 8 18c0 23 0 56 -1 98c12 2 22 5 31 8c7 2 12 7 15 13c4 7 4 13 1 20c-2 8 -6 12 -13 15c-6 4 -12 4 -20 1c-4 -1 -9 -2 -15 -4v26c0 80 1 145 5 197z" />
    <glyph glyph-name="onehalf" unicode="&#xbd;" horiz-adv-x="704" 
d="M216 729c-2 12 -9 18 -21 20c-7 5 -15 6 -23 3c-14 -4 -30 -14 -47 -29l-17 -16c-3 -2 -6 -5 -9 -7c-6 -4 -9 -9 -11 -17c-1 -7 2 -13 6 -19c5 -6 10 -9 17 -11c8 -1 14 2 19 6l12 9c3 3 9 8 18 16c4 4 7 6 10 8c3 -21 4 -45 4 -71c0 -28 -2 -62 -6 -104
c0 -10 -2 -24 -4 -44c-7 -67 -11 -116 -11 -147c-1 0 -2 -1 -4 -1c-6 -1 -12 -5 -16 -11s-5 -12 -4 -20c2 -7 5 -12 11 -16s13 -5 20 -4c3 1 7 2 13 3c32 7 56 10 72 10c7 0 13 3 18 8c6 6 8 12 8 19c0 8 -2 13 -8 18c-5 6 -11 7 -18 7c-12 0 -26 -1 -40 -3
c0 27 4 71 10 131c2 20 4 35 5 45c4 43 6 79 6 109c0 40 -3 76 -10 108zM496 353c-3 -6 -4 -13 -2 -21c2 -7 6 -11 12 -15c7 -3 13 -4 20 -2c8 2 12 5 15 11c11 18 22 31 34 37c9 5 17 6 24 3c8 -3 15 -10 20 -20c7 -14 10 -31 8 -51c-2 -33 -19 -77 -50 -131
c-28 -49 -57 -88 -87 -118c-4 -4 -7 -10 -8 -18c0 -7 3 -12 7 -17c1 -6 4 -12 9 -17c6 -4 11 -7 17 -7c4 0 9 1 14 1c11 0 27 1 47 3c26 2 45 2 57 2c7 0 13 3 18 8c6 6 8 12 8 19c0 8 -2 13 -8 18c-5 6 -11 7 -18 7c-14 0 -34 -1 -61 -3c-6 0 -12 0 -16 -1
c24 30 46 62 66 97c36 62 55 113 57 154c2 32 -4 59 -17 81c-12 23 -27 37 -46 43c-18 7 -39 5 -62 -6c-22 -10 -41 -29 -58 -57zM181 31c-2 -6 -3 -13 -1 -20c2 -6 7 -11 13 -15c7 -3 14 -3 20 -1c7 3 12 7 15 13c17 34 46 82 86 144c1 1 3 3 5 7c38 58 66 103 83 134
c18 34 42 83 74 149l1 2c1 1 2 2 2 3l1 2c2 3 3 5 3 7c30 61 54 108 71 140c27 51 53 95 78 133c4 6 6 13 4 20c-1 8 -5 12 -11 16s-12 6 -20 4c-7 -1 -12 -5 -16 -11c-26 -39 -53 -85 -81 -137c-17 -33 -41 -80 -72 -142c0 -2 -1 -5 -3 -7c0 0 0 -1 -1 -3c0 -1 -1 -1 -2 -3
c0 -1 0 -1 -1 -2c-31 -64 -55 -113 -73 -146c-16 -30 -43 -74 -80 -131c-2 -3 -4 -5 -5 -7c-42 -63 -72 -113 -90 -149z" />
    <glyph glyph-name="threequarters" unicode="&#xbe;" horiz-adv-x="736" 
d="M74 719c-6 -4 -9 -10 -10 -18c0 -7 3 -13 7 -19c5 -6 11 -8 18 -9c8 0 13 3 18 7c26 22 48 30 67 26c16 -3 28 -13 35 -30c8 -18 7 -37 -2 -56c-10 -22 -29 -38 -59 -48c-6 -2 -11 -6 -15 -13c-3 -6 -3 -13 -1 -20c2 -6 6 -10 11 -14c6 -3 11 -4 17 -3c1 0 2 -1 2 -1
c20 -7 35 -23 45 -47c10 -22 13 -46 8 -72c-3 -23 -11 -39 -24 -47c-12 -8 -29 -5 -51 7c-8 5 -11 10 -10 16c2 8 0 14 -4 20s-9 10 -17 11c-7 2 -13 0 -19 -4s-9 -9 -11 -16c-6 -30 6 -54 34 -72c40 -24 76 -26 106 -6c26 16 42 44 48 82c6 36 2 70 -12 102
c-9 22 -22 40 -40 54c18 14 32 31 40 50c15 33 15 65 1 97c-14 34 -38 55 -72 61c-36 8 -72 -5 -110 -38zM665 421c0 8 -2 14 -8 19c-5 6 -11 7 -19 7c-7 0 -12 -2 -18 -8c-5 -5 -7 -10 -7 -18c0 -44 -2 -112 -7 -202c0 -5 -1 -9 -1 -12c-1 -20 -2 -37 -3 -52
c-12 0 -25 -1 -38 -2c7 29 11 66 13 111c0 9 1 22 1 40c1 30 2 52 3 66c0 7 -2 13 -7 19c-4 6 -10 9 -18 9c-7 1 -13 -2 -19 -7c-6 -4 -8 -10 -8 -18c-1 -14 -2 -37 -3 -68c0 -17 -1 -30 -1 -39c-2 -54 -9 -97 -19 -128c-2 -8 -2 -15 2 -22c5 -12 14 -17 26 -16
c22 2 44 3 66 3c0 -31 -1 -61 -1 -90c0 -6 3 -12 8 -18c6 -5 11 -8 18 -8c8 0 13 3 18 8c6 6 8 12 8 18c0 29 1 59 1 90h21s13 3 18 8c6 6 8 12 8 19c0 8 -2 13 -8 18c-5 6 -11 7 -18 7h-18c1 15 2 32 2 50c0 2 1 6 1 11c5 92 7 160 7 205zM173 -10c0 -7 2 -13 6 -19
c5 -5 10 -8 17 -9c8 0 14 2 19 6c6 5 9 10 9 17c7 68 50 182 129 344c15 30 31 61 47 93c24 46 51 98 82 154c6 10 18 32 36 65c19 34 28 51 29 54c2 2 3 5 5 9v1c12 5 17 13 17 24c0 8 -2 14 -8 19c-5 6 -11 7 -18 7c-12 0 -22 -4 -30 -14c-3 -4 -6 -9 -9 -17
c-1 -2 -2 -3 -2 -4c-2 -3 -12 -21 -30 -55c-18 -33 -29 -54 -35 -64c-31 -57 -59 -109 -83 -155c-17 -32 -33 -64 -48 -94c-82 -168 -126 -288 -133 -362z" />
    <glyph glyph-name="questiondown" unicode="&#xbf;" horiz-adv-x="366" 
d="M252 162c8 1 14 4 18 9c5 6 6 12 5 19c0 4 -1 8 -3 11c3 19 4 42 2 69c0 13 -2 29 -4 48v6c0 3 0 4 -1 6v4c0 6 -1 10 -2 14c0 8 -3 14 -9 18c-5 5 -11 6 -19 5c-7 0 -13 -3 -18 -9c-4 -5 -5 -11 -5 -19c0 -4 1 -8 1 -14c0 0 1 -2 1 -4c1 -2 1 -4 1 -7c1 -2 0 -3 0 -5
c2 -18 3 -34 3 -46c2 -24 1 -43 -2 -58c-42 -11 -74 -37 -97 -77c-22 -41 -31 -89 -27 -143c6 -54 23 -96 53 -127c37 -37 81 -46 132 -27c15 6 30 18 44 36c16 20 23 38 23 54c0 8 -2 14 -8 19c-5 6 -11 7 -19 7c-7 0 -12 -2 -18 -8c-5 -5 -7 -10 -7 -18c0 0 -1 -1 -1 -2
s0 -3 -2 -5c-2 -4 -5 -9 -9 -15c-8 -10 -16 -17 -22 -19c-30 -12 -55 -7 -76 14c-21 22 -34 54 -38 96c-4 44 3 81 21 113c19 34 47 52 83 55zM227 515c-4 -4 -7 -10 -7 -18c0 -7 3 -12 8 -18c6 -5 11 -8 18 -8c8 0 13 3 18 8c6 6 8 12 8 19c0 8 -2 13 -8 18
c-5 6 -11 7 -19 7c-7 0 -12 -2 -18 -8z" />
    <glyph glyph-name="Agrave" unicode="&#xc0;" 
d="M163 637c10 -58 27 -147 50 -269c12 -59 20 -102 25 -129c-51 -1 -107 -4 -168 -8c8 36 22 94 40 173c18 73 30 128 38 164c6 25 11 48 15 69zM126 950c-5 4 -11 6 -19 5c-7 0 -13 -3 -18 -9c-4 -5 -5 -11 -5 -19c1 -7 4 -13 9 -18c2 -1 9 -6 20 -15c12 -8 17 -14 19 -16
c24 -18 40 -34 48 -46c1 -1 2 -2 2 -3c4 -6 10 -9 17 -11c8 -1 13 0 19 4s10 10 11 17c2 8 0 13 -4 19c0 2 -1 3 -3 4c-11 16 -30 35 -57 57c-2 2 -9 7 -20 15c-10 9 -17 14 -19 16zM198 748c0 7 -3 13 -9 17c-5 5 -11 6 -18 5c-4 3 -8 5 -12 5c-6 1 -13 -1 -19 -6
c-6 -4 -9 -9 -10 -16c-7 -51 -18 -109 -32 -174c-8 -36 -20 -90 -38 -163c-21 -86 -36 -149 -44 -189c-17 -1 -35 -2 -54 -4c-7 0 -13 -4 -18 -10c-4 -6 -6 -11 -6 -19c1 -7 4 -12 9 -17c6 -4 12 -6 19 -6c14 1 27 2 39 3c-9 -46 -21 -95 -36 -145c-2 -7 -1 -14 2 -21
c4 -6 9 -10 16 -12c8 -2 14 -1 20 3c7 4 10 9 12 15c16 54 29 107 39 158c0 2 1 4 1 6c70 5 132 8 188 10c5 -23 11 -50 18 -82c3 -12 6 -25 10 -40c4 -14 9 -35 15 -63c2 -7 7 -13 13 -17c7 -4 13 -4 19 -2c7 2 12 6 16 12s5 13 3 19c-7 29 -12 50 -16 64
c-3 14 -6 27 -9 39c-6 27 -12 51 -16 71h36c7 0 13 3 18 8c6 6 8 11 8 18c0 8 -2 14 -8 19c-5 6 -11 7 -18 7h-46c-4 28 -13 73 -26 136c-32 165 -54 289 -66 371z" />
    <glyph glyph-name="Aacute" unicode="&#xc1;" 
d="M163 637c10 -58 27 -147 50 -269c12 -59 20 -102 25 -129c-51 -1 -107 -4 -168 -8c8 36 22 94 40 173c18 73 30 128 38 164c6 25 11 48 15 69zM198 748c0 7 -3 13 -9 17c-5 5 -11 6 -18 5c-4 3 -8 5 -12 5c-6 1 -13 -1 -19 -6c-6 -4 -9 -9 -10 -16
c-7 -51 -18 -109 -32 -174c-8 -36 -20 -90 -38 -163c-21 -86 -36 -149 -44 -189c-17 -1 -35 -2 -54 -4c-7 0 -13 -4 -18 -10c-4 -6 -6 -11 -6 -19c1 -7 4 -12 9 -17c6 -4 12 -6 19 -6c14 1 27 2 39 3c-9 -46 -21 -95 -36 -145c-2 -7 -1 -14 2 -21c4 -6 9 -10 16 -12
c8 -2 14 -1 20 3c7 4 10 9 12 15c16 54 29 107 39 158c0 2 1 4 1 6c70 5 132 8 188 10c5 -23 11 -50 18 -82c3 -12 6 -25 10 -40c4 -14 9 -35 15 -63c2 -7 7 -13 13 -17c7 -4 13 -4 19 -2c7 2 12 6 16 12s5 13 3 19c-7 29 -12 50 -16 64c-3 14 -6 27 -9 39
c-6 27 -12 51 -16 71h36c7 0 13 3 18 8c6 6 8 11 8 18c0 8 -2 14 -8 19c-5 6 -11 7 -18 7h-46c-4 28 -13 73 -26 136c-32 165 -54 289 -66 371zM147 880c-4 -5 -7 -11 -7 -19c0 -7 3 -12 8 -18c6 -5 11 -8 18 -8c8 0 13 3 18 8c18 18 33 33 45 43c18 14 34 25 48 32
c7 4 12 9 14 15c3 7 2 14 -2 20c-3 7 -8 12 -15 14c-6 3 -13 2 -20 -2c-18 -9 -38 -22 -58 -40c-13 -10 -29 -25 -49 -45z" />
    <glyph glyph-name="Acircumflex" unicode="&#xc2;" 
d="M163 637c10 -58 27 -147 50 -269c12 -59 20 -102 25 -129c-51 -1 -107 -4 -168 -8c8 36 22 94 40 173c18 73 30 128 38 164c6 25 11 48 15 69zM198 748c0 7 -3 13 -9 17c-5 5 -11 6 -18 5c-4 3 -8 5 -12 5c-6 1 -13 -1 -19 -6c-6 -4 -9 -9 -10 -16
c-7 -51 -18 -109 -32 -174c-8 -36 -20 -90 -38 -163c-21 -86 -36 -149 -44 -189c-17 -1 -35 -2 -54 -4c-7 0 -13 -4 -18 -10c-4 -6 -6 -11 -6 -19c1 -7 4 -12 9 -17c6 -4 12 -6 19 -6c14 1 27 2 39 3c-9 -46 -21 -95 -36 -145c-2 -7 -1 -14 2 -21c4 -6 9 -10 16 -12
c8 -2 14 -1 20 3c7 4 10 9 12 15c16 54 29 107 39 158c0 2 1 4 1 6c70 5 132 8 188 10c5 -23 11 -50 18 -82c3 -12 6 -25 10 -40c4 -14 9 -35 15 -63c2 -7 7 -13 13 -17c7 -4 13 -4 19 -2c7 2 12 6 16 12s5 13 3 19c-7 29 -12 50 -16 64c-3 14 -6 27 -9 39
c-6 27 -12 51 -16 71h36c7 0 13 3 18 8c6 6 8 11 8 18c0 8 -2 14 -8 19c-5 6 -11 7 -18 7h-46c-4 28 -13 73 -26 136c-32 165 -54 289 -66 371zM57 858c-4 -5 -7 -11 -7 -19c0 -7 3 -12 8 -18c6 -5 11 -8 18 -8c8 0 13 3 18 8c13 13 26 27 39 41c1 1 3 4 7 8c4 5 8 9 12 13
c4 5 7 7 8 9c8 8 13 13 17 15l2 2h1c4 -2 9 -6 15 -12c5 -5 14 -14 26 -27c18 -18 31 -31 40 -41c6 -5 12 -8 19 -8c8 0 13 3 18 8c6 6 8 12 8 19c0 8 -2 13 -8 18c-9 10 -22 23 -39 40c-13 14 -23 23 -29 29c-9 9 -17 15 -25 19c-10 6 -21 9 -31 7c-10 0 -19 -4 -29 -12
c-6 -4 -13 -12 -23 -22c-1 -1 -4 -4 -8 -9c-4 -4 -8 -9 -12 -14l-7 -7c-13 -14 -26 -27 -38 -39z" />
    <glyph glyph-name="Atilde" unicode="&#xc3;" 
d="M163 637c10 -58 27 -147 50 -269c12 -59 20 -102 25 -129c-51 -1 -107 -4 -168 -8c8 36 22 94 40 173c18 73 30 128 38 164c6 25 11 48 15 69zM198 748c0 7 -3 13 -9 17c-5 5 -11 6 -18 5c-4 3 -8 5 -12 5c-6 1 -13 -1 -19 -6c-6 -4 -9 -9 -10 -16
c-7 -51 -18 -109 -32 -174c-8 -36 -20 -90 -38 -163c-21 -86 -36 -149 -44 -189c-17 -1 -35 -2 -54 -4c-7 0 -13 -4 -18 -10c-4 -6 -6 -11 -6 -19c1 -7 4 -12 9 -17c6 -4 12 -6 19 -6c14 1 27 2 39 3c-9 -46 -21 -95 -36 -145c-2 -7 -1 -14 2 -21c4 -6 9 -10 16 -12
c8 -2 14 -1 20 3c7 4 10 9 12 15c16 54 29 107 39 158c0 2 1 4 1 6c70 5 132 8 188 10c5 -23 11 -50 18 -82c3 -12 6 -25 10 -40c4 -14 9 -35 15 -63c2 -7 7 -13 13 -17c7 -4 13 -4 19 -2c7 2 12 6 16 12s5 13 3 19c-7 29 -12 50 -16 64c-3 14 -6 27 -9 39
c-6 27 -12 51 -16 71h36c7 0 13 3 18 8c6 6 8 11 8 18c0 8 -2 14 -8 19c-5 6 -11 7 -18 7h-46c-4 28 -13 73 -26 136c-32 165 -54 289 -66 371zM67 831c3 -7 8 -12 14 -16c7 -3 13 -2 20 0c8 3 12 8 15 14c4 7 3 13 0 19c0 3 -1 6 -3 9l-1 2c0 2 -1 3 -2 3h1c4 5 7 8 9 8
c4 0 8 -1 14 -5c6 -3 15 -8 26 -16l5 -5c4 -2 7 -4 8 -5c6 -4 10 -7 13 -9c13 -8 25 -12 35 -12c18 0 30 9 38 27c5 12 7 28 7 50c0 8 -2 14 -8 19c-5 6 -11 7 -19 7c-7 0 -12 -2 -18 -8c-5 -5 -7 -10 -7 -18s0 -14 -1 -20c-2 2 -5 4 -9 6c-1 1 -4 3 -8 5c-4 3 -5 5 -5 5
c-13 10 -24 17 -34 21c-16 8 -30 11 -44 9c-18 -2 -33 -11 -45 -28c-7 -11 -10 -22 -10 -33c0 -4 2 -10 4 -17c1 0 2 -2 2 -5l1 -1c1 -2 2 -4 2 -6z" />
    <glyph glyph-name="Adieresis" unicode="&#xc4;" 
d="M163 637c10 -58 27 -147 50 -269c12 -59 20 -102 25 -129c-51 -1 -107 -4 -168 -8c8 36 22 94 40 173c18 73 30 128 38 164c6 25 11 48 15 69zM198 748c0 7 -3 13 -9 17c-5 5 -11 6 -18 5c-4 3 -8 5 -12 5c-6 1 -13 -1 -19 -6c-6 -4 -9 -9 -10 -16
c-7 -51 -18 -109 -32 -174c-8 -36 -20 -90 -38 -163c-21 -86 -36 -149 -44 -189c-17 -1 -35 -2 -54 -4c-7 0 -13 -4 -18 -10c-4 -6 -6 -11 -6 -19c1 -7 4 -12 9 -17c6 -4 12 -6 19 -6c14 1 27 2 39 3c-9 -46 -21 -95 -36 -145c-2 -7 -1 -14 2 -21c4 -6 9 -10 16 -12
c8 -2 14 -1 20 3c7 4 10 9 12 15c16 54 29 107 39 158c0 2 1 4 1 6c70 5 132 8 188 10c5 -23 11 -50 18 -82c3 -12 6 -25 10 -40c4 -14 9 -35 15 -63c2 -7 7 -13 13 -17c7 -4 13 -4 19 -2c7 2 12 6 16 12s5 13 3 19c-7 29 -12 50 -16 64c-3 14 -6 27 -9 39
c-6 27 -12 51 -16 71h36c7 0 13 3 18 8c6 6 8 11 8 18c0 8 -2 14 -8 19c-5 6 -11 7 -18 7h-46c-4 28 -13 73 -26 136c-32 165 -54 289 -66 371zM71 895c-4 -4 -7 -10 -7 -18c0 -7 3 -12 8 -18c6 -5 11 -8 18 -8c8 0 13 3 18 8c6 6 8 12 8 19c0 8 -2 13 -8 18
c-5 6 -11 7 -19 7c-7 0 -12 -2 -18 -8zM247 887c-4 -4 -7 -10 -7 -18c0 -7 3 -12 8 -18c6 -5 11 -8 18 -8c8 0 13 3 18 8c6 6 8 12 8 19c0 8 -2 13 -8 18c-5 6 -11 7 -19 7c-7 0 -12 -2 -18 -8z" />
    <glyph glyph-name="Aring" unicode="&#xc5;" 
d="M163 637c10 -58 27 -147 50 -269c12 -59 20 -102 25 -129c-51 -1 -107 -4 -168 -8c8 36 22 94 40 173c18 73 30 128 38 164c6 25 11 48 15 69zM214 967c-11 8 -22 14 -32 16c-17 5 -32 2 -46 -8c-19 -14 -28 -39 -27 -74c1 -31 9 -56 24 -75c12 -12 25 -19 39 -19
c16 0 30 6 44 20c19 19 30 39 33 60c3 14 3 26 0 36c-2 10 -7 21 -16 33c-4 7 -11 11 -19 11zM198 748c0 7 -3 13 -9 17c-5 5 -11 6 -18 5c-4 3 -8 5 -12 5c-6 1 -13 -1 -19 -6c-6 -4 -9 -9 -10 -16c-7 -51 -18 -109 -32 -174c-8 -36 -20 -90 -38 -163
c-21 -86 -36 -149 -44 -189c-17 -1 -35 -2 -54 -4c-7 0 -13 -4 -18 -10c-4 -6 -6 -11 -6 -19c1 -7 4 -12 9 -17c6 -4 12 -6 19 -6c14 1 27 2 39 3c-9 -46 -21 -95 -36 -145c-2 -7 -1 -14 2 -21c4 -6 9 -10 16 -12c8 -2 14 -1 20 3c7 4 10 9 12 15c16 54 29 107 39 158
c0 2 1 4 1 6c70 5 132 8 188 10c5 -23 11 -50 18 -82c3 -12 6 -25 10 -40c4 -14 9 -35 15 -63c2 -7 7 -13 13 -17c7 -4 13 -4 19 -2c7 2 12 6 16 12s5 13 3 19c-7 29 -12 50 -16 64c-3 14 -6 27 -9 39c-6 27 -12 51 -16 71h36c7 0 13 3 18 8c6 6 8 11 8 18c0 8 -2 14 -8 19
c-5 6 -11 7 -18 7h-46c-4 28 -13 73 -26 136c-32 165 -54 289 -66 371zM194 916c2 0 3 -1 4 -3c2 -3 2 -9 0 -17c-2 -10 -8 -21 -19 -32l-5 -5l-1 1c-7 9 -11 23 -12 42c0 10 0 18 2 24l3 6c0 1 1 1 1 1h2c7 -2 15 -7 25 -17z" />
    <glyph glyph-name="AE" unicode="&#xc6;" horiz-adv-x="634" 
d="M77 229c8 37 22 95 41 175c18 73 30 128 38 164c6 25 11 48 15 69c10 -58 27 -147 50 -269c12 -60 21 -104 25 -131c-51 -2 -107 -4 -169 -8zM192 777c-6 1 -12 0 -18 -4c-2 1 -4 2 -7 2c-6 1 -13 -1 -19 -6c-6 -4 -9 -9 -10 -16c-7 -51 -18 -109 -32 -174
c-8 -36 -20 -90 -38 -163c-21 -87 -36 -151 -44 -191c-14 0 -30 -1 -46 -2c-7 0 -13 -3 -18 -9c-4 -5 -6 -11 -6 -19c1 -7 4 -13 9 -18c6 -4 12 -6 19 -6c11 1 21 2 31 2c-9 -46 -21 -94 -36 -144c-2 -7 -1 -14 2 -21c4 -6 9 -10 16 -12c8 -2 14 -1 20 3c7 4 10 9 12 15
c16 54 29 107 39 158c0 2 1 3 1 4c69 4 132 7 189 9c5 -22 11 -49 17 -79c3 -12 6 -25 10 -40c4 -13 8 -30 13 -52c-4 -6 -5 -12 -4 -19c2 -6 5 -12 11 -17c6 -4 12 -5 19 -4c27 5 62 7 105 5h33c25 -1 44 -2 56 -2c7 0 13 3 18 8c6 6 8 12 8 19c0 8 -2 13 -8 18
c-5 6 -11 7 -18 7c-12 0 -30 1 -55 2h-33c-32 1 -60 0 -83 -2c-4 20 -8 37 -12 50c-3 14 -6 27 -9 39c-6 26 -11 49 -15 69c53 2 105 2 155 2c8 0 14 3 19 8c6 6 7 11 7 18c0 8 -2 14 -8 19c-5 6 -10 7 -18 7c-54 0 -109 -1 -165 -3c-5 29 -14 75 -27 139
c-30 156 -50 272 -62 347c24 -1 54 -2 90 -2c8 0 20 1 36 1h58c7 0 13 3 18 8c6 6 8 12 8 19c0 8 -2 13 -8 18c-5 6 -11 7 -18 7h-59c-16 0 -27 -1 -35 -1c-44 0 -80 1 -108 3z" />
    <glyph glyph-name="Ccedilla" unicode="&#xc7;" horiz-adv-x="454" 
d="M358 -91c3 7 3 14 -1 20c-3 7 -7 11 -15 13c-7 3 -13 3 -20 -1c-6 -3 -10 -8 -13 -15c-16 -46 -33 -78 -50 -94c-4 -5 -7 -11 -7 -19c0 -7 3 -12 8 -18c6 -5 11 -8 18 -8c8 0 13 3 18 8c13 13 25 32 37 56c9 18 17 37 25 58zM406 688c7 -3 14 -3 20 -1c7 3 12 7 15 13
c4 7 4 13 1 20c-2 8 -6 12 -13 15c-36 18 -69 23 -101 15c-31 -7 -59 -26 -83 -58c-39 -50 -65 -125 -77 -224c-10 -94 -6 -184 13 -270c22 -96 57 -162 107 -198c24 -16 55 -26 91 -28c20 -1 38 1 52 7c20 8 34 21 41 39c3 7 3 14 -1 20c-3 7 -7 12 -14 14
c-6 3 -13 3 -20 -1c-6 -3 -11 -7 -14 -14c-4 -10 -17 -14 -41 -13c-26 2 -47 8 -63 19c-40 28 -69 84 -88 167c-17 80 -21 164 -11 252c11 90 33 156 66 199c33 42 73 51 120 27z" />
    <glyph glyph-name="Egrave" unicode="&#xc8;" horiz-adv-x="352" 
d="M135 775c-5 4 -11 6 -17 6c-7 0 -13 -2 -19 -8c-5 -5 -7 -10 -7 -18c0 -81 2 -203 4 -366v-32c3 -142 4 -254 4 -334c0 -6 3 -12 8 -18c6 -5 11 -8 18 -8c6 0 12 2 16 6c23 2 49 2 78 2c15 1 38 1 70 1h13c7 0 13 3 18 8c6 6 8 11 8 18c0 8 -2 13 -8 18c-5 6 -11 8 -18 8
h-13c-32 0 -56 0 -71 -1c-24 0 -47 0 -67 -1c0 66 -1 151 -3 255c7 0 17 1 29 1h1h42s14 3 19 8c6 6 7 12 7 19c0 8 -2 13 -8 18c-5 6 -10 7 -18 7c-9 0 -23 0 -43 -1h-1h-29v27c-2 151 -4 262 -4 333c22 2 48 2 76 2c15 1 38 1 70 1h13c7 0 13 3 18 8c6 6 8 11 8 18
c0 8 -2 13 -8 18c-5 6 -11 8 -18 8h-13c-32 0 -56 0 -71 -1c-32 0 -60 0 -84 -2zM188 967c-6 4 -12 6 -20 4c-7 -1 -12 -5 -17 -11c-4 -6 -5 -11 -4 -19c2 -7 5 -12 10 -17c32 -22 65 -49 97 -83c6 -5 12 -8 19 -8c8 0 13 3 18 8c6 6 8 12 8 19c0 8 -2 13 -8 18
c-35 35 -69 65 -103 89z" />
    <glyph glyph-name="Eacute" unicode="&#xc9;" horiz-adv-x="374" 
d="M135 775c-5 4 -11 6 -17 6c-7 0 -13 -2 -19 -8c-5 -5 -7 -10 -7 -18c0 -81 2 -203 4 -366v-32c3 -142 4 -254 4 -334c0 -6 3 -12 8 -18c6 -5 11 -8 18 -8c6 0 12 2 16 6c23 2 49 2 78 2c15 1 38 1 70 1h13c7 0 13 3 18 8c6 6 8 11 8 18c0 8 -2 13 -8 18c-5 6 -11 8 -18 8
h-13c-32 0 -56 0 -71 -1c-24 0 -47 0 -67 -1c0 66 -1 151 -3 255c7 0 17 1 29 1h1h42s14 3 19 8c6 6 7 12 7 19c0 8 -2 13 -8 18c-5 6 -10 7 -18 7c-9 0 -23 0 -43 -1h-1h-29v27c-2 151 -4 262 -4 333c22 2 48 2 76 2c15 1 38 1 70 1h13c7 0 13 3 18 8c6 6 8 11 8 18
c0 8 -2 13 -8 18c-5 6 -11 8 -18 8h-13c-32 0 -56 0 -71 -1c-32 0 -60 0 -84 -2zM202 874c-9 -7 -17 -13 -23 -18c-6 -4 -8 -9 -10 -17c-1 -7 1 -13 5 -19c5 -6 10 -8 17 -10c8 -1 13 0 19 4c7 6 15 12 25 20l3 3c2 2 3 3 5 4c2 2 3 3 5 4c2 2 3 3 5 4l4 4c2 2 3 2 3 2l1 1
c15 13 27 23 36 29c14 10 26 17 36 20c7 2 12 7 15 13c4 7 4 13 1 20c-2 8 -6 12 -13 15c-6 4 -12 4 -20 1c-14 -4 -31 -13 -49 -27c-10 -7 -23 -17 -39 -31c0 0 -1 0 -3 -2l-5 -5s-4 -3 -7 -5c-2 -2 -4 -4 -7 -6c-2 -2 -3 -2 -4 -4z" />
    <glyph glyph-name="Ecircumflex" unicode="&#xca;" horiz-adv-x="360" 
d="M135 775c-5 4 -11 6 -17 6c-7 0 -13 -2 -19 -8c-5 -5 -7 -10 -7 -18c0 -81 2 -203 4 -366v-32c3 -142 4 -254 4 -334c0 -6 3 -12 8 -18c6 -5 11 -8 18 -8c6 0 12 2 16 6c23 2 49 2 78 2c15 1 38 1 70 1h13c7 0 13 3 18 8c6 6 8 11 8 18c0 8 -2 13 -8 18c-5 6 -11 8 -18 8
h-13c-32 0 -56 0 -71 -1c-24 0 -47 0 -67 -1c0 66 -1 151 -3 255c7 0 17 1 29 1h1h42s14 3 19 8c6 6 7 12 7 19c0 8 -2 13 -8 18c-5 6 -10 7 -18 7c-9 0 -23 0 -43 -1h-1h-29v27c-2 151 -4 262 -4 333c22 2 48 2 76 2c15 1 38 1 70 1h13c7 0 13 3 18 8c6 6 8 11 8 18
c0 8 -2 13 -8 18c-5 6 -11 8 -18 8h-13c-32 0 -56 0 -71 -1c-32 0 -60 0 -84 -2zM276 956c-2 7 -7 12 -14 14c-6 3 -13 3 -20 -1c-4 -2 -8 -5 -12 -10c-5 0 -10 -3 -14 -7c-8 -8 -21 -19 -39 -34l-1 -1l-1 -1c-23 -18 -40 -33 -52 -45c-4 -5 -6 -11 -6 -19c1 -7 3 -12 8 -18
c6 -5 12 -6 19 -6c8 1 13 3 18 8c9 10 24 24 45 40h1l1 1c16 13 27 23 34 29c12 -20 27 -45 46 -75c4 -6 10 -9 17 -11c8 -1 13 0 19 4s10 10 11 17c2 8 0 13 -4 19c-25 38 -44 70 -56 96z" />
    <glyph glyph-name="Edieresis" unicode="&#xcb;" horiz-adv-x="390" 
d="M135 775c-5 4 -11 6 -17 6c-7 0 -13 -2 -19 -8c-5 -5 -7 -10 -7 -18c0 -81 2 -203 4 -366v-32c3 -142 4 -254 4 -334c0 -6 3 -12 8 -18c6 -5 11 -8 18 -8c6 0 12 2 16 6c23 2 49 2 78 2c15 1 38 1 70 1h13c7 0 13 3 18 8c6 6 8 11 8 18c0 8 -2 13 -8 18c-5 6 -11 8 -18 8
h-13c-32 0 -56 0 -71 -1c-24 0 -47 0 -67 -1c0 66 -1 151 -3 255c7 0 17 1 29 1h1h42s14 3 19 8c6 6 7 12 7 19c0 8 -2 13 -8 18c-5 6 -10 7 -18 7c-9 0 -23 0 -43 -1h-1h-29v27c-2 151 -4 262 -4 333c22 2 48 2 76 2c15 1 38 1 70 1h13c7 0 13 3 18 8c6 6 8 11 8 18
c0 8 -2 13 -8 18c-5 6 -11 8 -18 8h-13c-32 0 -56 0 -71 -1c-32 0 -60 0 -84 -2zM132 903c-4 -4 -7 -10 -7 -18c0 -7 3 -12 8 -18c6 -5 11 -8 18 -8c8 0 13 3 18 8c6 6 8 12 8 19c0 8 -2 13 -8 18c-5 6 -11 7 -19 7c-7 0 -12 -2 -18 -8zM322 895c-4 -4 -7 -10 -7 -18
c0 -7 3 -12 8 -18c6 -5 11 -8 18 -8c8 0 13 3 18 8c6 6 8 12 8 19c0 8 -2 13 -8 18c-5 6 -11 7 -19 7c-7 0 -12 -2 -18 -8z" />
    <glyph glyph-name="Igrave" unicode="&#xcc;" horiz-adv-x="261" 
d="M75 791c-6 0 -12 -2 -18 -8c-5 -5 -8 -10 -8 -18c0 -7 3 -13 8 -19c6 -5 12 -7 18 -7h24c0 -76 2 -193 5 -349v-31c3 -135 4 -240 4 -316h-36c-7 0 -13 -2 -19 -8c-5 -5 -7 -11 -7 -19c0 -7 3 -12 8 -18c6 -5 11 -7 18 -7h43h64c7 0 13 3 18 8c6 6 8 11 8 18
c0 8 -2 13 -8 18c-5 6 -11 8 -18 8h-19c0 76 -1 181 -4 317c0 8 0 18 -1 31c-2 156 -4 272 -4 348h31c8 0 14 3 19 8c6 6 7 11 7 18c0 8 -2 14 -8 19c-5 6 -10 7 -18 7h-53h-54zM79 946c-4 6 -10 10 -18 10c-7 1 -12 -2 -18 -7c-5 -4 -8 -10 -9 -18c0 -7 2 -12 6 -18
c6 -6 13 -16 22 -29c1 0 1 0 1 -1l1 -1c20 -24 35 -41 45 -53c6 -5 12 -8 19 -8c8 0 13 3 18 8c6 6 8 12 8 19c0 8 -2 13 -8 18c-9 10 -23 26 -41 48l-2 2c-10 14 -18 24 -24 30z" />
    <glyph glyph-name="Iacute" unicode="&#xcd;" horiz-adv-x="284" 
d="M87 791c-6 0 -12 -2 -18 -8c-5 -5 -8 -10 -8 -18c0 -7 3 -13 8 -19c6 -5 12 -7 18 -7h24c0 -76 2 -193 5 -349v-31c3 -135 4 -240 4 -316h-36c-7 0 -13 -2 -19 -8c-5 -5 -7 -11 -7 -19c0 -7 3 -12 8 -18c6 -5 11 -7 18 -7h43h64c7 0 13 3 18 8c6 6 8 11 8 18
c0 8 -2 13 -8 18c-5 6 -11 8 -18 8h-19c0 76 -1 181 -4 317c0 8 0 18 -1 31c-2 156 -4 272 -4 348h31c8 0 14 3 19 8c6 6 7 11 7 18c0 8 -2 14 -8 19c-5 6 -10 7 -18 7h-53h-54zM110 870c-5 -4 -8 -10 -9 -18c0 -7 3 -12 8 -18c6 -5 11 -8 18 -9c8 0 13 3 18 7
c9 8 22 19 38 32c1 0 2 1 3 2l2 2c22 17 38 31 48 41c6 6 8 12 8 19c0 8 -2 13 -8 18c-5 6 -11 7 -19 7c-7 0 -12 -2 -18 -7c-8 -9 -23 -21 -43 -37l-3 -3l-2 -1c-18 -14 -31 -25 -41 -35z" />
    <glyph glyph-name="Icircumflex" unicode="&#xce;" horiz-adv-x="272" 
d="M87 791c-6 0 -12 -2 -18 -8c-5 -5 -8 -10 -8 -18c0 -7 3 -13 8 -19c6 -5 12 -7 18 -7h24c0 -76 2 -193 5 -349v-31c3 -135 4 -240 4 -316h-36c-7 0 -13 -2 -19 -8c-5 -5 -7 -11 -7 -19c0 -7 3 -12 8 -18c6 -5 11 -7 18 -7h43h64c7 0 13 3 18 8c6 6 8 11 8 18
c0 8 -2 13 -8 18c-5 6 -11 8 -18 8h-19c0 76 -1 181 -4 317c0 8 0 18 -1 31c-2 156 -4 272 -4 348h31c8 0 14 3 19 8c6 6 7 11 7 18c0 8 -2 14 -8 19c-5 6 -10 7 -18 7h-53h-54zM181 972c-8 12 -18 15 -31 9c-7 0 -13 -2 -19 -7c-10 -10 -24 -25 -40 -43l-24 -26
c-5 -5 -7 -11 -7 -19c1 -7 3 -12 8 -18c6 -5 12 -6 19 -6c8 1 13 3 18 8c4 4 12 12 24 26c10 10 18 19 24 26c13 -18 26 -31 38 -40c6 -4 13 -5 20 -4c8 2 12 5 16 11s6 13 4 20c-1 8 -5 12 -11 16c-8 6 -17 16 -29 32c0 1 -1 4 -5 8c-3 5 -4 7 -5 7z" />
    <glyph glyph-name="Idieresis" unicode="&#xcf;" horiz-adv-x="278" 
d="M13 919c-4 -4 -7 -10 -7 -18c0 -7 3 -12 8 -18c6 -5 11 -8 18 -8c8 0 13 3 18 8c6 6 8 12 8 19c0 8 -2 13 -8 18c-5 6 -11 7 -19 7c-7 0 -12 -2 -18 -8zM167 913c-4 -4 -7 -10 -7 -18c0 -7 3 -12 8 -18c6 -5 11 -8 18 -8c8 0 13 3 18 8c6 6 8 12 8 19c0 8 -2 13 -8 18
c-5 6 -11 7 -19 7c-7 0 -12 -2 -18 -8zM61 791c-6 0 -12 -2 -18 -8c-5 -5 -8 -10 -8 -18c0 -7 3 -13 8 -19c6 -5 12 -7 18 -7h24c0 -76 2 -193 5 -349v-31c3 -135 4 -240 4 -316h-36c-7 0 -13 -2 -19 -8c-5 -5 -7 -11 -7 -19c0 -7 3 -12 8 -18c6 -5 11 -7 18 -7h43h64
c7 0 13 3 18 8c6 6 8 11 8 18c0 8 -2 13 -8 18c-5 6 -11 8 -18 8h-19c0 76 -1 181 -4 317c0 8 0 18 -1 31c-2 156 -4 272 -4 348h31c8 0 14 3 19 8c6 6 7 11 7 18c0 8 -2 14 -8 19c-5 6 -10 7 -18 7h-53h-54z" />
    <glyph glyph-name="Eth" unicode="&#xd0;" horiz-adv-x="345" 
d="M107 78c0 66 -2 160 -4 280v32c11 1 21 1 29 1c7 0 13 3 18 8c6 6 8 12 8 19c0 8 -2 13 -8 18c-5 6 -11 7 -18 7c-9 0 -19 0 -30 -1c-2 125 -3 222 -3 291c42 -9 74 -39 96 -91c24 -56 34 -129 28 -217c-5 -86 -23 -167 -55 -241c-17 -42 -37 -78 -61 -106zM85 788
c-8 1 -15 -2 -21 -9c-11 -4 -17 -12 -17 -24c0 -77 1 -183 3 -317c-8 0 -15 -1 -23 -1c-7 0 -12 -2 -18 -8c-5 -5 -7 -10 -7 -18c0 -7 3 -12 8 -18c6 -5 11 -8 18 -8c8 0 15 1 23 1v-29c3 -140 4 -249 4 -327c0 0 -1 0 -2 -1c-6 -4 -11 -9 -13 -16c-2 -6 0 -13 4 -20
c4 -6 9 -10 16 -12c8 -2 13 0 19 3c55 34 101 94 137 180c34 80 53 166 59 258c6 96 -5 177 -33 241c-33 78 -85 119 -157 125z" />
    <glyph glyph-name="Ntilde" unicode="&#xd1;" horiz-adv-x="451" 
d="M152 745c-2 4 -4 8 -8 10c0 8 -2 14 -8 19c-5 6 -11 7 -19 7c-7 0 -12 -2 -18 -8c-5 -5 -7 -10 -7 -18c0 -81 2 -203 4 -366v-32c3 -142 4 -254 4 -334c0 -6 3 -12 8 -18c6 -5 11 -8 18 -8c8 0 14 3 19 8c6 6 7 12 7 18c0 81 -1 193 -4 335v32c-2 109 -3 189 -4 241
c22 -54 52 -134 92 -242c2 -4 4 -9 5 -14c3 -6 15 -40 37 -100s36 -95 41 -109c26 -70 44 -116 53 -140c1 -2 2 -3 3 -5v-7v-6c0 -6 3 -12 8 -18c6 -5 11 -8 18 -8c8 0 14 3 19 8c6 6 7 12 7 18c0 81 -1 193 -4 335v32c-2 162 -4 284 -4 365c0 8 -2 14 -8 19
c-5 6 -11 7 -19 7c-7 0 -12 -2 -18 -8c-5 -5 -7 -10 -7 -18c0 -81 2 -203 4 -366v-32c2 -72 3 -130 3 -176c-2 6 -4 12 -7 18c-4 14 -18 51 -40 110c-22 60 -34 93 -37 99c-1 5 -3 10 -5 14c-68 184 -112 297 -133 338zM147 839c0 -6 3 -12 8 -18c6 -5 11 -8 18 -8
c8 0 13 3 18 8c6 6 8 12 8 18c0 7 1 12 1 16c1 3 2 5 2 5v1h2c7 1 23 -4 49 -14c16 -6 28 -10 36 -12c15 -4 28 -5 38 -4c18 2 31 9 40 23c8 12 12 29 12 49c0 8 -2 14 -8 19c-5 6 -11 7 -19 7c-7 0 -12 -2 -18 -8c-5 -5 -7 -10 -7 -18c0 -6 0 -11 -2 -15c0 -2 -1 -4 -2 -5
l-1 -1c-7 0 -24 4 -50 14c-16 6 -27 10 -35 12c-15 4 -28 6 -39 4c-17 -1 -30 -9 -39 -23c-8 -12 -12 -28 -12 -50z" />
    <glyph glyph-name="Ograve" unicode="&#xd2;" 
d="M314 773c-6 1 -13 1 -22 1c-30 0 -58 -13 -82 -39c-19 -22 -36 -52 -50 -91c-24 -70 -36 -157 -36 -259c1 -102 14 -189 38 -262c14 -40 30 -71 49 -95c24 -28 50 -43 80 -47c30 -3 56 8 78 33c18 20 34 49 46 86c23 67 36 151 39 253c3 100 -4 188 -22 264
c-9 41 -21 74 -35 100c-16 32 -36 51 -60 59c-8 4 -15 3 -23 -3zM322 706c7 -12 17 -16 29 -13c12 -22 22 -51 30 -87c17 -72 24 -156 21 -252c-2 -96 -14 -175 -36 -237c-10 -30 -22 -53 -36 -68c-10 -12 -22 -17 -34 -17c-33 4 -61 40 -85 108c-23 68 -34 149 -35 245
c0 96 12 177 34 242c22 64 50 95 82 95c11 0 18 0 20 -2c3 -1 6 -6 10 -14zM269 946c-5 5 -11 7 -19 7c-7 0 -12 -2 -18 -8c-5 -5 -7 -10 -7 -18c0 -7 3 -12 7 -18c8 -8 19 -18 33 -32c2 -2 4 -3 4 -4c15 -14 26 -24 33 -32c6 -5 12 -8 19 -8c8 0 13 3 18 8c6 6 8 12 8 19
c0 8 -2 13 -8 18c-8 8 -19 19 -34 33l-4 3c-14 14 -24 25 -32 32z" />
    <glyph glyph-name="Oacute" unicode="&#xd3;" 
d="M314 773c-6 1 -13 1 -22 1c-30 0 -58 -13 -82 -39c-19 -22 -36 -52 -50 -91c-24 -70 -36 -157 -36 -259c1 -102 14 -189 38 -262c14 -40 30 -71 49 -95c24 -28 50 -43 80 -47c30 -3 56 8 78 33c18 20 34 49 46 86c23 67 36 151 39 253c3 100 -4 188 -22 264
c-9 41 -21 74 -35 100c-16 32 -36 51 -60 59c-8 4 -15 3 -23 -3zM322 706c7 -12 17 -16 29 -13c12 -22 22 -51 30 -87c17 -72 24 -156 21 -252c-2 -96 -14 -175 -36 -237c-10 -30 -22 -53 -36 -68c-10 -12 -22 -17 -34 -17c-33 4 -61 40 -85 108c-23 68 -34 149 -35 245
c0 96 12 177 34 242c22 64 50 95 82 95c11 0 18 0 20 -2c3 -1 6 -6 10 -14zM268 875c-6 -4 -9 -9 -11 -17c-1 -7 0 -13 4 -19s10 -9 17 -11c8 -1 13 0 19 4c8 5 20 15 38 31c12 10 20 17 26 21c6 5 12 8 16 9c7 2 12 7 15 13c4 7 4 13 1 20c-2 8 -6 12 -13 15
c-6 4 -12 4 -20 1c-8 -2 -18 -7 -28 -15c-8 -5 -19 -13 -32 -25c-16 -14 -26 -23 -32 -27z" />
    <glyph glyph-name="Ocircumflex" unicode="&#xd4;" 
d="M314 773c-6 1 -13 1 -22 1c-30 0 -58 -13 -82 -39c-19 -22 -36 -52 -50 -91c-24 -70 -36 -157 -36 -259c1 -102 14 -189 38 -262c14 -40 30 -71 49 -95c24 -28 50 -43 80 -47c30 -3 56 8 78 33c18 20 34 49 46 86c23 67 36 151 39 253c3 100 -4 188 -22 264
c-9 41 -21 74 -35 100c-16 32 -36 51 -60 59c-8 4 -15 3 -23 -3zM322 706c7 -12 17 -16 29 -13c12 -22 22 -51 30 -87c17 -72 24 -156 21 -252c-2 -96 -14 -175 -36 -237c-10 -30 -22 -53 -36 -68c-10 -12 -22 -17 -34 -17c-33 4 -61 40 -85 108c-23 68 -34 149 -35 245
c0 96 12 177 34 242c22 64 50 95 82 95c11 0 18 0 20 -2c3 -1 6 -6 10 -14zM193 861c-4 -6 -5 -12 -4 -20c2 -7 5 -12 11 -17c6 -4 12 -5 19 -4c8 2 13 5 17 10c30 43 49 68 55 75c0 1 1 1 1 1c7 -8 10 -12 10 -13c18 -20 38 -38 60 -53c6 -4 13 -5 20 -4c8 2 12 5 16 11
s6 13 4 20c-1 8 -5 12 -11 16c-18 12 -34 27 -49 44c0 1 -3 4 -7 9c-4 6 -6 8 -8 8c-6 8 -13 14 -19 16c-12 6 -23 5 -35 -2c-6 -3 -14 -9 -22 -19c-7 -8 -26 -34 -58 -78z" />
    <glyph glyph-name="Otilde" unicode="&#xd5;" 
d="M314 773c-6 1 -13 1 -22 1c-30 0 -58 -13 -82 -39c-19 -22 -36 -52 -50 -91c-24 -70 -36 -157 -36 -259c1 -102 14 -189 38 -262c14 -40 30 -71 49 -95c24 -28 50 -43 80 -47c30 -3 56 8 78 33c18 20 34 49 46 86c23 67 36 151 39 253c3 100 -4 188 -22 264
c-9 41 -21 74 -35 100c-16 32 -36 51 -60 59c-8 4 -15 3 -23 -3zM322 706c7 -12 17 -16 29 -13c12 -22 22 -51 30 -87c17 -72 24 -156 21 -252c-2 -96 -14 -175 -36 -237c-10 -30 -22 -53 -36 -68c-10 -12 -22 -17 -34 -17c-33 4 -61 40 -85 108c-23 68 -34 149 -35 245
c0 96 12 177 34 242c22 64 50 95 82 95c11 0 18 0 20 -2c3 -1 6 -6 10 -14zM212 829c6 -4 12 -5 19 -5c8 1 14 4 18 9c5 6 7 12 5 19c-1 8 -3 14 -9 18c-5 4 -9 8 -11 11c6 2 12 2 19 1c2 -1 5 -3 8 -5l28 -21c6 -4 12 -8 17 -12c12 -7 22 -13 30 -17c14 -5 26 -7 36 -6
c18 3 29 14 33 32c3 12 2 28 -3 47c-2 7 -6 12 -12 16s-12 4 -20 2c-7 -2 -12 -5 -16 -11s-4 -12 -3 -20c2 -4 3 -7 3 -10c-6 3 -12 7 -20 11c-4 3 -9 6 -15 10c-4 4 -13 11 -27 21c-4 4 -8 6 -12 7c-6 4 -11 7 -16 7c-36 6 -62 -2 -77 -23c-8 -13 -10 -28 -4 -44
c6 -12 15 -25 29 -37z" />
    <glyph glyph-name="Odieresis" unicode="&#xd6;" 
d="M314 773c-6 1 -13 1 -22 1c-30 0 -58 -13 -82 -39c-19 -22 -36 -52 -50 -91c-24 -70 -36 -157 -36 -259c1 -102 14 -189 38 -262c14 -40 30 -71 49 -95c24 -28 50 -43 80 -47c30 -3 56 8 78 33c18 20 34 49 46 86c23 67 36 151 39 253c3 100 -4 188 -22 264
c-9 41 -21 74 -35 100c-16 32 -36 51 -60 59c-8 4 -15 3 -23 -3zM186 911c-4 -4 -7 -10 -7 -18c0 -7 3 -12 8 -18c6 -5 11 -8 18 -8c8 0 13 3 18 8c6 6 8 12 8 19c0 8 -2 13 -8 18c-5 6 -11 7 -19 7c-7 0 -12 -2 -18 -8zM382 907c-4 -4 -7 -10 -7 -18c0 -7 3 -12 8 -18
c6 -5 11 -8 18 -8c8 0 13 3 18 8c6 6 8 12 8 19c0 8 -2 13 -8 18c-5 6 -11 7 -19 7c-7 0 -12 -2 -18 -8zM322 706c7 -12 17 -16 29 -13c12 -22 22 -51 30 -87c17 -72 24 -156 21 -252c-2 -96 -14 -175 -36 -237c-10 -30 -22 -53 -36 -68c-10 -12 -22 -17 -34 -17
c-33 4 -61 40 -85 108c-23 68 -34 149 -35 245c0 96 12 177 34 242c22 64 50 95 82 95c11 0 18 0 20 -2c3 -1 6 -6 10 -14z" />
    <glyph glyph-name="multiply" unicode="&#xd7;" horiz-adv-x="412" 
d="M247 395c-25 -25 -48 -45 -70 -60c-5 -4 -8 -10 -10 -18c-1 -7 1 -13 5 -19c5 -6 10 -8 17 -10c8 -1 13 0 19 4c24 18 49 40 77 67c4 -3 7 -7 11 -11c2 -1 6 -5 12 -11l9 -9c9 -8 16 -14 22 -20c14 -13 25 -25 35 -35c6 -5 12 -8 19 -8c8 0 13 3 18 8c6 6 8 12 8 19
c0 8 -2 13 -8 18c-10 10 -22 22 -36 35c-6 6 -13 13 -22 21l-9 8l-12 12c-4 4 -7 7 -11 10c2 2 4 3 5 4l13 13s12 13 14 15c10 11 19 20 26 27c6 6 8 12 8 19c0 8 -2 13 -8 18c-5 6 -11 7 -19 7c-7 0 -12 -2 -18 -7c-7 -7 -16 -16 -27 -28l-15 -15s-11 -12 -12 -13l-4 -4
c-34 34 -63 65 -85 93c-4 6 -9 10 -17 11c-7 2 -14 -1 -20 -6c-6 -4 -8 -9 -10 -17c-1 -7 2 -13 6 -19c18 -24 40 -49 66 -76c8 -7 15 -15 23 -23z" />
    <glyph glyph-name="Oslash" unicode="&#xd8;" horiz-adv-x="520" 
d="M368 478c3 -40 4 -82 3 -124c-2 -96 -14 -175 -36 -237c-10 -30 -22 -53 -36 -68c-10 -12 -22 -17 -34 -17c-27 4 -51 29 -73 77c32 62 69 138 111 227c22 48 44 95 65 142zM163 53c6 -9 11 -17 17 -25c24 -28 50 -43 80 -47c30 -3 56 8 78 33c18 20 34 49 46 86
c23 67 36 151 39 253c2 78 -2 151 -13 218c38 86 61 142 70 170c3 7 3 14 -1 20c-3 7 -8 12 -15 14c-6 3 -13 2 -20 -2c-6 -3 -11 -8 -13 -15c-6 -18 -19 -52 -41 -101c-6 24 -14 44 -24 60c-16 32 -36 51 -60 59c-8 4 -15 3 -23 -3c-6 1 -13 1 -22 1c-30 0 -58 -13 -82 -39
c-19 -22 -36 -52 -50 -91c-24 -70 -36 -157 -36 -259c1 -102 14 -189 38 -262c2 -4 3 -7 4 -11c-34 -64 -56 -102 -66 -112c-4 -5 -7 -11 -7 -19c0 -7 3 -12 8 -18c6 -5 11 -8 18 -8c8 0 13 3 18 8c12 12 31 42 57 90zM291 706c7 -12 17 -16 29 -13c12 -22 22 -51 30 -87
c2 -9 4 -18 6 -28c-31 -70 -64 -144 -100 -220c-32 -66 -61 -126 -87 -179c-15 61 -23 130 -24 206c0 96 12 177 34 242c22 64 50 95 82 95c11 0 18 0 20 -2c3 -1 6 -6 10 -14z" />
    <glyph glyph-name="Ugrave" unicode="&#xd9;" horiz-adv-x="425" 
d="M177 734c0 8 -3 14 -9 18c-5 5 -10 7 -18 6c-7 0 -13 -2 -18 -8c-4 -5 -7 -11 -7 -19c1 -14 0 -37 -2 -69c0 -12 -1 -27 -2 -47c0 -2 -1 -10 -3 -25c-1 -14 -1 -24 -1 -28c-4 -66 -7 -121 -8 -164c-2 -116 6 -206 24 -268c13 -41 30 -72 52 -94c27 -25 60 -36 98 -33
c29 3 53 19 71 47c15 22 27 53 36 92c14 62 22 146 22 253c0 60 -2 132 -6 218c0 6 0 20 -2 42c-1 22 -2 34 -2 36c-1 25 -2 42 -2 51c0 8 -2 14 -8 19c-5 6 -10 7 -18 7c-7 0 -12 -2 -18 -8c-5 -5 -8 -10 -8 -18c0 -10 1 -28 2 -53c0 -3 1 -16 2 -38c2 -22 2 -35 2 -41
c4 -84 6 -156 6 -215c0 -103 -7 -183 -21 -241c-14 -63 -34 -96 -60 -99c-23 -2 -42 5 -58 19c-15 15 -28 39 -38 71c-16 57 -24 141 -22 252c1 42 4 96 8 162c0 4 1 13 2 28c2 16 1 23 1 25c2 20 3 35 3 47c2 34 3 59 2 75zM265 949c-4 6 -9 10 -17 11c-7 2 -14 -1 -20 -6
c-6 -4 -8 -9 -10 -17c-1 -7 2 -13 6 -19c8 -10 21 -24 39 -41c1 0 1 0 1 -1c19 -16 31 -29 37 -39c4 -6 10 -9 17 -11c8 -1 13 0 19 4s10 10 11 17c2 8 0 13 -4 19c-8 13 -23 29 -45 49l-1 1c-16 14 -27 25 -33 33z" />
    <glyph glyph-name="Uacute" unicode="&#xda;" horiz-adv-x="425" 
d="M261 885c-5 -4 -8 -10 -10 -18c-1 -7 1 -13 5 -19c5 -6 10 -8 17 -10c8 -1 13 0 19 4c28 21 56 41 82 61c6 4 10 10 11 17c2 8 -1 13 -6 19c-4 6 -9 10 -17 11c-7 2 -13 -1 -19 -6c-26 -20 -54 -39 -82 -59zM177 734c0 8 -3 14 -9 18c-5 5 -10 7 -18 6
c-7 0 -13 -2 -18 -8c-4 -5 -7 -11 -7 -19c1 -14 0 -37 -2 -69c0 -12 -1 -27 -2 -47c0 -2 -1 -10 -3 -25c-1 -14 -1 -24 -1 -28c-4 -66 -7 -121 -8 -164c-2 -116 6 -206 24 -268c13 -41 30 -72 52 -94c27 -25 60 -36 98 -33c29 3 53 19 71 47c15 22 27 53 36 92
c14 62 22 146 22 253c0 60 -2 132 -6 218c0 6 0 20 -2 42c-1 22 -2 34 -2 36c-1 25 -2 42 -2 51c0 8 -2 14 -8 19c-5 6 -10 7 -18 7c-7 0 -12 -2 -18 -8c-5 -5 -8 -10 -8 -18c0 -10 1 -28 2 -53c0 -3 1 -16 2 -38c2 -22 2 -35 2 -41c4 -84 6 -156 6 -215
c0 -103 -7 -183 -21 -241c-14 -63 -34 -96 -60 -99c-23 -2 -42 5 -58 19c-15 15 -28 39 -38 71c-16 57 -24 141 -22 252c1 42 4 96 8 162c0 4 1 13 2 28c2 16 1 23 1 25c2 20 3 35 3 47c2 34 3 59 2 75z" />
    <glyph glyph-name="Ucircumflex" unicode="&#xdb;" horiz-adv-x="425" 
d="M316 952c-4 7 -11 10 -20 9c-11 8 -22 7 -32 -3l-8 -8l-7 -7l-2 -2c0 0 -1 -1 -2 -1c-1 -1 -2 -2 -3 -4l-35 -35c-12 -14 -23 -28 -31 -42c-3 -6 -4 -13 -2 -21c2 -7 6 -11 12 -15c7 -3 13 -4 20 -2c8 2 12 5 15 11c10 18 29 40 57 67c2 1 3 2 4 3c0 1 1 2 2 2
c2 1 1 2 1 2c1 0 2 1 2 1c25 -29 46 -52 63 -70c6 -5 12 -8 19 -8c8 0 13 3 18 8c6 6 8 12 8 19c0 8 -2 13 -8 18c-18 18 -41 44 -71 78zM177 734c0 8 -3 14 -9 18c-5 5 -10 7 -18 6c-7 0 -13 -2 -18 -8c-4 -5 -7 -11 -7 -19c1 -14 0 -37 -2 -69c0 -12 -1 -27 -2 -47
c0 -2 -1 -10 -3 -25c-1 -14 -1 -24 -1 -28c-4 -66 -7 -121 -8 -164c-2 -116 6 -206 24 -268c13 -41 30 -72 52 -94c27 -25 60 -36 98 -33c29 3 53 19 71 47c15 22 27 53 36 92c14 62 22 146 22 253c0 60 -2 132 -6 218c0 6 0 20 -2 42c-1 22 -2 34 -2 36c-1 25 -2 42 -2 51
c0 8 -2 14 -8 19c-5 6 -10 7 -18 7c-7 0 -12 -2 -18 -8c-5 -5 -8 -10 -8 -18c0 -10 1 -28 2 -53c0 -3 1 -16 2 -38c2 -22 2 -35 2 -41c4 -84 6 -156 6 -215c0 -103 -7 -183 -21 -241c-14 -63 -34 -96 -60 -99c-23 -2 -42 5 -58 19c-15 15 -28 39 -38 71
c-16 57 -24 141 -22 252c1 42 4 96 8 162c0 4 1 13 2 28c2 16 1 23 1 25c2 20 3 35 3 47c2 34 3 59 2 75z" />
    <glyph glyph-name="Udieresis" unicode="&#xdc;" horiz-adv-x="425" 
d="M166 911c-4 -4 -7 -10 -7 -18c0 -7 3 -12 8 -18c6 -5 11 -8 18 -8c8 0 13 3 18 8c6 6 8 12 8 19c0 8 -2 13 -8 18c-5 6 -11 7 -19 7c-7 0 -12 -2 -18 -8zM348 909c-4 -4 -7 -10 -7 -18c0 -7 3 -12 8 -18c6 -5 11 -8 18 -8c8 0 13 3 18 8c6 6 8 12 8 19c0 8 -2 13 -8 18
c-5 6 -11 7 -19 7c-7 0 -12 -2 -18 -8zM177 734c0 8 -3 14 -9 18c-5 5 -10 7 -18 6c-7 0 -13 -2 -18 -8c-4 -5 -7 -11 -7 -19c1 -14 0 -37 -2 -69c0 -12 -1 -27 -2 -47c0 -2 -1 -10 -3 -25c-1 -14 -1 -24 -1 -28c-4 -66 -7 -121 -8 -164c-2 -116 6 -206 24 -268
c13 -41 30 -72 52 -94c27 -25 60 -36 98 -33c29 3 53 19 71 47c15 22 27 53 36 92c14 62 22 146 22 253c0 60 -2 132 -6 218c0 6 0 20 -2 42c-1 22 -2 34 -2 36c-1 25 -2 42 -2 51c0 8 -2 14 -8 19c-5 6 -10 7 -18 7c-7 0 -12 -2 -18 -8c-5 -5 -8 -10 -8 -18
c0 -10 1 -28 2 -53c0 -3 1 -16 2 -38c2 -22 2 -35 2 -41c4 -84 6 -156 6 -215c0 -103 -7 -183 -21 -241c-14 -63 -34 -96 -60 -99c-23 -2 -42 5 -58 19c-15 15 -28 39 -38 71c-16 57 -24 141 -22 252c1 42 4 96 8 162c0 4 1 13 2 28c2 16 1 23 1 25c2 20 3 35 3 47
c2 34 3 59 2 75z" />
    <glyph glyph-name="Yacute" unicode="&#xdd;" horiz-adv-x="394" 
d="M202 869c-5 -4 -8 -10 -9 -18c0 -7 3 -13 7 -19c5 -5 11 -8 18 -9c8 0 14 3 19 7s10 9 16 15c2 2 7 7 15 14c20 19 35 32 46 39c6 4 10 10 11 17c2 8 0 13 -4 19s-9 10 -17 11c-7 2 -13 0 -19 -4c-13 -9 -30 -24 -52 -44l-16 -15c-5 -5 -10 -9 -15 -13zM336 730
c2 7 2 14 -1 20c-2 7 -7 12 -14 14c-6 3 -13 3 -20 -1c-6 -3 -11 -7 -14 -14c-10 -28 -21 -70 -31 -125c-14 -78 -26 -146 -34 -204c-62 148 -112 260 -150 338c-2 6 -7 11 -15 13c-7 3 -13 2 -20 -2c-6 -3 -10 -7 -13 -14c-2 -6 -1 -13 2 -20c20 -40 50 -108 92 -205
c42 -96 70 -161 82 -196c2 -4 5 -8 9 -11c-4 -41 -8 -82 -12 -122c0 -14 -1 -28 -2 -43c0 -16 -1 -42 -2 -76c0 -32 -1 -56 -1 -73c0 -6 3 -12 8 -18c6 -5 11 -8 18 -8c8 0 13 3 18 8c6 6 8 11 8 17c0 17 1 42 1 74c1 33 2 58 2 74c0 14 1 28 2 41c9 112 28 252 58 418
c10 52 19 90 29 115z" />
    <glyph glyph-name="Thorn" unicode="&#xde;" horiz-adv-x="386" 
d="M205 223c-1 37 -3 85 -5 144c-2 66 -4 115 -6 147c-1 32 -2 61 -3 87c38 -2 70 -20 96 -56c27 -36 42 -81 46 -135c4 -53 -5 -96 -27 -132s-54 -55 -98 -55h-3zM207 171h1c63 0 111 27 143 80c28 45 39 99 34 163c-4 64 -23 118 -56 162c-36 50 -83 75 -139 77v76
c0 8 -2 14 -8 19c-5 6 -11 7 -19 7c-7 0 -12 -2 -18 -8c-5 -5 -7 -10 -7 -18c0 -62 2 -134 4 -217c2 -32 4 -81 6 -147c7 -161 10 -282 10 -362c0 -6 3 -12 8 -18c6 -5 11 -8 18 -8c8 0 13 3 18 8c6 6 8 12 8 18c0 54 -1 110 -3 168z" />
    <glyph glyph-name="germandbls" unicode="&#xdf;" horiz-adv-x="408" 
d="M203 540c4 60 10 110 18 149c9 38 20 64 32 79c10 12 20 16 32 12c25 -6 42 -21 50 -44c9 -22 9 -47 1 -77c-7 -29 -21 -53 -41 -73s-42 -31 -66 -31c-11 0 -19 -4 -24 -14c0 0 -1 -1 -2 -1zM204 248c-2 56 -3 106 -4 151c0 35 1 67 2 97c4 -2 8 -4 13 -4
c43 -3 78 -18 105 -45c25 -24 38 -52 40 -84c3 -30 -7 -56 -29 -77c-26 -24 -66 -37 -118 -37c-3 0 -6 0 -9 -1zM163 9c0 -6 3 -12 8 -18c6 -5 11 -8 18 -8c8 0 13 3 18 8c6 6 8 12 8 18c0 13 -1 35 -3 65c0 3 0 18 -2 45c-1 28 -2 44 -3 51c0 10 0 20 -1 28c2 0 5 -1 7 -1
c66 0 117 17 153 51c34 32 50 72 46 119c-2 45 -21 84 -56 117c-16 16 -35 29 -57 39c12 7 23 16 33 26c27 26 45 59 55 97c10 40 9 77 -4 109c-14 39 -42 64 -83 75c-34 10 -64 1 -88 -29c-17 -22 -31 -55 -41 -101c-15 -69 -23 -169 -23 -301c1 -64 4 -141 8 -232
c0 -7 1 -24 2 -51c2 -26 2 -41 2 -45c2 -29 3 -50 3 -62z" />
    <glyph glyph-name="agrave" unicode="&#xe0;" horiz-adv-x="380" 
d="M289 145c-10 -29 -24 -53 -42 -73c-11 -13 -22 -21 -33 -25c-10 -3 -21 -1 -32 5c-19 12 -35 44 -49 94c-13 52 -18 107 -16 165c4 60 15 105 34 135c18 28 43 37 73 26c27 -9 46 -23 57 -42c1 -37 3 -93 5 -168c1 -21 1 -37 1 -48c1 -26 2 -49 2 -69zM333 409
c5 7 6 14 3 22c0 4 -2 7 -4 11v83c0 8 -2 14 -8 19c-5 6 -11 7 -19 7c-7 0 -12 -2 -18 -8c-5 -5 -7 -10 -7 -18v-22c-12 8 -25 14 -39 18c-28 10 -53 10 -76 2c-22 -8 -42 -24 -58 -49c-24 -38 -38 -91 -42 -161c-2 -62 4 -122 18 -180c17 -64 41 -105 71 -125
c25 -15 50 -19 75 -11c20 7 39 20 57 40c2 2 3 4 5 6v-43c0 -7 3 -13 8 -19c6 -5 12 -7 19 -7c8 0 13 3 18 8c6 6 7 11 7 18c0 41 0 87 -2 137c2 3 3 6 3 8c2 8 1 15 -3 21c0 16 -1 32 -2 50c0 11 0 27 -2 47c-2 64 -3 113 -4 146zM207 740c-4 6 -10 9 -18 9
c-7 1 -13 -1 -19 -6c-5 -4 -8 -9 -9 -17c0 -7 2 -13 6 -19c8 -10 19 -27 33 -52l1 -1l1 -2c10 -16 17 -28 22 -36c9 -13 18 -24 26 -33c6 -5 12 -8 19 -8c8 0 13 3 18 8c6 6 8 12 8 19c0 8 -2 13 -8 18c-10 10 -23 30 -40 58l-1 2l-1 1c-15 28 -28 47 -38 59z" />
    <glyph glyph-name="aacute" unicode="&#xe1;" horiz-adv-x="380" 
d="M289 145c-10 -29 -24 -53 -42 -73c-11 -13 -22 -21 -33 -25c-10 -3 -21 -1 -32 5c-19 12 -35 44 -49 94c-13 52 -18 107 -16 165c4 60 15 105 34 135c18 28 43 37 73 26c27 -9 46 -23 57 -42c1 -37 3 -93 5 -168c1 -21 1 -37 1 -48c1 -26 2 -49 2 -69zM333 409
c5 7 6 14 3 22c0 4 -2 7 -4 11v83c0 8 -2 14 -8 19c-5 6 -11 7 -19 7c-7 0 -12 -2 -18 -8c-5 -5 -7 -10 -7 -18v-22c-12 8 -25 14 -39 18c-28 10 -53 10 -76 2c-22 -8 -42 -24 -58 -49c-24 -38 -38 -91 -42 -161c-2 -62 4 -122 18 -180c17 -64 41 -105 71 -125
c25 -15 50 -19 75 -11c20 7 39 20 57 40c2 2 3 4 5 6v-43c0 -7 3 -13 8 -19c6 -5 12 -7 19 -7c8 0 13 3 18 8c6 6 7 11 7 18c0 41 0 87 -2 137c2 3 3 6 3 8c2 8 1 15 -3 21c0 16 -1 32 -2 50c0 11 0 27 -2 47c-2 64 -3 113 -4 146zM187 645c-5 -4 -8 -10 -10 -18
c-1 -7 1 -13 5 -19c5 -6 10 -9 17 -11c8 -1 13 1 19 5c9 7 18 15 27 25c6 6 13 15 23 27c0 1 1 1 1 1c21 26 37 42 47 47c7 4 12 9 14 15c3 7 2 14 -2 20c-3 7 -8 12 -15 14c-6 3 -13 2 -20 -2c-12 -6 -24 -15 -36 -28c-7 -6 -17 -17 -29 -33l-1 -1c-17 -22 -30 -36 -40 -42
z" />
    <glyph glyph-name="acircumflex" unicode="&#xe2;" horiz-adv-x="380" 
d="M289 145c-10 -29 -24 -53 -42 -73c-11 -13 -22 -21 -33 -25c-10 -3 -21 -1 -32 5c-19 12 -35 44 -49 94c-13 52 -18 107 -16 165c4 60 15 105 34 135c18 28 43 37 73 26c27 -9 46 -23 57 -42c1 -37 3 -93 5 -168c1 -21 1 -37 1 -48c1 -26 2 -49 2 -69zM333 409
c5 7 6 14 3 22c0 4 -2 7 -4 11v83c0 8 -2 14 -8 19c-5 6 -11 7 -19 7c-7 0 -12 -2 -18 -8c-5 -5 -7 -10 -7 -18v-22c-12 8 -25 14 -39 18c-28 10 -53 10 -76 2c-22 -8 -42 -24 -58 -49c-24 -38 -38 -91 -42 -161c-2 -62 4 -122 18 -180c17 -64 41 -105 71 -125
c25 -15 50 -19 75 -11c20 7 39 20 57 40c2 2 3 4 5 6v-43c0 -7 3 -13 8 -19c6 -5 12 -7 19 -7c8 0 13 3 18 8c6 6 7 11 7 18c0 41 0 87 -2 137c2 3 3 6 3 8c2 8 1 15 -3 21c0 16 -1 32 -2 50c0 11 0 27 -2 47c-2 64 -3 113 -4 146zM129 638c-4 -5 -6 -11 -6 -19
c1 -7 4 -13 9 -18c6 -4 12 -5 19 -5c8 1 14 4 18 9c4 6 9 13 15 21l3 3c2 2 2 3 2 4c1 2 2 3 3 5c2 2 3 3 3 4c1 2 2 3 3 4l2 2v1c7 10 13 18 17 23c3 -4 7 -9 12 -17c1 0 1 0 1 -1c19 -26 34 -44 44 -55c6 -5 12 -8 19 -8c8 0 13 3 18 8c6 6 8 12 8 19c0 8 -2 13 -8 18
c-8 9 -21 25 -39 49l-1 1c-10 14 -17 24 -22 30c0 6 -2 10 -5 14c-4 6 -9 10 -17 11c-7 2 -13 0 -19 -4c-4 -3 -9 -7 -15 -12c-9 -10 -21 -25 -36 -46l-2 -3c-1 -2 -3 -5 -5 -8c-2 -2 -3 -4 -5 -7c-2 -2 -2 -4 -3 -5c-5 -8 -9 -14 -13 -18z" />
    <glyph glyph-name="atilde" unicode="&#xe3;" horiz-adv-x="384" 
d="M289 145c-10 -29 -24 -53 -42 -73c-11 -13 -22 -21 -33 -25c-10 -3 -21 -1 -32 5c-19 12 -35 44 -49 94c-13 52 -18 107 -16 165c4 60 15 105 34 135c18 28 43 37 73 26c27 -9 46 -23 57 -42c1 -37 3 -93 5 -168c1 -21 1 -37 1 -48c1 -26 2 -49 2 -69zM333 409
c5 7 6 14 3 22c0 4 -2 7 -4 11v83c0 8 -2 14 -8 19c-5 6 -11 7 -19 7c-7 0 -12 -2 -18 -8c-5 -5 -7 -10 -7 -18v-22c-12 8 -25 14 -39 18c-28 10 -53 10 -76 2c-22 -8 -42 -24 -58 -49c-24 -38 -38 -91 -42 -161c-2 -62 4 -122 18 -180c17 -64 41 -105 71 -125
c25 -15 50 -19 75 -11c20 7 39 20 57 40c2 2 3 4 5 6v-43c0 -7 3 -13 8 -19c6 -5 12 -7 19 -7c8 0 13 3 18 8c6 6 7 11 7 18c0 41 0 87 -2 137c2 3 3 6 3 8c2 8 1 15 -3 21c0 16 -1 32 -2 50c0 11 0 27 -2 47c-2 64 -3 113 -4 146zM113 591c1 -7 4 -13 9 -18
c6 -4 12 -5 19 -5c8 1 14 4 18 9c5 6 6 12 5 19v18c0 2 1 3 1 3c4 0 9 -2 15 -4s17 -8 32 -16c3 -1 5 -2 7 -3c15 -7 27 -12 36 -16c16 -5 30 -7 42 -7c18 2 31 11 40 27c8 13 12 31 12 53c0 8 -2 14 -8 19c-5 6 -11 7 -19 7c-7 0 -12 -2 -18 -8c-5 -5 -7 -10 -7 -18
c0 -13 -1 -22 -5 -27c0 0 0 -1 -1 -1c-7 0 -23 6 -49 18l-6 3c-16 8 -28 14 -36 17c-15 6 -28 9 -40 9c-18 0 -32 -9 -41 -26c-6 -12 -8 -30 -6 -53z" />
    <glyph glyph-name="adieresis" unicode="&#xe4;" horiz-adv-x="380" 
d="M289 145c-10 -29 -24 -53 -42 -73c-11 -13 -22 -21 -33 -25c-10 -3 -21 -1 -32 5c-19 12 -35 44 -49 94c-13 52 -18 107 -16 165c4 60 15 105 34 135c18 28 43 37 73 26c27 -9 46 -23 57 -42c1 -37 3 -93 5 -168c1 -21 1 -37 1 -48c1 -26 2 -49 2 -69zM333 409
c5 7 6 14 3 22c0 4 -2 7 -4 11v83c0 8 -2 14 -8 19c-5 6 -11 7 -19 7c-7 0 -12 -2 -18 -8c-5 -5 -7 -10 -7 -18v-22c-12 8 -25 14 -39 18c-28 10 -53 10 -76 2c-22 -8 -42 -24 -58 -49c-24 -38 -38 -91 -42 -161c-2 -62 4 -122 18 -180c17 -64 41 -105 71 -125
c25 -15 50 -19 75 -11c20 7 39 20 57 40c2 2 3 4 5 6v-43c0 -7 3 -13 8 -19c6 -5 12 -7 19 -7c8 0 13 3 18 8c6 6 7 11 7 18c0 41 0 87 -2 137c2 3 3 6 3 8c2 8 1 15 -3 21c0 16 -1 32 -2 50c0 11 0 27 -2 47c-2 64 -3 113 -4 146zM122 663c-4 -4 -7 -10 -7 -18
c0 -7 3 -12 8 -18c6 -5 11 -8 18 -8c8 0 13 3 18 8c6 6 8 12 8 19c0 8 -2 13 -8 18c-5 6 -11 7 -19 7c-7 0 -12 -2 -18 -8zM294 659c-4 -4 -7 -10 -7 -18c0 -7 3 -12 8 -18c6 -5 11 -8 18 -8c8 0 13 3 18 8c6 6 8 12 8 19c0 8 -2 13 -8 18c-5 6 -11 7 -19 7
c-7 0 -12 -2 -18 -8z" />
    <glyph glyph-name="aring" unicode="&#xe5;" horiz-adv-x="380" 
d="M253 692c3 0 5 -2 7 -6c6 -6 9 -15 9 -25c1 -10 -1 -18 -5 -24c-2 -4 -6 -6 -11 -6c-16 0 -28 5 -36 13c-6 8 -9 16 -9 25c1 9 5 16 11 20s14 6 23 5c2 0 5 -1 7 -1s3 0 4 -1zM254 745c-25 4 -47 0 -65 -13c-20 -14 -31 -34 -33 -59c-1 -24 7 -46 23 -64
c18 -20 43 -30 74 -30c24 0 43 10 55 30c10 16 15 34 13 55c-1 21 -7 39 -19 53c-12 18 -28 27 -48 28zM289 145c-10 -29 -24 -53 -42 -73c-11 -13 -22 -21 -33 -25c-10 -3 -21 -1 -32 5c-19 12 -35 44 -49 94c-13 52 -18 107 -16 165c4 60 15 105 34 135c18 28 43 37 73 26
c27 -9 46 -23 57 -42c1 -37 3 -93 5 -168c1 -21 1 -37 1 -48c1 -26 2 -49 2 -69zM333 409c5 7 6 14 3 22c0 4 -2 7 -4 11v83c0 8 -2 14 -8 19c-5 6 -11 7 -19 7c-7 0 -12 -2 -18 -8c-5 -5 -7 -10 -7 -18v-22c-12 8 -25 14 -39 18c-28 10 -53 10 -76 2
c-22 -8 -42 -24 -58 -49c-24 -38 -38 -91 -42 -161c-2 -62 4 -122 18 -180c17 -64 41 -105 71 -125c25 -15 50 -19 75 -11c20 7 39 20 57 40c2 2 3 4 5 6v-43c0 -7 3 -13 8 -19c6 -5 12 -7 19 -7c8 0 13 3 18 8c6 6 7 11 7 18c0 41 0 87 -2 137c2 3 3 6 3 8c2 8 1 15 -3 21
c0 16 -1 32 -2 50c0 11 0 27 -2 47c-2 64 -3 113 -4 146z" />
    <glyph glyph-name="ae" unicode="&#xe6;" horiz-adv-x="638" 
d="M281 403c1 -32 3 -79 5 -141c1 -21 1 -37 1 -48c1 -26 2 -49 2 -69c-10 -29 -24 -53 -42 -73c-11 -13 -22 -21 -33 -25c-10 -3 -21 -1 -32 5c-19 12 -35 44 -49 94c-13 52 -18 107 -16 165c4 60 15 105 34 135c18 28 43 37 73 26c1 0 2 0 2 -1c2 0 3 -1 5 -3
c4 -3 9 -7 13 -13c10 -10 20 -24 31 -42c2 -3 4 -6 6 -10zM529 417c-8 0 -17 -1 -27 -3c-6 0 -14 -1 -23 -2c0 0 -2 0 -6 -1c-3 0 -5 0 -9 -1h-7c-16 -2 -30 -3 -40 -4c-12 -1 -23 -2 -33 -3c4 12 9 23 15 31c18 28 43 37 73 26c27 -9 46 -23 57 -43zM578 369c8 0 14 3 18 9
c5 6 7 12 6 18c0 12 -6 20 -18 23c-6 21 -17 39 -35 55c-17 16 -36 27 -60 35c-28 10 -53 10 -76 2c-22 -8 -42 -24 -58 -49c-8 -12 -15 -27 -22 -44c0 37 -1 73 -1 107c0 8 -2 14 -8 19c-5 6 -11 7 -19 7c-7 0 -12 -2 -18 -8c-5 -5 -7 -10 -7 -18v-32c-14 15 -27 24 -39 28
c-28 10 -53 10 -76 2c-22 -8 -42 -24 -58 -49c-24 -38 -38 -91 -42 -161c-2 -62 4 -122 18 -180c17 -64 41 -105 71 -125c25 -15 50 -19 75 -11c20 7 39 20 57 40c2 2 3 4 5 6v-43c0 -7 3 -13 8 -19c6 -5 12 -7 19 -7c8 0 13 3 18 8c6 6 7 11 7 18v83c16 -43 36 -72 60 -88
c25 -15 49 -18 74 -10c20 7 39 20 57 40c28 32 47 68 58 108c2 7 1 14 -3 20c-4 7 -8 10 -16 12c-7 2 -13 1 -20 -3c-6 -4 -9 -8 -11 -16c-9 -32 -25 -61 -47 -86c-11 -13 -22 -21 -33 -25c-10 -3 -21 -1 -32 5c-19 12 -35 44 -49 94c-13 52 -18 107 -16 165c2 18 4 36 6 52
c16 1 32 2 50 3c11 1 25 2 42 4c1 0 3 1 7 1c4 1 7 1 10 1h4c9 2 17 2 23 2c26 3 49 5 71 7z" />
    <glyph glyph-name="ccedilla" unicode="&#xe7;" horiz-adv-x="377" 
d="M262 -94c4 6 6 13 4 20c-1 8 -4 13 -10 17c-6 5 -12 6 -20 4c-7 -1 -12 -4 -16 -10s-11 -15 -20 -26l-7 -10c-17 -22 -30 -41 -40 -55c-4 -6 -5 -12 -4 -20c2 -7 5 -12 11 -16s13 -5 20 -4c8 2 12 5 16 11c9 14 22 31 38 53c2 2 4 5 8 9c8 12 15 21 20 27zM315 471
c7 0 13 3 18 8c6 6 8 11 8 18c0 8 -2 14 -8 19c-5 6 -11 7 -18 7c-81 0 -142 -32 -184 -96c-35 -54 -49 -120 -43 -198c6 -75 30 -136 71 -184c49 -55 108 -74 177 -56c8 2 13 6 17 12s4 13 2 20c-2 8 -6 12 -12 16s-12 4 -20 2c-48 -12 -90 1 -125 40
c-34 39 -53 90 -58 154c-5 66 7 121 35 165c32 49 78 73 140 73z" />
    <glyph glyph-name="egrave" unicode="&#xe8;" horiz-adv-x="408" 
d="M308 354c-49 -7 -112 -11 -188 -11c6 45 16 79 31 103c18 28 43 37 73 26c1 0 2 0 2 -1c2 0 3 -1 5 -3c4 -3 9 -7 13 -13c10 -10 20 -24 31 -42c13 -20 24 -39 33 -59zM187 744c-3 6 -8 10 -15 12c-6 2 -13 2 -20 -2c-6 -3 -10 -8 -12 -16c-2 -7 -1 -13 2 -19
c6 -10 16 -26 32 -48c20 -27 32 -48 35 -62c2 -6 6 -12 12 -16s13 -4 20 -2c8 2 12 5 16 11s5 13 3 20c-3 14 -9 28 -19 43c-5 10 -13 22 -25 37c-14 20 -24 34 -29 42zM351 309c8 2 13 5 17 11s6 13 4 19c-1 6 -3 10 -7 14c-8 24 -24 54 -47 89c-12 19 -23 35 -35 47
c-15 18 -29 28 -42 32c-28 10 -53 10 -76 2c-22 -8 -42 -24 -58 -49c-24 -38 -38 -91 -42 -161c-2 -62 4 -122 18 -180c17 -64 41 -105 71 -125c25 -15 50 -19 75 -11c20 7 39 20 57 40c28 32 47 68 58 108c2 7 1 14 -3 20c-4 7 -8 10 -16 12c-7 2 -13 1 -20 -3
c-6 -4 -9 -8 -11 -16c-9 -32 -25 -61 -47 -86c-11 -13 -22 -21 -33 -25c-10 -3 -21 -1 -32 5c-19 12 -35 44 -49 94c-11 46 -16 94 -16 145c46 0 83 1 113 3c42 3 82 8 121 15z" />
    <glyph glyph-name="eacute" unicode="&#xe9;" horiz-adv-x="408" 
d="M308 354c-49 -7 -112 -11 -188 -11c6 45 16 79 31 103c18 28 43 37 73 26c1 0 2 0 2 -1c2 0 3 -1 5 -3c4 -3 9 -7 13 -13c10 -10 20 -24 31 -42c13 -20 24 -39 33 -59zM195 627c-4 -6 -5 -12 -3 -20c2 -7 5 -12 11 -16s13 -4 20 -3c8 2 12 6 16 12c9 14 22 33 39 57l2 2
c1 2 2 3 3 5c2 2 2 3 2 3c13 18 23 32 29 42c4 6 6 13 4 20c-1 8 -5 12 -11 16s-12 6 -20 4c-7 -1 -12 -5 -16 -11c-6 -10 -16 -23 -28 -41c-1 -1 -3 -4 -7 -8v-2c-18 -25 -31 -45 -41 -60zM351 309c8 2 13 5 17 11s6 13 4 19c-1 6 -3 10 -7 14c-8 24 -24 54 -47 89
c-12 19 -23 35 -35 47c-15 18 -29 28 -42 32c-28 10 -53 10 -76 2c-22 -8 -42 -24 -58 -49c-24 -38 -38 -91 -42 -161c-2 -62 4 -122 18 -180c17 -64 41 -105 71 -125c25 -15 50 -19 75 -11c20 7 39 20 57 40c28 32 47 68 58 108c2 7 1 14 -3 20c-4 7 -8 10 -16 12
c-7 2 -13 1 -20 -3c-6 -4 -9 -8 -11 -16c-9 -32 -25 -61 -47 -86c-11 -13 -22 -21 -33 -25c-10 -3 -21 -1 -32 5c-19 12 -35 44 -49 94c-11 46 -16 94 -16 145c46 0 83 1 113 3c42 3 82 8 121 15z" />
    <glyph glyph-name="ecircumflex" unicode="&#xea;" horiz-adv-x="408" 
d="M308 354c-49 -7 -112 -11 -188 -11c6 45 16 79 31 103c18 28 43 37 73 26c1 0 2 0 2 -1c2 0 3 -1 5 -3c4 -3 9 -7 13 -13c10 -10 20 -24 31 -42c13 -20 24 -39 33 -59zM266 728c-3 6 -8 10 -16 11c-7 2 -13 0 -19 -4c-2 0 -3 -2 -5 -4h-4c-12 -3 -25 -11 -40 -23
c-9 -8 -20 -20 -32 -34c0 0 -6 -7 -16 -19s-15 -18 -17 -20c-4 -5 -6 -11 -6 -19c1 -7 3 -12 8 -18c6 -5 12 -6 19 -6c8 1 13 3 18 8c2 2 5 6 10 12c6 6 10 12 15 18c6 6 8 10 8 10c11 13 20 22 28 28c8 8 14 12 18 12l1 1c4 -4 10 -12 18 -24c18 -23 30 -40 35 -52
c2 -2 3 -5 3 -8c2 -6 7 -11 13 -15c7 -3 14 -3 20 -1c7 3 12 7 15 13c4 7 4 13 1 20c-1 4 -2 8 -4 12c-7 16 -21 37 -42 63c-14 19 -24 32 -29 39zM351 309c8 2 13 5 17 11s6 13 4 19c-1 6 -3 10 -7 14c-8 24 -24 54 -47 89c-12 19 -23 35 -35 47c-15 18 -29 28 -42 32
c-28 10 -53 10 -76 2c-22 -8 -42 -24 -58 -49c-24 -38 -38 -91 -42 -161c-2 -62 4 -122 18 -180c17 -64 41 -105 71 -125c25 -15 50 -19 75 -11c20 7 39 20 57 40c28 32 47 68 58 108c2 7 1 14 -3 20c-4 7 -8 10 -16 12c-7 2 -13 1 -20 -3c-6 -4 -9 -8 -11 -16
c-9 -32 -25 -61 -47 -86c-11 -13 -22 -21 -33 -25c-10 -3 -21 -1 -32 5c-19 12 -35 44 -49 94c-11 46 -16 94 -16 145c46 0 83 1 113 3c42 3 82 8 121 15z" />
    <glyph glyph-name="edieresis" unicode="&#xeb;" horiz-adv-x="408" 
d="M308 354c-49 -7 -112 -11 -188 -11c6 45 16 79 31 103c18 28 43 37 73 26c1 0 2 0 2 -1c2 0 3 -1 5 -3c4 -3 9 -7 13 -13c10 -10 20 -24 31 -42c13 -20 24 -39 33 -59zM116 663c-4 -4 -7 -10 -7 -18c0 -7 3 -12 8 -18c6 -5 11 -8 18 -8c8 0 13 3 18 8c6 6 8 12 8 19
c0 8 -2 13 -8 18c-5 6 -11 7 -19 7c-7 0 -12 -2 -18 -8zM270 661c-4 -4 -7 -10 -7 -18c0 -7 3 -12 8 -18c6 -5 11 -8 18 -8c8 0 13 3 18 8c6 6 8 12 8 19c0 8 -2 13 -8 18c-5 6 -11 7 -19 7c-7 0 -12 -2 -18 -8zM351 309c8 2 13 5 17 11s6 13 4 19c-1 6 -3 10 -7 14
c-8 24 -24 54 -47 89c-12 19 -23 35 -35 47c-15 18 -29 28 -42 32c-28 10 -53 10 -76 2c-22 -8 -42 -24 -58 -49c-24 -38 -38 -91 -42 -161c-2 -62 4 -122 18 -180c17 -64 41 -105 71 -125c25 -15 50 -19 75 -11c20 7 39 20 57 40c28 32 47 68 58 108c2 7 1 14 -3 20
c-4 7 -8 10 -16 12c-7 2 -13 1 -20 -3c-6 -4 -9 -8 -11 -16c-9 -32 -25 -61 -47 -86c-11 -13 -22 -21 -33 -25c-10 -3 -21 -1 -32 5c-19 12 -35 44 -49 94c-11 46 -16 94 -16 145c46 0 83 1 113 3c42 3 82 8 121 15z" />
    <glyph glyph-name="igrave" unicode="&#xec;" horiz-adv-x="204" 
d="M46 757c-4 6 -10 9 -18 9c-7 1 -13 -2 -19 -7c-6 -4 -8 -10 -9 -18c0 -7 3 -13 7 -19c20 -22 47 -56 81 -102c4 -6 10 -9 17 -11c8 -1 14 2 20 6c6 5 9 10 10 17c2 8 -1 13 -6 19c-34 48 -62 83 -83 106zM132 512c0 8 -2 14 -8 19c-5 6 -10 7 -18 7c-7 0 -13 -2 -19 -8
c-5 -5 -7 -10 -7 -18c0 -10 0 -31 -2 -62c0 -6 -1 -23 -3 -51c-1 -28 -2 -43 -2 -47c-2 -30 -3 -58 -4 -82c-3 -68 -4 -123 -4 -163c2 -56 7 -91 16 -105c4 -6 10 -9 17 -11c8 -1 13 0 19 4s10 10 11 17c2 8 0 13 -4 19c0 2 0 3 -1 4c-1 4 -2 10 -3 17c-1 14 -2 33 -3 56
c0 40 1 93 4 160c1 24 2 51 3 82c1 3 2 18 3 46c2 28 3 46 3 52c2 32 2 53 2 64z" />
    <glyph glyph-name="iacute" unicode="&#xed;" horiz-adv-x="268" 
d="M146 627c-3 -6 -3 -13 -1 -20c3 -6 8 -11 14 -15c7 -3 13 -3 20 -1c8 3 12 7 14 13c10 20 26 47 48 79c0 1 1 2 2 3c2 2 2 3 2 4c1 2 2 2 2 2l1 2c5 7 9 13 11 17c4 6 6 13 4 20c-1 8 -5 12 -11 16s-12 6 -20 4c-7 -1 -12 -5 -16 -11c-2 -4 -6 -9 -11 -16l-2 -2
c0 -2 -1 -4 -3 -6c-1 -2 -2 -2 -3 -3c-23 -35 -40 -64 -51 -86zM197 512c0 8 -2 14 -8 19c-5 6 -10 7 -18 7c-7 0 -13 -2 -19 -8c-5 -5 -7 -10 -7 -18c0 -10 0 -31 -2 -62c0 -6 -1 -23 -3 -51c-1 -28 -2 -43 -2 -47c-2 -30 -3 -58 -4 -82c-3 -68 -4 -123 -4 -163
c2 -56 7 -91 16 -105c4 -6 10 -9 17 -11c8 -1 13 0 19 4s10 10 11 17c2 8 0 13 -4 19c0 2 0 3 -1 4c-1 4 -2 10 -3 17c-1 14 -2 33 -3 56c0 40 1 93 4 160c1 24 2 51 3 82c1 3 2 18 3 46c2 28 3 46 3 52c2 32 2 53 2 64z" />
    <glyph glyph-name="icircumflex" unicode="&#xee;" horiz-adv-x="292" 
d="M151 700c-6 8 -15 11 -25 9c-12 8 -23 7 -33 -3c-2 -3 -6 -6 -10 -10l-8 -8l-4 -3l-4 -4c-22 -22 -40 -40 -52 -55c-4 -5 -5 -11 -5 -19c1 -7 4 -13 9 -18c6 -4 12 -5 19 -5c8 1 14 4 18 9c11 13 27 30 48 50c1 1 2 3 4 5c2 3 4 3 4 3l7 7c4 -5 10 -13 17 -23
c1 0 2 -1 2 -3c1 -1 2 -2 2 -4c18 -24 33 -42 43 -53c6 -5 12 -8 19 -8c8 0 13 3 18 8c6 6 8 12 8 19c0 8 -2 13 -8 18c-8 9 -21 25 -37 47l-1 1c0 2 -1 2 -2 2c0 2 -1 3 -2 3c-10 16 -19 27 -27 35zM137 512c0 8 -2 14 -8 19c-5 6 -10 7 -18 7c-7 0 -13 -2 -19 -8
c-5 -5 -7 -10 -7 -18c0 -10 0 -31 -2 -62c0 -6 -1 -23 -3 -51c-1 -28 -2 -43 -2 -47c-2 -30 -3 -58 -4 -82c-3 -68 -4 -123 -4 -163c2 -56 7 -91 16 -105c4 -6 10 -9 17 -11c8 -1 13 0 19 4s10 10 11 17c2 8 0 13 -4 19c0 2 0 3 -1 4c-1 4 -2 10 -3 17c-1 14 -2 33 -3 56
c0 40 1 93 4 160c1 24 2 51 3 82c1 3 2 18 3 46c2 28 3 46 3 52c2 32 2 53 2 64z" />
    <glyph glyph-name="idieresis" unicode="&#xef;" horiz-adv-x="274" 
d="M9 661c-4 -4 -7 -10 -7 -18c0 -7 3 -12 8 -18c6 -5 11 -8 18 -8c8 0 13 3 18 8c6 6 8 12 8 19c0 8 -2 13 -8 18c-5 6 -11 7 -19 7c-7 0 -12 -2 -18 -8zM161 669c-4 -4 -7 -10 -7 -18c0 -7 3 -12 8 -18c6 -5 11 -8 18 -8c8 0 13 3 18 8c6 6 8 12 8 19c0 8 -2 13 -8 18
c-5 6 -11 7 -19 7c-7 0 -12 -2 -18 -8zM133 512c0 8 -2 14 -8 19c-5 6 -10 7 -18 7c-7 0 -13 -2 -19 -8c-5 -5 -7 -10 -7 -18c0 -10 0 -31 -2 -62c0 -6 -1 -23 -3 -51c-1 -28 -2 -43 -2 -47c-2 -30 -3 -58 -4 -82c-3 -68 -4 -123 -4 -163c2 -56 7 -91 16 -105
c4 -6 10 -9 17 -11c8 -1 13 0 19 4s10 10 11 17c2 8 0 13 -4 19c0 2 0 3 -1 4c-1 4 -2 10 -3 17c-1 14 -2 33 -3 56c0 40 1 93 4 160c1 24 2 51 3 82c1 3 2 18 3 46c2 28 3 46 3 52c2 32 2 53 2 64z" />
    <glyph glyph-name="eth" unicode="&#xf0;" horiz-adv-x="446" 
d="M340 409c3 -10 6 -21 8 -32c25 -101 32 -185 21 -252c-5 -34 -15 -60 -29 -79c-13 -18 -31 -29 -54 -33c-52 -7 -91 11 -118 55c-26 43 -36 96 -28 160c8 65 30 115 66 150s81 45 134 31zM187 725c-29 -24 -54 -49 -75 -73c-4 -5 -6 -11 -6 -19c1 -7 3 -12 9 -17
c6 -4 12 -6 19 -6c8 1 13 3 17 9c19 22 42 43 68 65c11 -14 21 -31 31 -49c28 -50 52 -106 73 -170c-59 8 -110 -9 -153 -50c-45 -43 -72 -103 -82 -181c-8 -76 3 -140 35 -194c19 -30 43 -52 72 -66c30 -14 62 -17 98 -12c38 6 67 23 89 52c20 26 33 61 39 103
c12 74 4 165 -23 272c-3 14 -6 28 -10 41c0 5 -2 9 -4 13c-24 81 -53 153 -89 217c-11 21 -22 39 -34 55c18 12 33 20 45 24c7 2 12 7 15 13c4 7 4 13 1 20c-2 8 -6 12 -13 15c-6 4 -12 4 -20 1c-17 -6 -37 -16 -60 -32c-27 31 -54 50 -81 57c-6 2 -13 1 -20 -3
c-6 -3 -10 -8 -12 -16c-2 -7 0 -13 3 -20c4 -6 9 -10 16 -12c16 -4 34 -16 52 -37z" />
    <glyph glyph-name="ntilde" unicode="&#xf1;" horiz-adv-x="436" 
d="M247 419c4 1 6 2 8 4c35 29 63 44 84 44c14 0 26 -7 35 -23c21 -34 31 -101 29 -200c0 -34 -1 -76 -5 -128c0 -1 0 -6 -1 -15c0 -8 -1 -16 -2 -25c0 -8 0 -14 -1 -18c-1 -18 -2 -33 -2 -43c0 -6 3 -12 8 -18c6 -5 12 -8 19 -8c8 0 13 3 18 8c6 6 7 12 7 18c0 9 1 22 2 40
c0 4 1 10 1 18c1 9 2 18 2 26c1 9 1 13 1 14c4 52 5 96 5 131c1 48 -1 90 -6 124c-6 44 -16 78 -31 102c-19 34 -46 50 -81 49c-27 0 -58 -13 -92 -38v45c0 8 -2 14 -8 19c-5 6 -10 7 -18 7c-7 0 -13 -2 -19 -8c-5 -5 -7 -10 -7 -18c0 -43 2 -98 5 -165c1 -10 2 -25 3 -46
c4 -70 7 -123 7 -158c2 -58 1 -109 -3 -154c0 -7 2 -13 6 -19c5 -5 11 -8 18 -9c8 0 13 2 19 6c6 5 8 11 8 18c4 47 6 100 4 159c-1 36 -3 89 -7 160c-1 21 -2 36 -3 46c-1 20 -2 39 -3 55zM178 615c0 -6 3 -12 8 -18c6 -5 11 -8 18 -8c8 0 13 3 18 8c6 6 8 12 8 18
s1 11 1 14c0 2 1 3 1 3h2c5 0 12 -1 22 -5c7 -2 18 -7 34 -14c3 -1 5 -2 6 -3c18 -7 31 -12 41 -15c17 -5 32 -7 44 -5c19 3 33 12 42 28c9 14 13 33 13 57c0 8 -2 14 -8 19c-5 6 -11 7 -19 7c-7 0 -12 -2 -18 -8c-5 -5 -7 -10 -7 -18c0 -14 -2 -24 -6 -30c0 -2 -2 -3 -4 -3
c-9 -1 -28 4 -57 16l-6 3c-17 8 -30 13 -38 15c-15 6 -28 8 -39 8c-18 0 -33 -6 -43 -19c-8 -12 -13 -28 -13 -50z" />
    <glyph glyph-name="ograve" unicode="&#xf2;" horiz-adv-x="376" 
d="M275 466c3 -3 6 -7 9 -13c8 -14 15 -34 20 -60c11 -50 14 -108 9 -174c-4 -66 -16 -117 -34 -155c-8 -16 -16 -27 -25 -33c-6 -4 -12 -4 -20 -1c-28 13 -48 45 -62 97c-13 52 -16 109 -8 171s23 109 47 140c19 25 40 34 64 28zM302 512c-6 6 -14 10 -22 12
c-8 4 -16 2 -24 -4c-33 -1 -62 -18 -86 -50c-30 -39 -49 -94 -58 -166c-8 -68 -5 -131 9 -190c18 -68 49 -112 92 -132c25 -10 48 -9 69 5c18 11 32 29 44 55c21 43 34 101 39 173c5 70 2 133 -10 189c-6 30 -15 55 -26 74c-1 3 -2 6 -4 8c0 11 -6 19 -16 23c-2 2 -4 3 -7 3
zM251 737c-3 6 -8 10 -16 12c-7 2 -13 1 -20 -3c-6 -3 -10 -8 -12 -16c-2 -7 0 -13 3 -20c12 -20 30 -47 52 -81c1 -1 3 -4 6 -9c4 -4 5 -7 5 -8c5 -6 9 -12 12 -17c4 -6 10 -9 17 -11c8 -1 13 0 19 4s10 10 11 17c2 8 0 13 -4 19c-3 5 -7 11 -12 17c0 1 -1 4 -5 8
c-3 5 -4 8 -6 9c-22 33 -38 59 -50 79z" />
    <glyph glyph-name="oacute" unicode="&#xf3;" horiz-adv-x="376" 
d="M275 466c3 -3 6 -7 9 -13c8 -14 15 -34 20 -60c11 -50 14 -108 9 -174c-4 -66 -16 -117 -34 -155c-8 -16 -16 -27 -25 -33c-6 -4 -12 -4 -20 -1c-28 13 -48 45 -62 97c-13 52 -16 109 -8 171s23 109 47 140c19 25 40 34 64 28zM302 512c-6 6 -14 10 -22 12
c-8 4 -16 2 -24 -4c-33 -1 -62 -18 -86 -50c-30 -39 -49 -94 -58 -166c-8 -68 -5 -131 9 -190c18 -68 49 -112 92 -132c25 -10 48 -9 69 5c18 11 32 29 44 55c21 43 34 101 39 173c5 70 2 133 -10 189c-6 30 -15 55 -26 74c-1 3 -2 6 -4 8c0 11 -6 19 -16 23c-2 2 -4 3 -7 3
zM221 611c-1 -7 0 -14 4 -20s10 -9 17 -11c8 -1 13 0 19 4s10 10 11 16c2 6 4 13 6 20c7 17 19 38 35 64c2 4 5 7 7 11c2 2 3 4 4 6c1 1 2 2 2 3c1 2 2 3 2 3c4 6 6 13 4 20c-1 8 -5 12 -11 16s-12 6 -20 4c-7 -1 -12 -5 -16 -11c0 0 -1 -1 -2 -3c0 -1 -1 -2 -2 -3
c-1 -2 -2 -4 -4 -6c-2 -4 -5 -8 -8 -12c-18 -28 -31 -53 -39 -73c-4 -10 -7 -19 -9 -28z" />
    <glyph glyph-name="ocircumflex" unicode="&#xf4;" horiz-adv-x="394" 
d="M275 466c3 -3 6 -7 9 -13c8 -14 15 -34 20 -60c11 -50 14 -108 9 -174c-4 -66 -16 -117 -34 -155c-8 -16 -16 -27 -25 -33c-6 -4 -12 -4 -20 -1c-28 13 -48 45 -62 97c-13 52 -16 109 -8 171s23 109 47 140c19 25 40 34 64 28zM302 512c-6 6 -14 10 -22 12
c-8 4 -16 2 -24 -4c-33 -1 -62 -18 -86 -50c-30 -39 -49 -94 -58 -166c-8 -68 -5 -131 9 -190c18 -68 49 -112 92 -132c25 -10 48 -9 69 5c18 11 32 29 44 55c21 43 34 101 39 173c5 70 2 133 -10 189c-6 30 -15 55 -26 74c-1 3 -2 6 -4 8c0 11 -6 19 -16 23c-2 2 -4 3 -7 3
zM330 696c-12 20 -21 34 -29 43c-7 10 -16 13 -27 10c-10 3 -18 1 -26 -7c-26 -26 -55 -65 -87 -117c-4 -6 -5 -12 -3 -20c2 -7 5 -12 11 -16s13 -4 20 -2c8 2 12 5 16 11c25 40 47 71 67 93c4 -5 8 -12 14 -22c0 0 1 -2 3 -5c2 -2 2 -3 2 -4c20 -31 36 -53 49 -67
c6 -5 12 -8 19 -8c8 0 13 3 18 8c6 6 8 12 8 19c0 8 -2 13 -8 18c-10 11 -24 30 -42 58l-2 4c-1 2 -2 4 -3 4z" />
    <glyph glyph-name="otilde" unicode="&#xf5;" horiz-adv-x="390" 
d="M275 466c3 -3 6 -7 9 -13c8 -14 15 -34 20 -60c11 -50 14 -108 9 -174c-4 -66 -16 -117 -34 -155c-8 -16 -16 -27 -25 -33c-6 -4 -12 -4 -20 -1c-28 13 -48 45 -62 97c-13 52 -16 109 -8 171s23 109 47 140c19 25 40 34 64 28zM302 512c-6 6 -14 10 -22 12
c-8 4 -16 2 -24 -4c-33 -1 -62 -18 -86 -50c-30 -39 -49 -94 -58 -166c-8 -68 -5 -131 9 -190c18 -68 49 -112 92 -132c25 -10 48 -9 69 5c18 11 32 29 44 55c21 43 34 101 39 173c5 70 2 133 -10 189c-6 30 -15 55 -26 74c-1 3 -2 6 -4 8c0 11 -6 19 -16 23c-2 2 -4 3 -7 3
zM129 611c0 -6 3 -12 8 -18c6 -5 11 -8 18 -8c8 0 13 3 18 8c6 6 8 12 8 18c0 14 2 23 4 27v1h2c5 0 12 -1 22 -5c7 -2 18 -8 34 -16c18 -8 31 -13 39 -17c17 -6 31 -9 42 -9c20 1 34 9 44 24c9 14 13 32 13 55c0 8 -2 14 -8 19c-5 6 -11 7 -19 7c-7 0 -12 -2 -18 -8
c-5 -5 -7 -10 -7 -18c0 -13 -1 -22 -5 -26c0 0 -1 -1 -2 -1c-4 0 -12 2 -22 6c-6 3 -18 8 -34 15c-17 9 -30 15 -39 17c-16 6 -30 9 -42 9c-19 0 -34 -8 -44 -24c-8 -13 -12 -32 -12 -56z" />
    <glyph glyph-name="odieresis" unicode="&#xf6;" horiz-adv-x="376" 
d="M275 466c3 -3 6 -7 9 -13c8 -14 15 -34 20 -60c11 -50 14 -108 9 -174c-4 -66 -16 -117 -34 -155c-8 -16 -16 -27 -25 -33c-6 -4 -12 -4 -20 -1c-28 13 -48 45 -62 97c-13 52 -16 109 -8 171s23 109 47 140c19 25 40 34 64 28zM302 512c-6 6 -14 10 -22 12
c-8 4 -16 2 -24 -4c-33 -1 -62 -18 -86 -50c-30 -39 -49 -94 -58 -166c-8 -68 -5 -131 9 -190c18 -68 49 -112 92 -132c25 -10 48 -9 69 5c18 11 32 29 44 55c21 43 34 101 39 173c5 70 2 133 -10 189c-6 30 -15 55 -26 74c-1 3 -2 6 -4 8c0 11 -6 19 -16 23c-2 2 -4 3 -7 3
zM156 675c-4 -4 -7 -10 -7 -18c0 -7 3 -12 8 -18c6 -5 11 -8 18 -8c8 0 13 3 18 8c6 6 8 12 8 19c0 8 -2 13 -8 18c-5 6 -11 7 -19 7c-7 0 -12 -2 -18 -8zM322 659c-4 -4 -7 -10 -7 -18c0 -7 3 -12 8 -18c6 -5 11 -8 18 -8c8 0 13 3 18 8c6 6 8 12 8 19c0 8 -2 13 -8 18
c-5 6 -11 7 -19 7c-7 0 -12 -2 -18 -8z" />
    <glyph glyph-name="divide" unicode="&#xf7;" horiz-adv-x="420" 
d="M231 547c-4 -4 -7 -10 -7 -18c0 -7 3 -12 8 -18c6 -5 11 -8 18 -8c8 0 13 3 18 8c6 6 8 12 8 19c0 8 -2 13 -8 18c-5 6 -11 7 -19 7c-7 0 -12 -2 -18 -8zM237 269c-4 -4 -7 -10 -7 -18c0 -7 3 -12 8 -18c6 -5 11 -8 18 -8c8 0 13 3 18 8c6 6 8 12 8 19c0 8 -2 13 -8 18
c-5 6 -11 7 -19 7c-7 0 -12 -2 -18 -8zM112 429c-7 0 -13 -2 -19 -8c-5 -5 -7 -10 -7 -18c0 -7 3 -12 8 -18c6 -5 11 -8 18 -8c28 0 70 -1 126 -4c58 -4 101 -6 130 -6c7 0 13 3 18 8c6 6 8 12 8 19c0 8 -2 13 -8 18c-5 6 -11 7 -18 7c-28 0 -70 2 -127 5
c-57 4 -100 5 -129 5z" />
    <glyph glyph-name="oslash" unicode="&#xf8;" 
d="M269 378c-13 -18 -23 -31 -30 -40c-35 -50 -65 -96 -91 -136c-7 -12 -14 -25 -22 -37c-6 43 -6 87 -1 133c8 62 24 109 48 140c19 25 40 34 64 28c3 -3 6 -7 9 -13c8 -14 15 -34 20 -60c1 -4 2 -9 3 -15zM276 300c2 -27 1 -54 -1 -81c-4 -66 -16 -117 -34 -155
c-8 -16 -16 -27 -25 -33c-6 -4 -12 -4 -20 -1c-20 10 -37 31 -51 63c14 26 29 53 47 81c24 38 52 80 84 126zM116 35c16 -24 36 -42 59 -53c25 -10 48 -9 69 5c18 11 32 29 44 55c21 43 34 101 39 173c4 53 2 103 -4 150c10 14 22 30 36 49c14 20 25 35 34 47
c10 13 15 21 17 23c4 6 6 13 4 20c-1 8 -5 13 -11 17c-6 5 -11 6 -19 4c-7 -1 -12 -4 -17 -10c0 -1 -20 -28 -58 -81c-5 17 -11 32 -18 44c-1 3 -2 6 -4 8c0 11 -6 19 -16 23c-2 2 -4 3 -7 3c-6 6 -14 10 -22 12c-8 4 -16 2 -24 -4c-33 -1 -62 -18 -86 -50
c-30 -39 -49 -94 -58 -166c-8 -68 -5 -131 9 -190c2 -6 4 -11 5 -17c-20 -38 -35 -74 -46 -107c-2 -7 -1 -14 2 -21c4 -6 8 -10 15 -13c8 -2 14 -1 20 2c7 4 10 9 12 15c7 20 15 40 25 62z" />
    <glyph glyph-name="ugrave" unicode="&#xf9;" horiz-adv-x="408" 
d="M250 741c-5 6 -11 9 -19 9c-7 1 -12 -2 -18 -8c-5 -5 -8 -10 -9 -18c0 -7 3 -12 7 -18c22 -24 47 -56 74 -97c4 -6 10 -9 17 -11c8 -1 13 0 19 4s10 10 11 17c2 8 0 13 -4 19c-28 43 -54 77 -78 103zM401 501c1 8 -1 14 -6 19c-4 6 -10 9 -18 9c-7 1 -13 -1 -19 -6
c-5 -4 -8 -10 -9 -18c-5 -66 -5 -154 -1 -262c1 -12 2 -29 2 -53c3 -52 5 -91 5 -117c-10 5 -19 3 -28 -5c-18 -16 -34 -25 -48 -27c-8 0 -17 4 -25 12c-20 22 -35 66 -46 133c-9 53 -14 115 -16 187c0 54 1 94 3 119c1 8 -1 14 -6 19c-4 6 -10 9 -18 10c-7 2 -13 -1 -19 -6
c-6 -4 -8 -10 -9 -18c-2 -27 -3 -69 -3 -125c2 -74 8 -139 16 -195c13 -76 33 -129 60 -159c20 -21 42 -31 68 -29c23 2 47 14 72 36v-22c0 -7 3 -13 8 -19c6 -5 11 -7 18 -7c8 0 14 3 19 8c6 6 7 11 7 18c0 42 -2 105 -6 189c0 24 -1 42 -2 54c-4 106 -4 191 1 255z" />
    <glyph glyph-name="uacute" unicode="&#xfa;" horiz-adv-x="408" 
d="M242 625c-4 -5 -6 -11 -5 -19c2 -7 4 -13 10 -18c6 -4 12 -5 19 -4c8 2 13 4 17 10c2 2 7 8 14 17c8 10 11 14 11 15c30 38 49 69 57 95c3 7 3 14 -1 20c-3 7 -8 12 -15 14c-6 3 -13 2 -20 -2c-6 -3 -11 -8 -13 -15c-6 -20 -23 -47 -49 -80c0 -1 -4 -6 -12 -16
c-7 -9 -11 -14 -13 -17zM401 501c1 8 -1 14 -6 19c-4 6 -10 9 -18 9c-7 1 -13 -1 -19 -6c-5 -4 -8 -10 -9 -18c-5 -66 -5 -154 -1 -262c1 -12 2 -29 2 -53c3 -52 5 -91 5 -117c-10 5 -19 3 -28 -5c-18 -16 -34 -25 -48 -27c-8 0 -17 4 -25 12c-20 22 -35 66 -46 133
c-9 53 -14 115 -16 187c0 54 1 94 3 119c1 8 -1 14 -6 19c-4 6 -10 9 -18 10c-7 2 -13 -1 -19 -6c-6 -4 -8 -10 -9 -18c-2 -27 -3 -69 -3 -125c2 -74 8 -139 16 -195c13 -76 33 -129 60 -159c20 -21 42 -31 68 -29c23 2 47 14 72 36v-22c0 -7 3 -13 8 -19c6 -5 11 -7 18 -7
c8 0 14 3 19 8c6 6 7 11 7 18c0 42 -2 105 -6 189c0 24 -1 42 -2 54c-4 106 -4 191 1 255z" />
    <glyph glyph-name="ucircumflex" unicode="&#xfb;" horiz-adv-x="408" 
d="M162 632c-4 -5 -5 -11 -5 -19c1 -7 4 -13 9 -18c6 -4 12 -5 19 -5c8 1 14 4 18 9c3 4 9 11 18 23c10 12 15 18 16 19c10 13 18 22 23 27l7 7v-1c4 -2 9 -8 16 -18c23 -28 43 -51 61 -69c6 -5 12 -8 19 -8c8 0 13 3 18 8c6 6 8 12 8 19c0 8 -2 13 -8 18
c-16 17 -36 39 -58 65c-8 11 -15 18 -19 22c-8 8 -16 14 -25 16c-10 4 -21 2 -33 -4c-7 -4 -15 -10 -24 -19c-6 -6 -14 -16 -25 -30c-1 -1 -7 -8 -17 -20s-15 -18 -18 -22zM401 501c1 8 -1 14 -6 19c-4 6 -10 9 -18 9c-7 1 -13 -1 -19 -6c-5 -4 -8 -10 -9 -18
c-5 -66 -5 -154 -1 -262c1 -12 2 -29 2 -53c3 -52 5 -91 5 -117c-10 5 -19 3 -28 -5c-18 -16 -34 -25 -48 -27c-8 0 -17 4 -25 12c-20 22 -35 66 -46 133c-9 53 -14 115 -16 187c0 54 1 94 3 119c1 8 -1 14 -6 19c-4 6 -10 9 -18 10c-7 2 -13 -1 -19 -6c-6 -4 -8 -10 -9 -18
c-2 -27 -3 -69 -3 -125c2 -74 8 -139 16 -195c13 -76 33 -129 60 -159c20 -21 42 -31 68 -29c23 2 47 14 72 36v-22c0 -7 3 -13 8 -19c6 -5 11 -7 18 -7c8 0 14 3 19 8c6 6 7 11 7 18c0 42 -2 105 -6 189c0 24 -1 42 -2 54c-4 106 -4 191 1 255z" />
    <glyph glyph-name="udieresis" unicode="&#xfc;" horiz-adv-x="408" 
d="M174 663c-4 -4 -7 -10 -7 -18c0 -7 3 -12 8 -18c6 -5 11 -8 18 -8c8 0 13 3 18 8c6 6 8 12 8 19c0 8 -2 13 -8 18c-5 6 -11 7 -19 7c-7 0 -12 -2 -18 -8zM340 657c-4 -4 -7 -10 -7 -18c0 -7 3 -12 8 -18c6 -5 11 -8 18 -8c8 0 13 3 18 8c6 6 8 12 8 19c0 8 -2 13 -8 18
c-5 6 -11 7 -19 7c-7 0 -12 -2 -18 -8zM401 501c1 8 -1 14 -6 19c-4 6 -10 9 -18 9c-7 1 -13 -1 -19 -6c-5 -4 -8 -10 -9 -18c-5 -66 -5 -154 -1 -262c1 -12 2 -29 2 -53c3 -52 5 -91 5 -117c-10 5 -19 3 -28 -5c-18 -16 -34 -25 -48 -27c-8 0 -17 4 -25 12
c-20 22 -35 66 -46 133c-9 53 -14 115 -16 187c0 54 1 94 3 119c1 8 -1 14 -6 19c-4 6 -10 9 -18 10c-7 2 -13 -1 -19 -6c-6 -4 -8 -10 -9 -18c-2 -27 -3 -69 -3 -125c2 -74 8 -139 16 -195c13 -76 33 -129 60 -159c20 -21 42 -31 68 -29c23 2 47 14 72 36v-22
c0 -7 3 -13 8 -19c6 -5 11 -7 18 -7c8 0 14 3 19 8c6 6 7 11 7 18c0 42 -2 105 -6 189c0 24 -1 42 -2 54c-4 106 -4 191 1 255z" />
    <glyph glyph-name="yacute" unicode="&#xfd;" horiz-adv-x="389" 
d="M244 632c-3 -6 -4 -13 -2 -20c2 -6 7 -12 13 -16c7 -4 13 -3 19 -1c7 3 12 6 15 12c28 50 50 84 68 102c6 6 8 12 8 19c0 8 -2 13 -8 18c-5 6 -11 7 -19 7c-7 0 -12 -2 -18 -7c-13 -14 -27 -32 -43 -56c-9 -14 -20 -34 -33 -58zM195 492c1 8 -1 14 -6 19
c-4 6 -10 9 -18 10c-7 2 -13 -1 -19 -6c-6 -4 -8 -10 -9 -18c-2 -27 -3 -69 -3 -125c2 -74 8 -139 16 -195c13 -76 33 -129 60 -159c20 -21 42 -31 68 -29c17 2 34 8 51 20c-2 -30 -5 -55 -9 -77c-10 -51 -24 -77 -44 -79c-24 -2 -42 3 -55 15c-12 13 -20 26 -25 40
c-2 7 -6 12 -13 15c-6 4 -13 4 -20 1c-6 -2 -11 -6 -15 -13c-3 -6 -3 -12 -1 -19c8 -22 20 -42 38 -60c24 -24 55 -34 95 -31c26 2 47 16 63 41c12 20 22 46 28 80c10 52 14 125 11 217c0 40 -3 88 -7 146l-6 92c-1 28 -2 47 -2 57c1 6 1 14 1 25c1 20 2 32 3 38
c2 7 1 14 -3 20c-4 7 -8 10 -15 12c-6 2 -13 0 -20 -4c-6 -4 -10 -8 -12 -15c-2 -9 -4 -26 -5 -50c0 -10 0 -18 -1 -24c0 -12 0 -32 2 -62c1 -12 3 -43 6 -93c4 -56 7 -104 7 -143c1 -22 1 -44 1 -64c-4 -1 -7 -3 -10 -6c-18 -16 -34 -25 -48 -27c-8 0 -17 4 -25 12
c-20 22 -35 66 -46 133c-9 53 -14 115 -16 187c0 54 1 94 3 119z" />
    <glyph glyph-name="thorn" unicode="&#xfe;" horiz-adv-x="429" 
d="M214 159c0 55 0 107 -1 157c0 16 0 31 -1 46c4 2 6 5 7 9c5 10 13 21 23 33c11 12 22 22 33 30c13 9 25 14 35 14c10 2 18 -1 24 -8c18 -15 30 -49 38 -101c9 -52 10 -105 2 -159c-7 -54 -20 -90 -40 -109c-7 -7 -15 -11 -24 -11c-11 1 -25 8 -42 21
c-22 20 -34 37 -34 52c0 14 -6 23 -20 26zM214 61c6 -6 13 -12 21 -19c25 -21 49 -32 72 -34c24 -1 46 8 64 26c28 28 46 74 54 139c9 59 9 117 -1 174c-10 65 -28 109 -55 132c-18 17 -40 24 -65 21c-18 -2 -38 -9 -58 -23c-12 -8 -23 -18 -35 -30c-3 138 -9 263 -18 374
c0 8 -3 14 -9 18c-6 5 -11 7 -19 6c-7 0 -12 -3 -17 -9c-4 -6 -6 -11 -6 -19c11 -141 17 -308 19 -501c1 -77 1 -193 1 -347v-142c0 -6 3 -12 8 -18c6 -5 11 -8 18 -8c8 0 13 3 18 8c6 6 8 12 8 18v142v92z" />
    <glyph glyph-name="Ydieresis" unicode="&#xff;" horiz-adv-x="389" 
d="M154 657c-4 -4 -7 -10 -7 -18c0 -7 3 -12 8 -18c6 -5 11 -8 18 -8c8 0 13 3 18 8c6 6 8 12 8 19c0 8 -2 13 -8 18c-5 6 -11 7 -19 7c-7 0 -12 -2 -18 -8zM310 649c-4 -4 -7 -10 -7 -18c0 -7 3 -12 8 -18c6 -5 11 -8 18 -8c8 0 13 3 18 8c6 6 8 12 8 19c0 8 -2 13 -8 18
c-5 6 -11 7 -19 7c-7 0 -12 -2 -18 -8zM195 492c1 8 -1 14 -6 19c-4 6 -10 9 -18 10c-7 2 -13 -1 -19 -6c-6 -4 -8 -10 -9 -18c-2 -27 -3 -69 -3 -125c2 -74 8 -139 16 -195c13 -76 33 -129 60 -159c20 -21 42 -31 68 -29c17 2 34 8 51 20c-2 -30 -5 -55 -9 -77
c-10 -51 -24 -77 -44 -79c-24 -2 -42 3 -55 15c-12 13 -20 26 -25 40c-2 7 -6 12 -13 15c-6 4 -13 4 -20 1c-6 -2 -11 -6 -15 -13c-3 -6 -3 -12 -1 -19c8 -22 20 -42 38 -60c24 -24 55 -34 95 -31c26 2 47 16 63 41c12 20 22 46 28 80c10 52 14 125 11 217
c0 40 -3 88 -7 146l-6 92c-1 28 -2 47 -2 57c1 6 1 14 1 25c1 20 2 32 3 38c2 7 1 14 -3 20c-4 7 -8 10 -15 12c-6 2 -13 0 -20 -4c-6 -4 -10 -8 -12 -15c-2 -9 -4 -26 -5 -50c0 -10 0 -18 -1 -24c0 -12 0 -32 2 -62c1 -12 3 -43 6 -93c4 -56 7 -104 7 -143
c1 -22 1 -44 1 -64c-4 -1 -7 -3 -10 -6c-18 -16 -34 -25 -48 -27c-8 0 -17 4 -25 12c-20 22 -35 66 -46 133c-9 53 -14 115 -16 187c0 54 1 94 3 119z" />
    <glyph glyph-name="Iogonek" unicode="&#x12e;" horiz-adv-x="261" 
d="M185 -18c2 3 4 6 5 9h1c7 0 13 3 18 8c6 6 8 11 8 18c0 8 -2 13 -8 18c-5 6 -11 8 -18 8h-19c0 76 -1 181 -4 317c0 8 0 18 -1 31c-2 156 -4 272 -4 348h31c8 0 14 3 19 8c6 6 7 11 7 18c0 8 -2 14 -8 19c-5 6 -10 7 -18 7h-53h-54c-6 0 -12 -2 -18 -8
c-5 -5 -8 -10 -8 -18c0 -7 3 -13 8 -19c6 -5 12 -7 18 -7h24c0 -76 2 -193 5 -349v-31c3 -135 4 -240 4 -316h-36c-7 0 -13 -2 -19 -8c-5 -5 -7 -11 -7 -19c0 -7 3 -12 8 -18c6 -5 11 -7 18 -7h42c-25 -38 -33 -73 -25 -106c7 -23 21 -38 42 -44c20 -6 42 -1 65 15
c6 4 10 10 11 17c2 8 0 13 -4 19s-9 10 -17 11c-7 2 -13 0 -19 -4s-11 -6 -16 -8h-6c-2 1 -3 4 -5 8c-2 10 -1 21 3 34c6 17 16 33 30 49z" />
    <glyph glyph-name="obreve" unicode="&#x14f;" horiz-adv-x="396" 
d="M275 466c3 -3 6 -7 9 -13c8 -14 15 -34 20 -60c11 -50 14 -108 9 -174c-4 -66 -16 -117 -34 -155c-8 -16 -16 -27 -25 -33c-6 -4 -12 -4 -20 -1c-28 13 -48 45 -62 97c-13 52 -16 109 -8 171s23 109 47 140c19 25 40 34 64 28zM302 512c-6 6 -14 10 -22 12
c-8 4 -16 2 -24 -4c-33 -1 -62 -18 -86 -50c-30 -39 -49 -94 -58 -166c-8 -68 -5 -131 9 -190c18 -68 49 -112 92 -132c25 -10 48 -9 69 5c18 11 32 29 44 55c21 43 34 101 39 173c5 70 2 133 -10 189c-6 30 -15 55 -26 74c-1 3 -2 6 -4 8c0 11 -6 19 -16 23c-2 2 -4 3 -7 3
zM209 715c0 8 -2 14 -8 19c-5 6 -11 7 -19 7c-7 0 -12 -2 -18 -8c-5 -5 -7 -10 -7 -18c0 -38 10 -68 30 -90s45 -32 74 -31s55 12 78 32c24 21 39 47 47 79c2 8 0 14 -4 20s-8 10 -16 12c-7 2 -13 0 -19 -4s-10 -8 -12 -15c-5 -22 -15 -40 -31 -54c-14 -12 -28 -18 -44 -18
c-14 0 -25 4 -35 14c-10 12 -16 31 -16 55z" />
    <glyph glyph-name="Odblacute" unicode="&#x150;" 
d="M314 773c-6 1 -13 1 -22 1c-30 0 -58 -13 -82 -39c-19 -22 -36 -52 -50 -91c-24 -70 -36 -157 -36 -259c1 -102 14 -189 38 -262c14 -40 30 -71 49 -95c24 -28 50 -43 80 -47c30 -3 56 8 78 33c18 20 34 49 46 86c23 67 36 151 39 253c3 100 -4 188 -22 264
c-9 41 -21 74 -35 100c-16 32 -36 51 -60 59c-8 4 -15 3 -23 -3zM322 706c7 -12 17 -16 29 -13c12 -22 22 -51 30 -87c17 -72 24 -156 21 -252c-2 -96 -14 -175 -36 -237c-10 -30 -22 -53 -36 -68c-10 -12 -22 -17 -34 -17c-33 4 -61 40 -85 108c-23 68 -34 149 -35 245
c0 96 12 177 34 242c22 64 50 95 82 95c11 0 18 0 20 -2c3 -1 6 -6 10 -14zM190 863c-6 -4 -9 -10 -10 -18c0 -7 3 -13 7 -19c5 -6 11 -8 18 -9c8 0 13 3 19 7c8 7 21 17 37 30c1 0 2 1 2 1c27 20 46 36 58 48c6 6 8 12 8 19c0 8 -2 13 -8 18c-5 6 -11 7 -19 7
c-7 0 -12 -2 -18 -7c-10 -10 -27 -25 -52 -43l-2 -2c-18 -13 -31 -24 -40 -32zM335 868c-6 -4 -9 -9 -11 -17c-1 -7 2 -13 6 -19c5 -6 10 -9 17 -11c8 -1 14 2 19 6c4 3 8 7 14 11l6 6c4 4 7 6 8 6c6 5 10 9 14 12c8 6 15 10 19 11c7 2 12 7 15 13c4 7 4 13 1 20
c-2 8 -6 12 -13 15c-6 4 -12 4 -20 1c-9 -3 -20 -9 -33 -19c-4 -3 -10 -7 -17 -13c0 -1 -2 -3 -5 -5c-2 -2 -4 -3 -6 -5s-3 -2 -3 -3c-4 -4 -8 -7 -11 -9z" />
    <glyph glyph-name="OE" unicode="&#x152;" horiz-adv-x="674" 
d="M322 706c7 -12 17 -16 29 -13c12 -22 22 -51 30 -87c17 -72 24 -156 21 -252c-2 -96 -14 -175 -36 -237c-10 -30 -22 -53 -36 -68c-10 -12 -22 -17 -34 -17c-33 4 -61 40 -85 108c-23 68 -34 149 -35 245c0 96 12 177 34 242c22 64 50 95 82 95c11 0 18 0 20 -2
c3 -1 6 -6 10 -14zM463 323c-4 1 -7 1 -11 -1c1 10 2 21 2 31c3 100 -4 188 -22 264c-6 27 -13 50 -21 70h111h119c7 0 13 3 18 8c6 6 8 12 8 19c0 8 -2 13 -8 18c-5 6 -11 7 -18 7h-119h-119c-6 0 -11 -1 -16 -5c-14 22 -31 36 -50 42c-8 4 -15 3 -23 -3c-6 1 -13 1 -22 1
c-30 0 -58 -13 -82 -39c-19 -22 -36 -52 -50 -91c-24 -70 -36 -157 -36 -259c1 -102 14 -189 38 -262c14 -40 30 -71 49 -95c24 -28 50 -43 80 -47c27 -2 51 7 72 27c5 -10 13 -15 24 -15c28 0 70 1 125 2c21 1 36 2 46 2h79c7 0 13 3 18 8c6 6 8 12 8 19c0 8 -2 13 -8 18
c-5 6 -11 7 -18 7h-80c-10 0 -26 -1 -46 -2c-54 0 -94 -1 -120 -2c10 16 18 35 24 55c17 48 28 106 34 174c4 -1 7 -2 10 -2c22 -2 53 -2 94 -1h46c7 0 13 3 18 8c6 6 8 12 8 19c0 8 -2 13 -8 18c-5 6 -11 7 -18 7h-47c-40 -1 -69 -1 -89 0z" />
    <glyph glyph-name="oe" unicode="&#x153;" horiz-adv-x="638" 
d="M381 333c5 48 16 84 32 109c18 28 43 37 73 26c1 0 2 0 2 -1c2 0 3 -1 5 -3c4 -3 9 -7 13 -13c10 -10 20 -24 31 -42c15 -22 27 -44 35 -64c-50 -8 -114 -12 -191 -12zM275 466c3 -3 6 -7 9 -13c8 -14 15 -34 20 -60c11 -50 14 -108 9 -174c-4 -66 -16 -117 -34 -155
c-8 -16 -16 -27 -25 -33c-6 -4 -12 -4 -20 -1c-28 13 -48 45 -62 97c-13 52 -16 109 -8 171s23 109 47 140c19 25 40 34 64 28zM607 299c8 2 13 5 17 11s6 13 4 19v1c2 5 2 10 0 15c-7 24 -23 55 -48 93c-12 19 -23 35 -35 47c-15 18 -29 28 -42 32c-28 10 -53 10 -76 2
c-22 -8 -42 -24 -58 -49c-8 -12 -14 -26 -20 -42c-5 20 -12 36 -20 50c-1 3 -2 6 -4 8c0 11 -6 19 -16 23c-2 2 -4 3 -7 3c-6 6 -14 10 -22 12c-8 4 -16 2 -24 -4c-33 -1 -62 -18 -86 -50c-30 -39 -49 -94 -58 -166c-8 -68 -5 -131 9 -190c18 -68 49 -112 92 -132
c25 -10 48 -9 69 5c18 11 32 29 44 55c10 20 18 43 24 70c16 -54 38 -90 66 -108c25 -15 50 -19 75 -11c20 7 39 20 57 40c28 32 47 68 58 108c2 7 1 14 -3 20c-4 7 -8 10 -16 12c-7 2 -13 1 -20 -3c-6 -4 -9 -8 -11 -16c-9 -32 -25 -61 -47 -86c-11 -13 -22 -21 -33 -25
c-10 -3 -21 -1 -32 5c-19 12 -35 44 -49 94c-11 44 -16 90 -16 139c43 0 79 1 107 3c42 3 82 8 121 15z" />
    <glyph glyph-name="Scaron" unicode="&#x160;" horiz-adv-x="432" 
d="M216 965c-5 5 -11 7 -19 6c-7 0 -12 -2 -18 -8c-5 -5 -6 -11 -6 -19c1 -7 3 -12 8 -18c9 -8 18 -17 28 -27c2 -2 6 -6 12 -13c7 -6 10 -10 10 -10l20 -20c8 -6 16 -11 24 -14c12 -2 23 -1 33 3c9 4 18 10 26 18c14 14 32 38 56 74c4 6 6 13 4 20c-1 8 -5 12 -11 16
s-12 6 -20 4c-7 -1 -12 -5 -16 -11c-22 -33 -38 -55 -49 -66c-4 -4 -7 -6 -10 -7c-1 1 -2 2 -4 3c-4 4 -9 9 -16 15c0 1 -1 3 -5 6c-3 4 -5 7 -9 10c-3 4 -6 6 -8 8c-10 11 -20 21 -30 30zM396 637c3 -6 8 -11 14 -14c7 -2 14 -2 20 0c7 3 12 7 15 13c4 7 3 14 0 20
c-15 40 -39 69 -72 87c-14 8 -34 13 -58 13h-21h-10c-17 0 -33 -5 -47 -15c-9 -6 -19 -16 -30 -30c-24 -30 -35 -64 -35 -104c1 -30 10 -65 27 -105c11 -26 28 -58 52 -98c3 -4 6 -10 9 -16c2 -1 3 -4 5 -8c2 -2 4 -5 5 -7c7 -12 13 -22 17 -30c12 -20 21 -37 26 -51
c26 -62 41 -117 45 -166c3 -28 -2 -52 -14 -70c-10 -14 -23 -22 -41 -26c-17 -2 -33 1 -49 10c-18 12 -31 29 -39 52c-2 7 -6 12 -13 15c-6 4 -12 3 -20 1c-7 -2 -11 -6 -15 -13c-3 -6 -3 -13 -1 -20c12 -34 32 -61 60 -79c28 -16 56 -22 86 -17c32 6 57 22 75 48
c20 28 27 63 23 104c-4 54 -21 115 -49 181c-6 16 -15 35 -29 57c-4 8 -10 18 -18 30c-1 2 -2 5 -4 8l-5 8c-4 6 -7 11 -9 15c-22 38 -39 69 -50 93c-28 67 -28 119 2 156c14 17 26 25 36 25h11h18c16 0 28 -3 35 -7c22 -12 38 -32 48 -60z" />
    <glyph glyph-name="scaron" unicode="&#x161;" horiz-adv-x="345" 
d="M127 732c-4 6 -10 9 -18 9c-7 1 -13 -1 -19 -6c-5 -4 -8 -9 -9 -17c0 -7 1 -13 5 -19c11 -12 23 -28 37 -46c12 -14 19 -24 23 -28c8 -9 15 -15 21 -19c14 -6 27 -5 38 5c4 4 8 10 14 18c6 9 11 16 15 20c16 21 37 40 63 57c6 4 10 10 11 17c2 8 0 13 -4 19s-9 10 -17 11
c-7 2 -13 0 -19 -4c-30 -20 -55 -43 -75 -67c-4 -5 -8 -11 -13 -17c-2 4 -8 11 -16 21c-14 18 -26 33 -37 46zM266 421c4 -6 9 -11 15 -14c7 -2 14 -1 20 2c7 4 12 8 14 15c3 8 2 13 -2 19c-13 29 -33 49 -61 61c-12 6 -28 9 -48 9h-17h-8c-14 0 -27 -3 -40 -10
c-8 -4 -16 -11 -25 -21c-21 -21 -31 -46 -31 -76c1 -22 8 -46 22 -74c10 -17 24 -39 44 -66c2 -2 5 -6 8 -11c0 0 1 -2 3 -5c2 -2 4 -3 4 -5c6 -7 11 -13 14 -19c10 -13 17 -24 21 -32c20 -39 32 -74 35 -105c2 -16 -1 -28 -9 -38c-7 -8 -17 -13 -31 -15s-28 1 -41 7
c-12 7 -21 17 -27 29c-2 7 -7 12 -14 14c-6 3 -13 3 -20 0c-6 -2 -10 -7 -14 -14c-3 -6 -2 -13 0 -20c10 -24 27 -42 50 -55c24 -12 47 -16 73 -13c28 4 50 17 66 37c16 21 23 45 19 74c-4 37 -17 78 -41 122c-5 11 -13 24 -25 39c-3 6 -8 12 -14 20c-1 2 -2 3 -4 5l-4 6
c-2 4 -5 8 -7 10c-18 25 -31 45 -40 59c-20 40 -20 70 0 90c10 10 20 15 28 15h8h16c13 0 22 -1 27 -4c17 -7 29 -19 36 -36z" />
    <glyph glyph-name="Ydieresis" unicode="&#x178;" horiz-adv-x="394" 
d="M99 891c-4 -4 -7 -10 -7 -18c0 -7 3 -12 8 -18c6 -5 11 -8 18 -8c8 0 13 3 18 8c6 6 8 12 8 19c0 8 -2 13 -8 18c-5 6 -11 7 -19 7c-7 0 -12 -2 -18 -8zM279 891c-4 -4 -7 -10 -7 -18c0 -7 3 -12 8 -18c6 -5 11 -8 18 -8c8 0 13 3 18 8c6 6 8 12 8 19c0 8 -2 13 -8 18
c-5 6 -11 7 -19 7c-7 0 -12 -2 -18 -8zM336 730c2 7 2 14 -1 20c-2 7 -7 12 -14 14c-6 3 -13 3 -20 -1c-6 -3 -11 -7 -14 -14c-10 -28 -21 -70 -31 -125c-14 -78 -26 -146 -34 -204c-62 148 -112 260 -150 338c-2 6 -7 11 -15 13c-7 3 -13 2 -20 -2c-6 -3 -10 -7 -13 -14
c-2 -6 -1 -13 2 -20c20 -40 50 -108 92 -205c42 -96 70 -161 82 -196c2 -4 5 -8 9 -11c-4 -41 -8 -82 -12 -122c0 -14 -1 -28 -2 -43c0 -16 -1 -42 -2 -76c0 -32 -1 -56 -1 -73c0 -6 3 -12 8 -18c6 -5 11 -8 18 -8c8 0 13 3 18 8c6 6 8 11 8 17c0 17 1 42 1 74
c1 33 2 58 2 74c0 14 1 28 2 41c9 112 28 252 58 418c10 52 19 90 29 115z" />
    <glyph glyph-name="zacute" unicode="&#x17a;" horiz-adv-x="386" 
d="M149 615c-4 -5 -6 -11 -5 -19c2 -7 4 -13 10 -18c6 -4 12 -5 19 -4c8 2 13 4 17 10c4 5 9 12 15 20c0 1 2 3 4 6c3 4 4 6 6 9c2 4 4 6 5 7c18 26 32 42 44 50c6 4 10 10 11 17c2 8 0 13 -4 19s-9 10 -17 11c-7 2 -13 0 -19 -4c-17 -11 -36 -32 -58 -64c-1 -1 -3 -3 -5 -7
c-2 -3 -4 -6 -7 -10l-3 -4c-5 -8 -9 -14 -13 -19zM302 466c2 4 3 7 3 11c4 5 5 10 5 15c0 8 -2 14 -8 19c-5 6 -10 7 -18 7c-91 0 -168 3 -230 7c-6 1 -13 -1 -19 -6c-6 -4 -8 -10 -9 -18c0 -7 3 -13 7 -19c5 -6 11 -8 17 -8c56 -4 122 -7 196 -8c-15 -33 -40 -85 -75 -156
c0 0 -1 -1 -1 -2c-31 -62 -54 -108 -68 -140c-22 -47 -39 -91 -53 -131c-10 -4 -15 -12 -15 -24c0 -6 3 -12 8 -18c6 -5 11 -8 18 -8c41 0 85 1 132 2c33 0 59 1 77 2c12 1 21 2 27 2c4 0 8 1 10 1c9 2 15 6 19 12s6 13 4 20c-1 8 -5 12 -11 16c-7 6 -15 7 -24 3
c0 0 -1 -1 -3 -1c-5 0 -13 -1 -24 -1c-18 -1 -44 -2 -76 -2c-26 0 -54 -1 -86 -2c12 33 27 69 44 107c14 32 37 78 67 139c1 1 1 2 1 2c40 79 68 139 85 179zM285 39c3 3 6 5 9 5c-3 -1 -6 -3 -9 -5z" />
    <glyph glyph-name="Zcaron" unicode="&#x17d;" horiz-adv-x="447" 
d="M149 973c-4 6 -10 9 -18 9c-7 1 -13 -2 -19 -8c-5 -5 -8 -10 -9 -18c0 -7 3 -12 7 -18c4 -3 8 -8 13 -14c6 -6 11 -12 16 -18c6 -6 10 -10 14 -16c5 -5 8 -9 11 -13c4 -3 5 -5 5 -6c8 -8 14 -15 20 -19c9 -7 18 -11 28 -11s19 4 28 10c6 4 12 10 19 18c2 2 6 7 12 14
c7 8 10 11 11 11c11 12 21 23 31 33c6 6 8 12 8 19c0 8 -2 13 -8 18c-5 6 -11 7 -19 7c-7 0 -12 -2 -18 -7c-10 -10 -21 -22 -33 -35c0 -1 -4 -5 -11 -12c-6 -6 -9 -10 -11 -12c-3 -4 -6 -7 -9 -9l-10 10l-4 5c-3 4 -7 8 -12 13c-4 6 -8 11 -14 17c-5 6 -9 12 -15 18
c-5 6 -9 10 -13 14zM396 745c3 7 3 14 0 20c-2 7 -7 12 -14 14c-8 3 -15 2 -22 -2c-30 -2 -72 -4 -127 -5c-6 0 -14 1 -25 1c-61 0 -106 -1 -134 -4c-7 0 -13 -3 -18 -9c-4 -5 -6 -11 -6 -19c1 -7 4 -13 9 -18c6 -4 12 -6 19 -6c27 3 70 4 130 4c11 0 19 -1 25 -1
c42 1 75 2 99 3c-15 -38 -39 -93 -71 -167c-1 -2 -3 -6 -5 -12c-29 -67 -51 -118 -65 -152s-25 -59 -32 -77c-4 -9 -7 -18 -11 -26c-35 -86 -67 -167 -95 -241c-7 -5 -11 -12 -11 -21c0 -7 3 -13 8 -19c6 -5 11 -7 18 -7c14 0 49 -1 105 -5c7 0 13 0 17 -1
c46 -2 79 -3 100 -3c16 0 28 1 36 1c6 1 11 2 15 3s7 2 9 4c6 4 10 9 12 15c3 7 3 14 -1 20c-3 7 -8 11 -15 13c-8 3 -15 2 -23 -3h-2c-6 0 -16 -1 -30 -1c-20 0 -53 1 -98 3c-4 1 -10 1 -17 1c-32 2 -54 4 -66 4c26 66 54 139 86 217c4 9 7 18 11 26c8 18 18 43 32 77
s36 85 64 151c3 6 5 11 6 13c40 90 69 160 87 209z" />
    <glyph glyph-name="zcaron" unicode="&#x17e;" horiz-adv-x="386" 
d="M140 743c-4 7 -9 11 -17 12c-7 2 -13 0 -19 -4s-10 -8 -12 -16c-2 -7 0 -13 4 -19c5 -8 14 -23 27 -46c10 -16 19 -27 26 -35c21 -20 44 -23 68 -8c17 11 38 35 62 72c4 6 6 13 4 20c-1 8 -5 12 -11 16s-12 6 -20 4c-7 -1 -12 -5 -16 -11c-21 -31 -37 -50 -47 -57l-1 -1
c0 1 -1 2 -2 2c-4 4 -10 13 -18 25zM302 466c2 4 3 7 3 11c4 5 5 10 5 15c0 8 -2 14 -8 19c-5 6 -10 7 -18 7c-91 0 -168 3 -230 7c-6 1 -13 -1 -19 -6c-6 -4 -8 -10 -9 -18c0 -7 3 -13 7 -19c5 -6 11 -8 17 -8c56 -4 122 -7 196 -8c-15 -33 -40 -85 -75 -156
c0 0 -1 -1 -1 -2c-31 -62 -54 -108 -68 -140c-22 -47 -39 -91 -53 -131c-10 -4 -15 -12 -15 -24c0 -6 3 -12 8 -18c6 -5 11 -8 18 -8c41 0 85 1 132 2c33 0 59 1 77 2c12 1 21 2 27 2c4 0 8 1 10 1c9 2 15 6 19 12s6 13 4 20c-1 8 -5 12 -11 16c-7 6 -15 7 -24 3
c0 0 -1 -1 -3 -1c-5 0 -13 -1 -24 -1c-18 -1 -44 -2 -76 -2c-26 0 -54 -1 -86 -2c12 33 27 69 44 107c14 32 37 78 67 139c1 1 1 2 1 2c40 79 68 139 85 179zM285 39c3 3 6 5 9 5c-3 -1 -6 -3 -9 -5z" />
    <glyph glyph-name="quoteleft" unicode="&#x2018;" horiz-adv-x="262" 
d="M273 774c1 7 -1 13 -6 19c-4 6 -10 9 -18 9c-7 1 -13 -1 -19 -6c-5 -4 -8 -10 -9 -18c-2 -24 -9 -56 -22 -94c-4 -12 -10 -28 -17 -47l-2 -7c-2 -5 -4 -10 -6 -16c-2 -5 -3 -9 -5 -12c-4 -12 -8 -23 -11 -33c-2 -6 -2 -13 1 -20c4 -6 9 -11 15 -14c7 -2 14 -1 20 2
c7 4 11 9 13 15c3 10 7 21 11 33c1 2 2 6 4 11c2 6 4 11 6 16l3 7c8 20 13 36 17 49c14 42 23 77 25 106z" />
    <glyph glyph-name="quoteright" unicode="&#x2019;" horiz-adv-x="246" 
d="M240 747c2 8 0 14 -5 20c-4 6 -9 9 -17 10c-7 2 -14 -1 -20 -6c-6 -4 -8 -9 -9 -17c-5 -40 -12 -76 -20 -109c-11 -48 -22 -77 -34 -89c-4 -5 -7 -11 -7 -19c0 -7 3 -13 8 -19c6 -5 11 -7 18 -7c8 0 13 3 18 8c18 18 34 56 48 114c8 34 15 72 20 114z" />
    <glyph glyph-name="quotedblleft" unicode="&#x201c;" horiz-adv-x="395" 
d="M264 772c2 7 2 14 -1 20c-2 7 -7 12 -14 14c-6 3 -13 2 -20 -1c-6 -2 -11 -7 -14 -14c-10 -27 -22 -64 -36 -112c0 -2 -2 -7 -4 -15c-10 -36 -19 -64 -25 -83c-2 -6 -1 -13 2 -20c4 -6 8 -10 15 -13c8 -2 14 -1 20 2c7 4 10 9 12 15c7 20 16 48 26 85c2 8 4 13 4 15
c14 46 25 82 35 107zM401 772c2 8 0 14 -5 20c-4 6 -9 9 -17 10c-7 2 -13 -1 -19 -6c-6 -4 -9 -9 -10 -16c-2 -19 -8 -41 -17 -65c-5 -15 -14 -37 -27 -67c-16 -38 -28 -66 -34 -85c-2 -6 -1 -13 2 -20c4 -6 8 -10 15 -13c8 -2 14 -1 20 2c7 4 10 9 12 15c6 17 17 44 32 80
c14 30 23 54 29 70c10 28 17 53 19 75z" />
    <glyph glyph-name="quotedblright" unicode="&#x201d;" horiz-adv-x="368" 
d="M226 738c2 7 0 14 -4 20c-4 7 -8 10 -16 11c-7 2 -13 0 -19 -4s-10 -8 -12 -16c-3 -15 -12 -39 -27 -73c-10 -26 -18 -46 -23 -60c-7 -24 -11 -46 -11 -66c0 -7 3 -13 8 -19c6 -5 11 -7 18 -7c8 0 13 3 18 8c6 6 8 11 8 18c0 15 3 32 9 50c4 12 11 31 21 55
c16 37 26 65 30 83zM356 747c0 8 -2 14 -8 19c-5 6 -11 7 -19 7c-7 0 -12 -2 -18 -8c-5 -5 -7 -10 -7 -18c0 -18 -4 -41 -12 -67c-3 -10 -9 -26 -17 -47c-14 -38 -22 -67 -26 -87c-2 -7 -1 -14 3 -20s10 -9 17 -11c8 -1 14 0 20 4s9 10 11 17c4 17 12 43 24 79
c8 22 14 39 18 50c10 32 14 59 14 82z" />
    <glyph glyph-name="Euro" unicode="&#x20ac;" horiz-adv-x="433" 
d="M366 696c8 1 14 4 18 9c5 6 7 12 6 19c0 8 -4 14 -10 18c-6 5 -11 7 -18 6c-73 -6 -127 -47 -163 -123c-18 -40 -30 -87 -35 -141c-17 0 -33 0 -49 -2c-7 0 -13 -2 -18 -8c-4 -5 -6 -11 -6 -19c1 -7 3 -13 8 -18c6 -4 12 -6 19 -6c14 1 29 1 43 1c0 -14 1 -28 1 -42
c1 -15 2 -31 4 -47c-23 1 -44 1 -62 1c-7 0 -13 -2 -19 -8c-5 -5 -7 -10 -7 -18c0 -7 3 -12 8 -18c6 -5 11 -8 18 -8c20 0 43 0 70 -1c11 -52 27 -100 47 -143c39 -80 88 -130 147 -150c7 -2 14 -2 20 1c7 4 11 9 13 15c2 7 2 14 -2 20c-3 7 -7 11 -14 13
c-46 16 -85 57 -117 124c-17 36 -30 75 -40 118c38 -1 67 -2 89 -2c8 0 14 3 19 8c6 6 7 11 7 18c0 8 -2 14 -8 19c-5 6 -10 7 -18 7c-22 0 -55 1 -98 2c-2 18 -4 35 -5 52c0 14 -1 27 -1 40h30h36c28 0 48 -1 61 -1c8 0 14 3 19 8c6 6 7 12 7 19c0 8 -2 13 -8 18
c-5 6 -10 7 -18 7c-13 0 -33 1 -60 1h-37h-27c5 46 15 85 30 118c28 58 68 89 120 93z" />
  </font>
</defs>
</svg>
